<svg width="25" height="25" viewBox="0 0 25 25" fill="none" xmlns="http://www.w3.org/2000/svg">
<g clip-path="url(#clip0_6239_6944)">
<mask id="mask0_6239_6944" style="mask-type:luminance" maskUnits="userSpaceOnUse" x="0" y="0" width="25" height="25">
<path d="M0.669922 0.667971H24.6699V24.668H0.669922V0.667971Z" fill="white"/>
</mask>
<g mask="url(#mask0_6239_6944)">
<path d="M4.63509 13.5243C4.63509 14.1246 4.14839 14.6113 3.54802 14.6113C2.94764 14.6113 2.46094 14.1246 2.46094 13.5243C2.46094 12.9238 2.94764 12.4372 3.54802 12.4372C4.14839 12.4372 4.63509 12.9238 4.63509 13.5243Z" stroke="black" stroke-width="0.71291" stroke-miterlimit="10" stroke-linecap="round" stroke-linejoin="round"/>
<path d="M9.19569 11.241C9.19569 11.8415 8.70894 12.3281 8.10861 12.3281C7.50819 12.3281 7.02148 11.8415 7.02148 11.241C7.02148 10.6407 7.50819 10.154 8.10861 10.154C8.70894 10.154 9.19569 10.6407 9.19569 11.241Z" stroke="black" stroke-width="0.71291" stroke-miterlimit="10" stroke-linecap="round" stroke-linejoin="round"/>
<path d="M13.7562 6.67464C13.7562 7.27502 13.2695 7.76172 12.6692 7.76172C12.0687 7.76172 11.582 7.27502 11.582 6.67464C11.582 6.07422 12.0687 5.58756 12.6692 5.58756C13.2695 5.58756 13.7562 6.07422 13.7562 6.67464Z" stroke="black" stroke-width="0.71291" stroke-miterlimit="10" stroke-linecap="round" stroke-linejoin="round"/>
<path d="M18.3148 8.95784C18.3148 9.55827 17.8281 10.0449 17.2277 10.0449C16.6274 10.0449 16.1406 9.55827 16.1406 8.95784C16.1406 8.35742 16.6274 7.87077 17.2277 7.87077C17.8281 7.87077 18.3148 8.35742 18.3148 8.95784Z" stroke="black" stroke-width="0.71291" stroke-miterlimit="10" stroke-linecap="round" stroke-linejoin="round"/>
<path d="M22.8773 2.10628C22.8773 2.7067 22.3906 3.19336 21.7902 3.19336C21.1898 3.19336 20.7031 2.7067 20.7031 2.10628C20.7031 1.50586 21.1898 1.0192 21.7902 1.0192C22.3906 1.0192 22.8773 1.50586 22.8773 2.10628Z" stroke="black" stroke-width="0.71291" stroke-miterlimit="10" stroke-linecap="round" stroke-linejoin="round"/>
<path d="M17.8301 8.05273L21.186 3.01044" stroke="black" stroke-width="0.71291" stroke-miterlimit="10" stroke-linecap="round" stroke-linejoin="round"/>
<path d="M13.6406 7.16027L16.257 8.4707" stroke="black" stroke-width="0.71291" stroke-miterlimit="10" stroke-linecap="round" stroke-linejoin="round"/>
<path d="M8.87695 10.4727L11.9013 7.44317" stroke="black" stroke-width="0.71291" stroke-miterlimit="10" stroke-linecap="round" stroke-linejoin="round"/>
<path d="M4.51953 13.0391L7.136 11.7286" stroke="black" stroke-width="0.71291" stroke-miterlimit="10" stroke-linecap="round" stroke-linejoin="round"/>
<path d="M4.72361 17.5489H2.37212C2.20975 17.5489 2.07812 17.6805 2.07812 17.8428V24.3145H5.01756V17.8428C5.01756 17.6805 4.88598 17.5489 4.72361 17.5489Z" stroke="black" stroke-width="0.71291" stroke-miterlimit="10" stroke-linecap="round" stroke-linejoin="round"/>
<path d="M9.28416 15.2648H6.93272C6.77034 15.2648 6.63867 15.3964 6.63867 15.5588V24.3145H9.57816V15.5588C9.57816 15.3964 9.44653 15.2648 9.28416 15.2648Z" stroke="black" stroke-width="0.71291" stroke-miterlimit="10" stroke-linecap="round" stroke-linejoin="round"/>
<path d="M13.8447 10.6768H11.4933C11.3309 10.6768 11.1992 10.8084 11.1992 10.9707V24.3145H14.1387V10.9707C14.1387 10.8084 14.0071 10.6768 13.8447 10.6768Z" stroke="black" stroke-width="0.71291" stroke-miterlimit="10" stroke-linecap="round" stroke-linejoin="round"/>
<path d="M1.29102 24.3145H24.0454" stroke="black" stroke-width="0.71291" stroke-miterlimit="10" stroke-linecap="round" stroke-linejoin="round"/>
<path d="M16.4072 12.9807H16.0518C15.8894 12.9807 15.7578 13.1124 15.7578 13.2747V24.3145H18.6972V13.2747C18.6972 13.1124 18.5656 12.9807 18.4032 12.9807H18.0478" stroke="black" stroke-width="0.71291" stroke-miterlimit="10" stroke-linecap="round" stroke-linejoin="round"/>
<path d="M23.2597 14.5969V6.39044C23.2597 6.22806 23.1281 6.09639 22.9658 6.09639H20.6143C20.4519 6.09639 20.3203 6.22806 20.3203 6.39044V24.3145H23.2597V16.2376" stroke="black" stroke-width="0.71291" stroke-miterlimit="10" stroke-linecap="round" stroke-linejoin="round"/>
</g>
</g>
<defs>
<clipPath id="clip0_6239_6944">
<rect width="24" height="24" fill="white" transform="translate(0.666016 0.666016)"/>
</clipPath>
</defs>
</svg>
