<svg width="24" height="24" viewBox="0 0 24 24" fill="none" xmlns="http://www.w3.org/2000/svg">
<path d="M20.25 3H17.25V2.25C17.25 2.05109 17.171 1.86032 17.0303 1.71967C16.8897 1.57902 16.6989 1.5 16.5 1.5C16.3011 1.5 16.1103 1.57902 15.9697 1.71967C15.829 1.86032 15.75 2.05109 15.75 2.25V3H8.25V2.25C8.25 2.05109 8.17098 1.86032 8.03033 1.71967C7.88968 1.57902 7.69891 1.5 7.5 1.5C7.30109 1.5 7.11032 1.57902 6.96967 1.71967C6.82902 1.86032 6.75 2.05109 6.75 2.25V3H3.75C3.15326 3 2.58097 3.23705 2.15901 3.65901C1.73705 4.08097 1.5 4.65326 1.5 5.25V20.25C1.5 20.8467 1.73705 21.419 2.15901 21.841C2.58097 22.2629 3.15326 22.5 3.75 22.5H20.25C20.8467 22.5 21.419 22.2629 21.841 21.841C22.2629 21.419 22.5 20.8467 22.5 20.25V5.25C22.5 4.65326 22.2629 4.08097 21.841 3.65901C21.419 3.23705 20.8467 3 20.25 3ZM3.75 4.5H20.25C20.4489 4.5 20.6397 4.57902 20.7803 4.71967C20.921 4.86032 21 5.05109 21 5.25V7.5H3V5.25C3 5.05109 3.07902 4.86032 3.21967 4.71967C3.36032 4.57902 3.55109 4.5 3.75 4.5ZM20.25 21H3.75C3.55109 21 3.36032 20.921 3.21967 20.7803C3.07902 20.6397 3 20.4489 3 20.25V9H21V20.25C21 20.4489 20.921 20.6397 20.7803 20.7803C20.6397 20.921 20.4489 21 20.25 21Z" fill="black"/>
<path d="M15.2633 11.4313L10.5383 15.4813L8.77885 13.7225C8.6374 13.5859 8.44794 13.5103 8.2513 13.512C8.05465 13.5137 7.86654 13.5926 7.72748 13.7316C7.58843 13.8707 7.50955 14.0588 7.50784 14.2555C7.50613 14.4521 7.58173 14.6415 7.71835 14.783L9.96835 17.033C10.1019 17.1664 10.2809 17.2445 10.4696 17.2518C10.6582 17.259 10.8427 17.1948 10.9861 17.072L16.2361 12.572C16.3151 12.5093 16.3807 12.4313 16.4289 12.3427C16.4771 12.2541 16.5069 12.1567 16.5166 12.0563C16.5263 11.9559 16.5156 11.8546 16.4852 11.7584C16.4548 11.6622 16.4053 11.5731 16.3397 11.4965C16.2741 11.4199 16.1937 11.3573 16.1033 11.3125C16.013 11.2677 15.9145 11.2415 15.8138 11.2357C15.7131 11.2298 15.6123 11.2443 15.5173 11.2783C15.4223 11.3122 15.3352 11.3651 15.2611 11.4335L15.2633 11.4313Z" fill="black"/>
</svg>
