<svg width="24" height="24" viewBox="0 0 24 24" fill="none" xmlns="http://www.w3.org/2000/svg">
<g clip-path="url(#clip0_6237_6842)">
<path d="M23.9719 1.79165C23.9199 0.838307 23.1617 0.0801974 22.2084 0.0281661C20.2847 -0.0769276 16.5204 0.0253068 12.921 1.88704C11.0861 2.83617 9.14546 4.44534 7.59676 6.30196C7.57768 6.32484 7.55912 6.34785 7.54018 6.37078L4.0255 6.64228C3.44696 6.68699 2.93167 6.99023 2.6117 7.47417L0.213855 11.101C-0.0288164 11.468 -0.0673945 11.9273 0.11059 12.3297C0.288621 12.732 0.654434 13.0124 1.0892 13.0798L4.05034 13.5384C4.03989 13.596 4.02939 13.6535 4.01978 13.7111C3.9212 14.3008 4.11657 14.907 4.54248 15.3329L8.6671 19.4576C9.02021 19.8107 9.49735 20.0054 9.98626 20.0054C10.0869 20.0054 10.1882 19.9971 10.289 19.9802C10.3465 19.9706 10.4041 19.9601 10.4616 19.9497L10.9202 22.9109C10.9876 23.3456 11.268 23.7115 11.6703 23.8895C11.8377 23.9635 12.0148 24.0001 12.1912 24.0001C12.4388 24 12.6847 23.9279 12.899 23.7862L16.5258 21.3884C17.0098 21.0683 17.313 20.553 17.3576 19.9746L17.6291 16.4599C17.6521 16.441 17.6751 16.4224 17.698 16.4033C19.5547 14.8546 21.1639 12.914 22.113 11.079C23.9748 7.47946 24.0768 3.71517 23.9719 1.79165ZM15.7503 20.2153L12.281 22.509L11.834 19.6231C13.3003 19.192 14.7507 18.5016 16.1326 17.5766L15.9557 19.8662C15.9447 20.009 15.8698 20.1363 15.7503 20.2153ZM9.66146 18.4632L5.53679 14.3385C5.43156 14.2333 5.3829 14.0854 5.40676 13.9429C5.52939 13.2097 5.71993 12.5116 5.95581 11.8541L12.1446 18.0429C11.3549 18.3258 10.6475 18.4945 10.0571 18.5932C9.9144 18.617 9.7667 18.5684 9.66146 18.4632ZM4.13382 8.04435L6.42339 7.86749C5.49835 9.24932 4.80789 10.6998 4.37678 12.166L1.49096 11.7191L3.78475 8.24976C3.86378 8.13023 3.99104 8.05537 4.13382 8.04435ZM16.7973 15.3234C15.6614 16.2709 14.5588 16.9562 13.5424 17.4521L6.5477 10.4573C7.19729 9.13059 7.99009 8.02579 8.67662 7.20276C10.1098 5.48456 11.8923 4.00232 13.5671 3.13607C16.8706 1.42734 20.3511 1.33532 22.1318 1.43226C22.3675 1.4451 22.5549 1.63256 22.5678 1.86829C22.6649 3.64898 22.5727 7.12945 20.8639 10.433C19.9977 12.1077 18.5155 13.8902 16.7973 15.3234Z" fill="black"/>
<path d="M16.4394 11.0746C17.3395 11.0745 18.2399 10.7318 18.9252 10.0466C19.5892 9.38259 19.9548 8.49974 19.9548 7.56074C19.9548 6.62174 19.5892 5.7389 18.9252 5.07491C17.5545 3.70415 15.3242 3.70424 13.9535 5.07491C13.2895 5.7389 12.9238 6.62174 12.9238 7.56074C12.9238 8.49974 13.2895 9.38259 13.9535 10.0466C14.6389 10.732 15.5389 11.0747 16.4394 11.0746ZM14.9478 6.06923C15.359 5.65799 15.8991 5.4524 16.4393 5.4524C16.9795 5.4524 17.5196 5.65799 17.9308 6.06923C18.3292 6.46762 18.5485 6.9973 18.5485 7.5607C18.5485 8.12409 18.3292 8.65382 17.9308 9.05221C17.1084 9.87463 15.7702 9.87459 14.9478 9.05221C14.5494 8.65382 14.3299 8.12413 14.3299 7.56074C14.3299 6.99735 14.5494 6.46762 14.9478 6.06923Z" fill="black"/>
<path d="M0.716773 19.7781C0.896727 19.7781 1.07668 19.7094 1.21393 19.5721L3.50954 17.2765C3.78413 17.0019 3.78413 16.5567 3.50954 16.2821C3.23499 16.0075 2.78977 16.0075 2.51518 16.2821L0.219617 18.5777C-0.0549766 18.8523 -0.0549766 19.2975 0.219617 19.5721C0.356867 19.7094 0.53682 19.7781 0.716773 19.7781Z" fill="black"/>
<path d="M5.61377 18.3856C5.33923 18.111 4.89401 18.111 4.61941 18.3856L0.205945 22.7991C-0.0686484 23.0737 -0.0686484 23.5189 0.205945 23.7935C0.343242 23.9308 0.523148 23.9994 0.703102 23.9994C0.883055 23.9994 1.06301 23.9308 1.20026 23.7935L5.61373 19.38C5.88837 19.1054 5.88837 18.6602 5.61377 18.3856Z" fill="black"/>
<path d="M6.72421 20.4891L4.4286 22.7848C4.15401 23.0594 4.15401 23.5045 4.4286 23.7791C4.5659 23.9164 4.74585 23.9851 4.92576 23.9851C5.10566 23.9851 5.28566 23.9165 5.42291 23.7791L7.71852 21.4835C7.99312 21.2089 7.99312 20.7637 7.71852 20.4891C7.44398 20.2146 6.99876 20.2146 6.72421 20.4891Z" fill="black"/>
</g>
<defs>
<clipPath id="clip0_6237_6842">
<rect width="24" height="24" fill="white"/>
</clipPath>
</defs>
</svg>
