<svg width="24" height="24" viewBox="0 0 24 24" fill="none" xmlns="http://www.w3.org/2000/svg">
<g clip-path="url(#clip0_6239_7011)">
<path d="M21 13.0879V12.3379C21.207 12.3379 21.375 12.17 21.375 11.9629V9.71289C21.375 9.50576 21.207 9.33789 21 9.33789H18.975L18.9023 9.0562C18.7365 8.41196 18.479 7.79483 18.1373 7.22398L17.9873 6.97305L19.425 5.53281C19.5697 5.38779 19.5697 5.15283 19.425 5.00781L17.8324 3.41289C17.6854 3.27271 17.4543 3.27271 17.3073 3.41289L15.8669 4.85327L15.6161 4.70327C15.0444 4.36138 14.4267 4.10386 13.7815 3.93789L13.5 3.86465V1.83789C13.5 1.63076 13.3321 1.46289 13.125 1.46289H10.875C10.6679 1.46289 10.5 1.63076 10.5 1.83789V3.86289L10.2183 3.93569C9.57407 4.10137 8.95693 4.35889 8.38579 4.7002L8.13486 4.85034L6.69492 3.41289C6.54771 3.27153 6.31524 3.27153 6.16802 3.41289L4.575 5.00547C4.50498 5.07534 4.46558 5.17026 4.46558 5.26914C4.46558 5.36816 4.50498 5.46294 4.575 5.53281L6.01538 6.97305L5.86538 7.22398C5.52378 7.79483 5.26611 8.41196 5.10044 9.0562L5.0269 9.33789H3C2.79287 9.33789 2.625 9.50576 2.625 9.71289V11.9629C2.625 12.17 2.79287 12.3379 3 12.3379V13.0879C2.37876 13.0879 1.875 12.5841 1.875 11.9629V9.71289C1.875 9.09165 2.37876 8.58789 3 8.58789H4.45093C4.60562 8.06934 4.8148 7.56865 5.07495 7.09434L4.0437 6.06309C3.83276 5.85259 3.71426 5.56694 3.71426 5.26914C3.71426 4.97134 3.83276 4.68569 4.0437 4.47534L5.63745 2.88159C6.08145 2.45664 6.78149 2.45664 7.22549 2.88159L8.25645 3.9124C8.73076 3.65239 9.23159 3.44365 9.75 3.28911V1.83789C9.75 1.21665 10.2538 0.712891 10.875 0.712891H13.125C13.7462 0.712891 14.25 1.21665 14.25 1.83789V3.28911C14.7686 3.44365 15.2691 3.65283 15.7436 3.91284L16.7748 2.88159C17.2189 2.45664 17.9188 2.45664 18.363 2.88159L19.9564 4.4749C20.1672 4.6854 20.2856 4.97075 20.2856 5.2687C20.2856 5.56665 20.1672 5.8523 19.9564 6.06265L18.9252 7.0939C19.1852 7.56851 19.3942 8.06934 19.5491 8.58789H21C21.6212 8.58789 22.125 9.09165 22.125 9.71289V11.9629C22.125 12.5841 21.6212 13.0879 21 13.0879Z" fill="black"/>
<path d="M17.25 10.8379H16.5C16.5 8.35264 14.4853 6.33789 12 6.33789C9.51475 6.33789 7.5 8.35264 7.5 10.8379H6.75C6.75 7.93838 9.10049 5.58789 12 5.58789C14.8994 5.58789 17.25 7.93838 17.25 10.8379Z" fill="black"/>
<path d="M12 13.8379C10.7574 13.8379 9.75 12.8304 9.75 11.5879C9.75 10.3453 10.7574 9.33789 12 9.33789C13.2428 9.33789 14.25 10.3453 14.25 11.5879C14.2487 12.8301 13.2422 13.8366 12 13.8379ZM12 10.0879C11.1716 10.0879 10.5 10.7595 10.5 11.5879C10.5 12.4163 11.1716 13.0879 12 13.0879C12.8284 13.0879 13.5 12.4163 13.5 11.5879C13.5 10.7595 12.8284 10.0879 12 10.0879Z" fill="black"/>
<path d="M18.375 15.3379C17.1324 15.3379 16.125 14.3304 16.125 13.0879C16.125 11.8453 17.1324 10.8379 18.375 10.8379C19.6176 10.8379 20.625 11.8453 20.625 13.0879C20.6237 14.3301 19.6172 15.3366 18.375 15.3379ZM18.375 11.5879C17.5466 11.5879 16.875 12.2595 16.875 13.0879C16.875 13.9163 17.5466 14.5879 18.375 14.5879C19.2034 14.5879 19.875 13.9163 19.875 13.0879C19.875 12.2595 19.2034 11.5879 18.375 11.5879Z" fill="black"/>
<path d="M5.625 15.3379C4.38237 15.3379 3.375 14.3304 3.375 13.0879C3.375 11.8453 4.38237 10.8379 5.625 10.8379C6.86777 10.8379 7.875 11.8453 7.875 13.0879C7.87368 14.3301 6.86719 15.3366 5.625 15.3379ZM5.625 11.5879C4.79663 11.5879 4.125 12.2595 4.125 13.0879C4.125 13.9163 4.79663 14.5879 5.625 14.5879C6.45337 14.5879 7.125 13.9163 7.125 13.0879C7.125 12.2595 6.45337 11.5879 5.625 11.5879Z" fill="black"/>
<path d="M21.7746 16.3C21.2158 15.9159 20.5532 15.711 19.875 15.7129H16.875C16.6926 15.7145 16.5105 15.7311 16.3308 15.7623C16.0909 15.387 15.7787 15.0633 15.4125 14.8094C15.3576 14.7679 15.2999 14.7303 15.2397 14.697C14.7151 14.3793 14.1132 14.212 13.5 14.2129H10.5C9.35318 14.2088 8.28457 14.794 7.67022 15.7623C7.49004 15.7311 7.30767 15.7145 7.125 15.7129H4.125C3.44736 15.711 2.78496 15.9156 2.22642 16.2993C1.30327 16.9274 0.750586 17.9714 0.75 19.0879V20.5879C0.751318 21.6118 1.34707 22.5417 2.2771 22.9706C2.62046 23.1323 2.99561 23.2151 3.375 23.2129H7.125V22.4629H3.75V18.3379H3V22.4253C2.85879 22.397 2.72168 22.3513 2.5916 22.2896C1.9273 21.9833 1.50146 21.3193 1.5 20.5879V19.0879C1.50088 18.219 1.9314 17.4067 2.64976 16.918C3.08379 16.6201 3.59839 16.4614 4.125 16.4629H7.125C7.19107 16.4629 7.25479 16.4699 7.31924 16.4743C7.19238 16.8321 7.12661 17.2085 7.125 17.5879V21.3379C7.12632 22.373 7.96509 23.2116 9 23.2129H10.125V17.2129H9.375V22.4629H9C8.37876 22.4629 7.875 21.9592 7.875 21.3379V17.5879C7.875 16.138 9.05039 14.9629 10.5 14.9629H13.5C13.9825 14.9632 14.4554 15.0968 14.8668 15.3488C14.9049 15.3696 14.9416 15.393 14.9763 15.4188C15.3277 15.6594 15.6161 15.981 15.8171 16.3563C16.0191 16.7354 16.125 17.1583 16.125 17.5879V21.3379C16.125 21.9592 15.6212 22.4629 15 22.4629H14.625V17.2129H13.875V23.2129H15C16.0351 23.2116 16.8737 22.373 16.875 21.3379V17.5879C16.8732 17.2085 16.8078 16.8322 16.6811 16.4743C16.7457 16.4699 16.8094 16.4629 16.875 16.4629H19.875C20.4019 16.4614 20.9169 16.6205 21.3513 16.9188C22.069 17.4077 22.499 18.2194 22.5 19.0879V20.5879C22.4987 21.3219 22.0696 21.9879 21.4021 22.2926C21.2739 22.3532 21.1389 22.3977 21 22.4253V18.3379H20.25V22.4629H16.875V23.2129H20.625C21.0022 23.2153 21.3751 23.1335 21.7166 22.9736C22.6497 22.546 23.2485 21.6143 23.25 20.5879V19.0879C23.2494 17.9718 22.6972 16.9283 21.7746 16.3Z" fill="black"/>
<path d="M10.5 22.4629H13.5V23.2129H10.5V22.4629Z" fill="black"/>
</g>
<defs>
<clipPath id="clip0_6239_7011">
<rect width="24" height="24" fill="white"/>
</clipPath>
</defs>
</svg>
