<svg width="24" height="24" viewBox="0 0 24 24" fill="none" xmlns="http://www.w3.org/2000/svg">
<g clip-path="url(#clip0_6239_7040)">
<path d="M23.7946 14.0795C23.6849 13.9698 23.5362 13.9082 23.3811 13.9082C23.2259 13.9082 23.0772 13.9698 22.9675 14.0795L17.7632 19.2838C17.7412 19.3058 17.7151 19.3233 17.6863 19.3352C17.6576 19.3471 17.6268 19.3532 17.5957 19.3532C17.5646 19.3532 17.5338 19.3471 17.5051 19.3352C17.4763 19.3233 17.4502 19.3058 17.4282 19.2838L15.7413 17.5969C15.6313 17.4886 15.483 17.4282 15.3287 17.4289C15.1744 17.4295 15.0265 17.491 14.9174 17.6002C14.8083 17.7093 14.7467 17.8571 14.7461 18.0114C14.7455 18.1657 14.8059 18.3141 14.9141 18.424L17.4282 20.9381C17.4502 20.9601 17.4763 20.9776 17.5051 20.9895C17.5338 21.0014 17.5646 21.0075 17.5957 21.0075C17.6268 21.0075 17.6576 21.0014 17.6863 20.9895C17.7151 20.9776 17.7412 20.9601 17.7632 20.9381L23.7946 14.9066C23.8489 14.8523 23.892 14.7879 23.9214 14.7169C23.9508 14.6459 23.9659 14.5699 23.9659 14.4931C23.9659 14.4163 23.9508 14.3402 23.9214 14.2692C23.892 14.1983 23.8489 14.1338 23.7946 14.0795Z" fill="black"/>
<path d="M22.8047 17.9011C22.6496 17.9011 22.5009 17.9627 22.3912 18.0724C22.2815 18.1821 22.2199 18.3309 22.2199 18.486C22.2199 19.345 21.9651 20.1848 21.4879 20.899C21.0106 21.6133 20.3323 22.17 19.5386 22.4987C18.745 22.8275 17.8717 22.9135 17.0291 22.7459C16.1866 22.5783 15.4127 22.1646 14.8052 21.5572C14.1978 20.9498 13.7841 20.1759 13.6166 19.3333C13.449 18.4908 13.535 17.6175 13.8637 16.8238C14.1925 16.0302 14.7492 15.3518 15.4634 14.8746C16.1777 14.3973 17.0174 14.1426 17.8765 14.1426C18.5525 14.1405 19.2195 14.2979 19.8233 14.602C19.9619 14.6716 20.1225 14.6833 20.2698 14.6345C20.417 14.5857 20.5388 14.4804 20.6085 14.3418C20.6781 14.2032 20.6898 14.0426 20.641 13.8953C20.5922 13.7481 20.4869 13.6263 20.3483 13.5566C19.5817 13.1703 18.7349 12.9702 17.8764 12.9727C16.786 12.9727 15.7201 13.296 14.8135 13.9018C13.9069 14.5076 13.2002 15.3686 12.783 16.376C12.3657 17.3834 12.2565 18.4919 12.4692 19.5613C12.6819 20.6308 13.207 21.6131 13.978 22.3842C14.749 23.1552 15.7314 23.6803 16.8008 23.893C17.8702 24.1058 18.9787 23.9966 19.9861 23.5794C20.9935 23.1621 21.8546 22.4555 22.4604 21.5489C23.0662 20.6423 23.3896 19.5764 23.3896 18.486C23.3896 18.3309 23.328 18.1821 23.2183 18.0724C23.1086 17.9627 22.9599 17.9011 22.8047 17.9011Z" fill="black"/>
<path d="M19.0881 9.46205H18.1037C17.9412 9.46205 17.7854 9.52659 17.6705 9.64147C17.5556 9.75636 17.4911 9.91218 17.4911 10.0747C17.4911 10.2371 17.5556 10.3929 17.6705 10.5078C17.7854 10.6227 17.9412 10.6873 18.1037 10.6873H19.7036C19.8726 10.6809 20.0326 10.6101 20.151 10.4894C20.2693 10.3687 20.3369 10.2072 20.3399 10.0382C20.3095 7.3655 19.2264 4.81256 17.3257 2.9333C15.425 1.05404 12.8599 4.90381e-05 10.187 0C4.58819 0 0.0332031 4.55494 0.0332031 10.1537C0.0332031 15.7525 4.58819 20.3074 10.187 20.3074C10.3183 20.3074 10.4461 20.2651 10.5516 20.1869C10.6571 20.1087 10.7347 19.9986 10.7729 19.873C10.7912 19.8206 10.8002 19.7654 10.7995 19.71V17.9915C10.798 17.8299 10.7329 17.6755 10.6181 17.5617C10.5034 17.448 10.3484 17.3842 10.1868 17.3842C10.0253 17.3842 9.87024 17.448 9.75551 17.5617C9.64077 17.6755 9.5756 17.8299 9.57419 17.9915V19.0608C5.11202 18.7569 1.53981 15.16 1.27473 10.6875H2.27008C2.43255 10.6875 2.58837 10.623 2.70326 10.5081C2.81815 10.3932 2.88269 10.2374 2.88269 10.0749C2.88269 9.91242 2.81815 9.7566 2.70326 9.64171C2.58837 9.52682 2.43255 9.46228 2.27008 9.46228H1.28505C1.62372 5.06283 5.16466 1.54687 9.57433 1.24687V2.1578C9.57574 2.31935 9.64091 2.4738 9.75565 2.58754C9.87039 2.70128 10.0254 2.76509 10.187 2.76509C10.3485 2.76509 10.5035 2.70128 10.6183 2.58754C10.733 2.4738 10.7982 2.31935 10.7996 2.1578V1.24687C15.1919 1.54889 18.7479 5.0715 19.0881 9.46205Z" fill="black"/>
<path d="M10.1868 5.99609C10.0243 5.99609 9.86847 6.06064 9.75358 6.17554C9.63868 6.29043 9.57414 6.44626 9.57414 6.60875V9.79878L5.43146 12.1866C5.36118 12.2265 5.29947 12.2798 5.2499 12.3437C5.20033 12.4075 5.16388 12.4805 5.14264 12.5584C5.1214 12.6364 5.11579 12.7178 5.12614 12.798C5.13649 12.8781 5.1626 12.9554 5.20295 13.0254C5.2433 13.0954 5.29711 13.1568 5.36126 13.2059C5.42542 13.255 5.49867 13.291 5.57678 13.3117C5.65489 13.3324 5.73633 13.3374 5.8164 13.3265C5.89647 13.3156 5.97359 13.289 6.04332 13.2482L10.4927 10.6838C10.5039 10.6774 10.5138 10.6711 10.523 10.6651C10.6079 10.6094 10.6777 10.5335 10.726 10.4441C10.7743 10.3548 10.7995 10.2548 10.7995 10.1532V6.60875C10.7995 6.52829 10.7837 6.44861 10.7529 6.37427C10.7221 6.29994 10.677 6.2324 10.6201 6.1755C10.5632 6.11861 10.4956 6.07349 10.4213 6.0427C10.3469 6.01192 10.2673 5.99608 10.1868 5.99609Z" fill="black"/>
</g>
<defs>
<clipPath id="clip0_6239_7040">
<rect width="24" height="24" fill="white"/>
</clipPath>
</defs>
</svg>
