<svg width="24" height="24" viewBox="0 0 24 24" fill="none" xmlns="http://www.w3.org/2000/svg">
<g clip-path="url(#clip0_6236_6804)">
<path d="M14.4242 21.8609C14.2263 21.9102 14.0245 21.954 13.8242 21.9909C13.3007 22.0882 12.9546 22.5917 13.0514 23.1158C13.0992 23.3736 13.2456 23.5883 13.4444 23.7284C13.6493 23.8726 13.91 23.9377 14.1757 23.8883C14.4142 23.8441 14.6546 23.792 14.8905 23.7331C15.4074 23.6045 15.7224 23.0807 15.5934 22.564C15.4648 22.0468 14.9415 21.7321 14.4242 21.8609Z" fill="black"/>
<path d="M21.5593 8.92779C21.6269 9.13147 21.7559 9.29775 21.9189 9.41264C22.1605 9.58284 22.4767 9.6401 22.7785 9.54032C23.2844 9.37235 23.5585 8.82683 23.3911 8.32118C23.3149 8.09068 23.2303 7.85945 23.1401 7.63431C22.9422 7.13955 22.381 6.89867 21.886 7.09658C21.3915 7.29438 21.1505 7.85573 21.3486 8.35064C21.4243 8.53988 21.4953 8.73412 21.5593 8.92779Z" fill="black"/>
<path d="M17.5604 20.4823C17.3902 20.5946 17.2145 20.7034 17.0375 20.8053C16.5759 21.0716 16.4177 21.6618 16.6839 22.1232C16.7562 22.2488 16.8525 22.3514 16.9634 22.4298C17.261 22.6392 17.6652 22.6706 18.0017 22.4767C18.2121 22.3553 18.4213 22.2263 18.624 22.0922C19.0684 21.7986 19.1907 21.2 18.897 20.7554C18.6033 20.3106 18.0049 20.1885 17.5604 20.4823Z" fill="black"/>
<path d="M23.9914 11.6223C23.9704 11.0898 23.5218 10.6753 22.9892 10.6961C22.4572 10.7171 22.0424 11.1657 22.0633 11.6981C22.0713 11.9016 22.0733 12.1082 22.0686 12.3115C22.0611 12.6454 22.2245 12.9431 22.4783 13.122C22.6295 13.2285 22.813 13.2929 23.012 13.2975C23.5445 13.3093 23.9858 12.8869 23.9977 12.3541C24.003 12.1112 24.001 11.8651 23.9914 11.6223Z" fill="black"/>
<path d="M21.402 17.9453C20.975 17.6249 20.3709 17.7119 20.0511 18.1381C19.9286 18.3014 19.7996 18.4626 19.6675 18.6178C19.3224 19.0233 19.3712 19.6324 19.7767 19.9778C19.7998 19.9974 19.8231 20.0154 19.8474 20.0323C20.2505 20.3166 20.8108 20.2512 21.1367 19.8687C21.2945 19.6835 21.4482 19.4909 21.5946 19.296C21.9144 18.8697 21.8279 18.2652 21.402 17.9453Z" fill="black"/>
<path d="M22.8198 14.4565C22.3114 14.2971 21.77 14.5802 21.6106 15.0886C21.5497 15.2828 21.4821 15.478 21.4091 15.6691C21.2489 16.0899 21.4024 16.5529 21.7543 16.801C21.8188 16.8463 21.8899 16.8848 21.9671 16.914C22.4649 17.1039 23.0224 16.8542 23.2121 16.3562C23.2987 16.1289 23.3791 15.8967 23.4518 15.6658C23.611 15.1573 23.3281 14.616 22.8198 14.4565Z" fill="black"/>
<path d="M10.2149 21.9992C9.35229 21.8443 8.52483 21.5806 7.74019 21.2128C7.7309 21.2079 7.72259 21.2024 7.71284 21.198C7.52794 21.1109 7.34335 21.0177 7.16443 20.9203C7.16382 20.9196 7.16268 20.9191 7.1617 20.9187C6.83343 20.7379 6.51305 20.5379 6.2018 20.3188C1.66326 17.1217 0.572018 10.8283 3.7693 6.28978C4.46454 5.30327 5.30588 4.48024 6.24385 3.82793C6.25541 3.81988 6.26696 3.81188 6.27842 3.80378C9.58368 1.52636 14.0717 1.37288 17.5814 3.71314L16.8276 4.80227C16.618 5.10541 16.7469 5.32633 17.1138 5.29331L20.3881 5.00017C20.7554 4.96715 20.9751 4.6494 20.8763 4.29467L19.9971 1.12669C19.8986 0.771537 19.6466 0.729026 19.4368 1.03212L18.6813 2.12383C16.1057 0.394873 13.0165 -0.264405 9.95028 0.267289C9.64146 0.320737 9.33697 0.386154 9.03666 0.462302C9.03434 0.462715 9.03248 0.462973 9.03063 0.463385C9.01902 0.466223 9.00725 0.469989 8.99596 0.473136C6.35193 1.15212 4.04505 2.69422 2.39895 4.89446C2.38507 4.91092 2.37078 4.92701 2.35768 4.94492C2.30294 5.01864 2.24861 5.09406 2.19542 5.16949C2.10844 5.2931 2.0227 5.41981 1.94067 5.54652C1.9304 5.56179 1.92256 5.57731 1.91358 5.59274C0.5552 7.69769 -0.100002 10.1312 0.0123622 12.6087C0.0126202 12.6169 0.0121558 12.6251 0.0123622 12.6334C0.0232478 12.8754 0.0424396 13.1208 0.0684929 13.3624C0.0698858 13.3779 0.0733424 13.3927 0.0759736 13.4083C0.102904 13.6512 0.136696 13.8946 0.179052 14.138C0.609525 16.6215 1.78105 18.8562 3.53652 20.5951C3.5406 20.5992 3.54483 20.6036 3.54896 20.6079C3.5504 20.6095 3.552 20.6103 3.55339 20.6118C4.02504 21.077 4.53805 21.5072 5.09044 21.8963C6.53601 22.9149 8.14569 23.5882 9.87439 23.8984C10.3989 23.9927 10.9 23.6435 10.9941 23.1192C11.0881 22.5946 10.7393 22.0932 10.2149 21.9992Z" fill="black"/>
<path d="M11.4079 4.29297C10.9764 4.29297 10.627 4.64275 10.627 5.07359V12.8507L17.7398 16.5277C17.8542 16.5869 17.9768 16.6148 18.0974 16.6148C18.38 16.6148 18.6528 16.461 18.7915 16.1926C18.9894 15.8095 18.8397 15.3388 18.4566 15.1409L12.1879 11.9001V5.07359C12.1879 4.64275 11.8388 4.29297 11.4079 4.29297Z" fill="black"/>
</g>
<defs>
<clipPath id="clip0_6236_6804">
<rect width="24" height="24" fill="white"/>
</clipPath>
</defs>
</svg>
