<svg width="25" height="28" viewBox="0 0 25 28" fill="none" xmlns="http://www.w3.org/2000/svg">
<g id="Group 88">
<path id="Vector" d="M9.75981 10.0802C9.75981 10.0802 10.6398 16.0002 16.0798 16.8002C21.5198 17.6002 20.8798 22.0802 20.8798 22.0802C20.8798 22.0802 27.9998 12.2402 19.0398 5.92019C19.0398 5.92019 17.4398 1.2002 12.7198 1.2002C7.9998 1.2002 5.67981 5.92019 5.67981 5.92019C5.67981 5.92019 0.799805 6.3202 0.799805 11.6002C0.799805 16.8802 5.1198 17.5202 5.1198 17.5202C5.1198 17.5202 4.23981 11.5202 9.75981 10.0802Z" stroke="black" stroke-width="1.5" stroke-miterlimit="10" stroke-linecap="round" stroke-linejoin="round"/>
<path id="Vector_2" d="M19.5197 19.1201C19.5197 19.1201 16.2398 26.7201 12.1598 26.7201C8.99405 26.7201 6.52985 22.2604 5.63965 20.4001" stroke="black" stroke-width="1.5" stroke-miterlimit="10" stroke-linecap="round" stroke-linejoin="round"/>
</g>
</svg>
