<svg width="49" height="48" viewBox="0 0 49 48" fill="none" xmlns="http://www.w3.org/2000/svg">
<g clip-path="url(#clip0_7368_535)">
<path d="M24.5 48C37.7548 48 48.5 37.2548 48.5 24C48.5 10.7452 37.7548 0 24.5 0C11.2452 0 0.5 10.7452 0.5 24C0.5 37.2548 11.2452 48 24.5 48Z" fill="#20BF55"/>
<path d="M22.1946 31.524C21.9164 31.5253 21.6407 31.471 21.3837 31.3644C21.1267 31.2577 20.8937 31.1008 20.6981 30.9028L14.1193 24.4369C13.7227 24.0399 13.5 23.5016 13.5 22.9405C13.5 22.3793 13.7227 21.841 14.1193 21.444C14.5164 21.0474 15.0546 20.8247 15.6158 20.8247C16.177 20.8247 16.7152 21.0474 17.1123 21.444L22.1946 26.4699L32.1899 16.6157C32.5905 16.2189 33.1324 15.9974 33.6964 16C34.2603 16.0027 34.8001 16.2292 35.197 16.6299C35.5938 17.0305 35.8153 17.5724 35.8127 18.1363C35.81 18.7003 35.5835 19.24 35.1828 19.6369L23.6628 30.931C23.4722 31.1257 23.2434 31.2789 22.9907 31.381C22.738 31.483 22.467 31.5317 22.1946 31.524Z" fill="#EDEBEA"/>
</g>
<defs>
<clipPath id="clip0_7368_535">
<rect width="48" height="48" fill="white" transform="translate(0.5)"/>
</clipPath>
</defs>
</svg>
