<svg width="24" height="24" viewBox="0 0 24 24" fill="none" xmlns="http://www.w3.org/2000/svg">
<g clip-path="url(#clip0_1708_4070)">
<path d="M13.6521 0.604781L12 0H8.78437L3.21562 3.21562L0 8.78484V15.2152L3.21562 20.7844L8.78437 24H12L13.6521 23.3952V0.604781Z" fill="#FFE32D"/>
<path d="M24 8.78484V15.2152L20.7844 20.7844L15.2156 24H12V0H15.2156L20.7844 3.21562L24 8.78484Z" fill="#FFAD49"/>
<path d="M13.329 3.49195L11.9977 3.00464H9.58687L5.41078 5.41542L3 9.59151V14.4131L5.41078 18.5892L9.58687 21H11.9977L13.329 20.5126V3.49195Z" fill="#FFAD49"/>
<path d="M20.9977 9.59151V14.4131L18.5869 18.5892L14.4108 21H12V3.00464H14.4108L18.5869 5.41542L20.9977 9.59151Z" fill="#ED7756"/>
<path d="M13.3831 10.844L12.0008 16.7817C8.19459 14.3985 6.80615 12.4781 6.80615 10.844C6.80615 9.20714 8.13318 7.87964 9.77053 7.87964C10.6602 7.87964 11.4576 8.27198 12.0008 8.89261L13.3831 10.844Z" fill="#FFE32D"/>
<path d="M17.1947 10.844C17.1947 12.4781 15.8062 14.3985 12 16.7817V8.89261C12.5433 8.27198 13.3406 7.87964 14.2303 7.87964C15.8677 7.87964 17.1947 9.20714 17.1947 10.844Z" fill="#FFAD49"/>
</g>
<defs>
<clipPath id="clip0_1708_4070">
<rect width="24" height="24" fill="white"/>
</clipPath>
</defs>
</svg>
