<svg width="20" height="20" viewBox="0 0 20 20" fill="none" xmlns="http://www.w3.org/2000/svg">
<g id="solar:trash-bin-trash-linear">
<g id="Group">
<path id="Vector" d="M17.0837 5H2.91699M15.6945 7.08333L15.3112 12.8333C15.1637 15.045 15.0903 16.1508 14.3695 16.825C13.6487 17.5 12.5395 17.5 10.3228 17.5H9.67783C7.46116 17.5 6.35199 17.5 5.63116 16.825C4.91033 16.1508 4.83616 15.045 4.68949 12.8333L4.30616 7.08333M7.91699 9.16667L8.33366 13.3333M12.0837 9.16667L11.667 13.3333" stroke="black" stroke-width="1.5" stroke-linecap="round"/>
<path id="Vector_2" d="M5.41699 5H5.50866C5.84403 4.99143 6.16901 4.88185 6.4411 4.68559C6.71318 4.48934 6.9197 4.21553 7.03366 3.9L7.06199 3.81417L7.14283 3.57167C7.21199 3.36417 7.24699 3.26083 7.29283 3.1725C7.383 2.99949 7.51242 2.84999 7.67072 2.73597C7.82903 2.62194 8.01183 2.54655 8.20449 2.51583C8.30199 2.5 8.41116 2.5 8.62949 2.5H11.3712C11.5895 2.5 11.6987 2.5 11.7962 2.51583C11.9888 2.54655 12.1716 2.62194 12.3299 2.73597C12.4882 2.84999 12.6177 2.99949 12.7078 3.1725C12.7537 3.26083 12.7887 3.36417 12.8578 3.57167L12.9387 3.81417C13.0443 4.16523 13.2627 4.47167 13.5601 4.68605C13.8574 4.90043 14.2172 5.01077 14.5837 5" stroke="black" stroke-width="1.5"/>
</g>
</g>
</svg>
