<svg width="20" height="21" viewBox="0 0 20 21" fill="none" xmlns="http://www.w3.org/2000/svg">
<g clip-path="url(#clip0_226_2453)">
<path d="M3.52566 19.875L3.52566 10.3592C4.83109 10.0724 5.81113 8.9066 5.81113 7.51629C5.81113 6.12598 4.83113 4.96019 3.52566 4.6734L3.52566 1.125C3.52566 0.779844 3.24582 0.5 2.90066 0.5C2.55551 0.5 2.27566 0.779844 2.27566 1.125L2.27566 4.67371C0.970898 4.96105 -0.00976625 6.12844 -0.00976619 7.51629C-0.00976613 8.90488 0.970742 10.0717 2.27566 10.3589L2.27566 19.875C2.27566 20.2202 2.55551 20.5 2.90066 20.5C3.24582 20.5 3.52566 20.2202 3.52566 19.875ZM2.9023 9.17668C2.90008 9.17668 2.89781 9.17664 2.89559 9.17664C1.98281 9.17391 1.24027 8.4291 1.24027 7.51629C1.24027 6.60477 1.9818 5.85992 2.89414 5.85598L2.90332 5.85586C3.81766 5.8573 4.56117 6.6016 4.56117 7.51629C4.56117 8.43059 3.8184 9.17465 2.90461 9.17672L2.9023 9.17668ZM16.4741 1.125L16.4741 4.67371C15.1694 4.96109 14.1887 6.12844 14.1887 7.51629C14.1887 8.90488 15.1693 10.0717 16.4741 10.3589L16.4741 19.875C16.4741 20.2202 16.7539 20.5 17.0991 20.5C17.4443 20.5 17.7241 20.2202 17.7241 19.875L17.7241 10.3592C19.0296 10.0724 20.0096 8.9066 20.0096 7.51629C20.0096 6.12598 19.0296 4.96019 17.7241 4.6734L17.7241 1.125C17.7241 0.779844 17.4443 0.499999 17.0991 0.499999C16.7539 0.499999 16.4741 0.779844 16.4741 1.125ZM18.7596 7.51629C18.7596 8.43059 18.0168 9.17465 17.103 9.17672L17.1008 9.17668C17.0985 9.17668 17.0963 9.17664 17.0941 9.17664C16.1813 9.17391 15.4387 8.4291 15.4387 7.51629C15.4387 6.60477 16.1802 5.85992 17.0925 5.85598L17.1017 5.85586C18.0162 5.85719 18.7596 6.60152 18.7596 7.51629ZM9.37492 1.125L9.37492 10.6408C8.06949 10.9276 7.08949 12.0934 7.08949 13.4837C7.08949 14.874 8.06949 16.0398 9.37492 16.3266L9.37492 19.875C9.37492 20.2202 9.65477 20.5 9.99992 20.5C10.3451 20.5 10.6249 20.2202 10.6249 19.875L10.6249 16.3263C11.9296 16.0389 12.9104 14.8716 12.9104 13.4837C12.9104 12.0951 11.9298 10.9283 10.6249 10.6411L10.6249 1.125C10.6249 0.779844 10.3451 0.5 9.99992 0.5C9.65476 0.5 9.37492 0.779844 9.37492 1.125ZM9.99828 11.8233C10.0005 11.8233 10.0028 11.8234 10.005 11.8234C10.9178 11.8261 11.6603 12.5709 11.6603 13.4837C11.6603 14.3952 10.9188 15.1401 10.0065 15.144L9.99734 15.1441C9.08289 15.1428 8.33949 14.3984 8.33949 13.4837C8.33949 12.5694 9.08223 11.8254 9.99605 11.8233L9.99828 11.8233Z" fill="#212121"/>
</g>
<defs>
<clipPath id="clip0_226_2453">
<rect width="20" height="20" fill="white" transform="translate(0 20.5) rotate(-90)"/>
</clipPath>
</defs>
</svg>
