<svg width="39" height="34" viewBox="0 0 39 34" fill="none" xmlns="http://www.w3.org/2000/svg">
<path d="M18.5492 7.13546C18.3581 6.91165 21.0671 4.40666 21.349 4.16951C22.9335 2.80607 24.81 1.82464 26.8337 1.30085C28.8574 0.777058 30.9743 0.724886 33.0214 1.14836C34.2268 1.36552 35.349 1.91086 36.2647 2.72441C37.1803 3.53796 37.8539 4.58822 38.2114 5.75973C39.3589 9.85728 36.3375 14.5344 33.682 17.3959C31.3259 19.9348 28.5565 22.0553 26.4087 24.7725C24.7619 26.625 23.4182 28.7262 22.4273 30.9982C22.2342 31.616 21.9332 32.1947 21.5382 32.7075C20.7664 33.5203 19.0932 33.0306 18.3053 32.4651C17.2664 31.7194 16.7961 30.2367 15.9889 29.2542C15.1628 28.2705 14.2174 27.3934 13.1747 26.6431C8.73751 23.2508 1.86083 21.9695 0.561683 15.7124C-0.926916 9.86238 1.15268 4.23228 7.32668 2.56083C11.5382 1.45293 15.8477 4.05018 18.5492 7.13546ZM19.5797 26.4485C22.1897 20.1227 29.1077 17.2592 32.7158 11.6466C33.5449 10.3566 34.5946 8.30283 33.6659 6.80388C32.724 5.28363 30.2009 5.05346 28.6084 5.22378C26.2136 5.58695 24.0522 6.86233 22.5764 8.78298C21.5423 10.0481 20.9939 11.5702 19.82 12.7518C19.6348 12.9758 19.4012 13.1549 19.1367 13.2755C18.8722 13.3962 18.5839 13.4553 18.2933 13.4484C16.8863 13.4746 16.0808 12.4799 15.4418 11.3512C14.5514 9.95717 13.4963 8.67545 12.2993 7.53371C9.99158 5.43911 6.83873 6.8287 5.40316 9.21371C4.69335 10.3944 4.36002 11.7634 4.44754 13.1383C4.53506 14.5132 5.03927 15.8288 5.89306 16.91C6.73335 17.8396 7.74338 18.6003 8.86891 19.1512C10.816 20.1217 12.7111 21.1931 14.5464 22.3612C15.4674 22.9608 16.3534 23.6125 17.2001 24.3132C18.0199 24.9963 18.6973 25.8388 19.5797 26.4485Z" fill="#FF6B6B"/>
</svg>
