<svg width="124" height="42" viewBox="0 0 124 42" fill="none" xmlns="http://www.w3.org/2000/svg">
<rect x="21.2388" width="29.699" height="29.699" rx="6" transform="rotate(45.6542 21.2388 0)" fill="url(#paint0_linear_63_19)"/>
<rect x="11.6935" y="13.0282" width="13.7888" height="3.18204" rx="1.59102" fill="white"/>
<circle cx="28.7387" cy="14.6192" r="1.59102" fill="#A1D154"/>
<rect x="11.6935" y="19.3942" width="8.78849" height="3.18204" rx="1.59102" fill="white"/>
<rect x="21.5441" y="19.3942" width="8.78849" height="3.18204" rx="1.59102" fill="#A1D154"/>
<rect x="16.541" y="25.7511" width="13.7888" height="3.18204" rx="1.59102" fill="#A1D154"/>
<circle cx="13.2845" cy="27.3421" r="1.59102" fill="white"/>
<path d="M48.518 21.459V27.499H45.518V13.139H55.738V15.679H48.518V18.919H54.838V21.459H48.518ZM58.0046 16.859H60.8046V27.499H58.0046V16.859ZM60.8046 12.999V15.599H58.0046V12.999H60.8046ZM73.511 20.139V27.499H70.711V21.039C70.711 20.259 70.671 18.939 68.891 18.939C67.651 18.939 66.691 19.779 66.691 21.399V27.499H63.891V16.859H66.571V18.419H66.611C66.991 17.779 67.791 16.579 69.811 16.579C71.891 16.579 73.511 17.799 73.511 20.139ZM87.2976 13.139V15.679H79.6776V18.699H86.6776V21.239H79.6776V24.959H87.6376V27.499H76.7376V13.139H87.2976ZM98.8774 19.659V25.419C98.8774 26.679 99.1574 26.959 99.4974 27.079V27.499H96.4774C96.3174 26.999 96.2774 26.839 96.2174 26.239C95.5774 26.899 94.6774 27.779 92.7774 27.779C91.1774 27.779 89.5374 26.879 89.5374 24.679C89.5374 22.599 90.8574 21.539 92.6374 21.279L95.1574 20.899C95.5974 20.839 96.1374 20.659 96.1374 20.059C96.1374 18.879 95.0174 18.819 94.2974 18.819C92.8974 18.819 92.6574 19.679 92.5774 20.299H89.8774C90.1974 17.039 92.4574 16.579 94.6374 16.579C96.1374 16.579 98.8774 17.039 98.8774 19.659ZM96.1374 23.679V22.319C95.8574 22.539 95.3974 22.719 94.2374 22.899C93.1974 23.079 92.3374 23.339 92.3374 24.499C92.3374 25.479 93.0974 25.779 93.6374 25.779C94.8774 25.779 96.1374 24.979 96.1374 23.679ZM110.531 20.099H107.791C107.671 19.419 107.431 18.699 105.911 18.699C104.391 18.699 104.191 19.279 104.191 19.739C104.191 21.419 110.851 20.199 110.851 24.119C110.851 27.219 107.851 27.779 106.191 27.779C103.771 27.779 101.151 26.939 101.071 24.099H103.951C103.951 24.999 104.511 25.659 106.271 25.659C107.711 25.659 108.051 24.959 108.051 24.559C108.051 22.779 101.451 24.119 101.451 20.139C101.451 18.579 102.431 16.579 105.751 16.579C107.831 16.579 110.311 17.099 110.531 20.099ZM119.544 24.379H122.424C121.684 26.939 119.564 27.779 117.744 27.779C114.744 27.779 112.444 26.339 112.444 21.959C112.444 20.679 112.884 16.579 117.544 16.579C119.644 16.579 122.544 17.579 122.544 22.439V22.939H115.244C115.324 23.739 115.484 25.539 117.744 25.539C118.524 25.539 119.324 25.139 119.544 24.379ZM115.324 21.119H119.664C119.504 19.399 118.404 18.879 117.504 18.879C116.184 18.879 115.484 19.719 115.324 21.119Z" fill="url(#paint1_linear_63_19)"/>
<defs>
<linearGradient id="paint0_linear_63_19" x1="54.7155" y1="-18.6642" x2="8.26965" y2="2.56238" gradientUnits="userSpaceOnUse">
<stop stop-color="#14C18D"/>
<stop offset="0.809" stop-color="#046487" stop-opacity="0.84629"/>
<stop offset="1" stop-color="#004E86" stop-opacity="0.81"/>
</linearGradient>
<linearGradient id="paint1_linear_63_19" x1="134.174" y1="-9.46902" x2="80.8007" y2="62.8053" gradientUnits="userSpaceOnUse">
<stop stop-color="#14C18D"/>
<stop offset="1" stop-color="#004E86" stop-opacity="0.81"/>
</linearGradient>
</defs>
</svg>
