<svg width="31" height="30" viewBox="0 0 31 30" fill="none" xmlns="http://www.w3.org/2000/svg">
<g id="review 1" clip-path="url(#clip0_1887_4494)">
<g id="Group">
<g id="Group_2">
<path id="Vector" d="M15.256 10.0781L18.2456 14.6826L23.5486 16.103L20.0933 20.3692L20.3811 25.8516L15.256 23.8837L10.1309 25.8516L10.4187 20.3692L6.96338 16.103L12.2663 14.6826L15.256 10.0781Z" fill="#FF712F"/>
</g>
<g id="Group_3">
<path id="Vector_2" d="M15.2524 10.0781L18.2421 14.6826L23.545 16.103L20.0898 20.3692L20.3775 25.8516L15.2524 23.8837V10.0781Z" fill="#FF4B00"/>
</g>
<g id="Group_4">
<path id="Vector_3" d="M7.65266 21.3651L8.0167 18.3527L5.11678 19.2459L2.36428 17.9688L2.31764 21.0027L0.252441 23.2258L3.12354 24.2078L4.59963 26.8589L6.42072 24.4318L9.39816 23.8471L7.65266 21.3651Z" fill="#FF9E00"/>
</g>
<g id="Group_5">
<path id="Vector_4" d="M28.1884 21.0027L28.1418 17.9688L25.3893 19.2459L22.4894 18.3527L22.8534 21.3651L21.1079 23.8471L24.0854 24.4318L25.9064 26.8589L27.3825 24.2078L30.2536 23.2258L28.1884 21.0027Z" fill="#FF9E00"/>
</g>
<g id="Group_6">
<path id="Vector_5" d="M5.9165 8.98828L7.16631 7.75254L10.508 11.1322L9.25816 12.368L5.9165 8.98828Z" fill="#FFE0B9"/>
</g>
<g id="Group_7">
<path id="Vector_6" d="M19.9985 11.1445L23.3402 7.76485L24.59 9.00059L21.2483 12.3803L19.9985 11.1445Z" fill="#FFC373"/>
</g>
<g id="Group_8">
<path id="Vector_7" d="M14.3735 3.14062H16.1313V7.61695H14.3735V3.14062Z" fill="#FFE0B9"/>
</g>
<g id="Group_9">
<path id="Vector_8" d="M15.2524 3.14062H16.1313V7.61695H15.2524V3.14062Z" fill="#FFC373"/>
</g>
</g>
</g>
<defs>
<clipPath id="clip0_1887_4494">
<rect width="30" height="30" fill="white" transform="translate(0.252441)"/>
</clipPath>
</defs>
</svg>
