<svg width="275" height="64" viewBox="0 0 275 64" fill="none" xmlns="http://www.w3.org/2000/svg">
<path d="M35.536 15.6147C35.176 15.5427 34.24 15.4707 33.232 15.3267C31 15.1827 28.696 15.3267 26.464 15.7587C26.176 10.2147 22.216 5.60666 17.464 5.60666C13.432 5.60666 10.912 9.63866 9.688 11.5827C9.832 9.85466 10.048 8.12666 10.264 6.39866C10.336 5.31866 9.616 4.52666 8.176 4.09466C7.096 3.80666 6.016 3.73466 4.936 3.95066C4.216 4.02266 2.92 4.38266 2.56 5.24666C1.84 6.68666 0.112 14.2467 0.112 31.5987C0.112 43.1187 1.696 59.2467 2.416 61.2627C2.704 62.1987 3.568 62.7027 4.72 62.7027C5.08 62.7027 5.44 62.6307 5.728 62.5587C6.952 62.3427 8.176 61.5507 8.104 60.5427C7.24 51.3987 7.384 41.6787 7.888 31.8867C8.176 28.1427 8.464 24.3987 8.752 20.6547C8.752 20.5827 8.752 20.5827 8.824 20.5827C9.472 17.0547 14.944 8.41466 17.464 8.41466C17.464 8.41466 18.76 8.84666 18.76 15.6147C18.688 16.5507 18.544 17.4867 18.328 18.4227C16.384 19.3587 14.584 20.5827 13 22.0227C9.904 24.8307 8.248 28.1427 8.032 31.8867C8.032 32.1747 8.032 32.3907 8.032 32.6787C8.032 35.1987 9.688 36.6387 12.496 36.6387C15.664 36.6387 19.12 34.5507 21.856 30.8787C24.592 27.2787 26.176 22.6707 26.464 17.8467C29.344 17.1987 32.296 16.9107 35.32 16.8387C36.04 16.8387 36.184 16.4067 36.184 16.2627C36.184 16.0467 36.04 15.6867 35.536 15.6147ZM11.56 33.9747C11.488 33.7587 11.272 33.1107 11.272 31.8147C11.272 27.4227 13.432 23.8227 17.752 21.2307C16.456 26.5587 14.08 33.8307 11.56 33.9747ZM67.7026 15.3987C67.4866 15.2547 67.2706 15.2547 67.0546 15.3267C66.8386 15.4707 66.6226 15.6867 66.6226 15.9747C66.5506 16.1907 65.1826 21.3747 63.2386 26.6307C59.9266 35.6307 57.9106 36.5667 57.2626 36.5667C56.9746 36.5667 56.3986 36.5667 55.8226 34.9827C54.9586 32.6787 54.5266 28.2867 54.5266 22.0227C54.5266 16.0467 55.6786 6.90266 55.8226 6.03866C55.8946 5.75066 55.8226 5.17466 54.8866 4.67066C53.7346 3.95066 51.4306 3.51866 50.1346 4.67066C49.7026 5.03066 49.2706 6.03866 48.9826 7.47866C48.1186 6.61466 45.9586 4.67066 41.9986 4.67066C38.9026 4.67066 36.1666 6.18266 34.2226 8.91866C31.9906 11.9427 30.8386 16.4067 30.8386 21.8067C30.8386 30.8067 34.7986 35.4867 38.6146 35.4867C41.7106 35.4867 42.7906 34.8387 47.6866 18.9267C47.6146 19.5027 47.6146 20.0067 47.6146 20.5827C47.6146 33.9027 52.1506 38.7267 56.3986 38.7267C59.4946 38.7267 62.3026 34.9827 64.8946 27.6387C66.1186 23.8947 67.1266 20.0067 67.9186 16.1187C67.9186 15.9027 67.8466 15.6147 67.7026 15.3987ZM45.7426 17.1987C43.8706 23.1027 41.0626 32.1027 39.6946 32.7507C39.6226 32.7507 39.6226 32.7507 39.6226 32.7507C39.3346 32.2467 38.3986 30.3747 38.3986 25.8387C38.3986 14.7507 42.0706 7.62266 43.9426 7.62266C45.5266 7.62266 47.6146 9.42266 48.1186 9.99866C47.5426 11.5827 46.6786 14.1747 45.7426 17.1987ZM112.372 15.1827C112.012 15.0387 111.58 15.1827 111.364 15.5427C110.932 16.4067 110.284 17.9907 109.492 19.9347C107.116 25.6947 103.156 35.2707 100.132 36.4227C100.06 36.4947 99.9878 36.4947 99.9158 36.4947C99.6998 35.9187 99.3398 34.8387 99.3398 32.1747C99.3398 28.0707 99.5558 24.4707 99.6998 21.3027C99.9158 18.5667 100.06 15.9747 100.06 13.3827C100.06 7.83866 99.5558 6.47066 99.2678 5.67866C98.9078 4.67066 97.7558 3.37466 96.2438 2.79866C95.0918 2.36666 93.8678 2.43866 92.7878 3.01466C90.7718 4.09466 86.0198 12.3027 84.6518 15.6147C84.5078 11.7267 83.9318 7.69466 82.4198 6.32666C80.4758 4.52666 77.3798 4.45466 76.4438 5.31866C75.4358 6.18266 74.0678 8.77466 72.2678 13.2387C72.4838 8.19866 72.6278 4.38266 72.6278 4.31066C72.6278 3.44666 71.9078 2.65466 70.6838 2.15066C68.9558 1.50266 66.5798 1.50266 65.2838 2.94266C64.2038 4.02266 63.1238 10.5027 63.1238 20.3667C63.1238 28.9347 63.9158 36.7827 64.5638 37.7187C65.1398 38.5107 66.0758 38.9427 67.2278 38.9427C67.6598 38.9427 68.0918 38.9427 68.4518 38.7987C69.6758 38.5107 70.9718 37.7907 71.1158 36.8547C71.1878 36.6387 71.2598 34.9107 71.4038 32.3907C71.4038 32.3187 71.4038 32.3187 71.4038 32.3187C71.6918 30.3747 73.9958 16.6947 77.0918 11.8707C77.0918 11.8707 77.0918 11.8707 77.0918 11.7987C77.0918 11.8707 77.0918 11.9427 77.1638 12.0147C77.1638 12.1587 77.1638 13.1667 77.2358 14.3187C77.4518 18.8547 77.6678 23.8227 78.0998 25.1187C78.4598 26.1987 80.6198 26.8467 82.1318 26.6307C83.4998 26.4867 84.2918 25.7667 84.3638 24.6867C84.3638 24.6867 84.3638 24.6867 84.3638 24.6147C84.4358 24.6147 84.4358 24.6147 84.4358 24.6147C84.6518 23.9667 92.1398 8.84666 92.9318 7.55066C92.7878 9.42266 91.9958 22.3107 91.9958 23.6067C91.9958 37.4307 97.2518 38.9427 99.5558 38.9427C104.668 38.9427 109.924 25.0467 112.588 16.7667C112.66 16.5507 112.732 16.4067 112.732 16.3347C112.948 15.7587 112.732 15.3267 112.372 15.1827ZM142.903 15.6147C142.543 15.5427 141.607 15.4707 140.599 15.3267C138.367 15.1827 136.063 15.3267 133.831 15.7587C133.543 10.2147 129.583 5.60666 124.831 5.60666C120.799 5.60666 118.279 9.63866 117.055 11.5827C117.199 9.85466 117.415 8.12666 117.631 6.39866C117.703 5.31866 116.983 4.52666 115.543 4.09466C114.463 3.80666 113.383 3.73466 112.303 3.95066C111.583 4.02266 110.287 4.38266 109.927 5.24666C109.207 6.68666 107.479 14.2467 107.479 31.5987C107.479 43.1187 109.063 59.2467 109.783 61.2627C110.071 62.1987 110.935 62.7027 112.087 62.7027C112.447 62.7027 112.807 62.6307 113.095 62.5587C114.319 62.3427 115.543 61.5507 115.471 60.5427C114.607 51.3987 114.751 41.6787 115.255 31.8867C115.543 28.1427 115.831 24.3987 116.119 20.6547C116.119 20.5827 116.119 20.5827 116.191 20.5827C116.839 17.0547 122.311 8.41466 124.831 8.41466C124.831 8.41466 126.127 8.84666 126.127 15.6147C126.055 16.5507 125.911 17.4867 125.695 18.4227C123.751 19.3587 121.951 20.5827 120.367 22.0227C117.271 24.8307 115.615 28.1427 115.399 31.8867C115.399 32.1747 115.399 32.3907 115.399 32.6787C115.399 35.1987 117.055 36.6387 119.863 36.6387C123.031 36.6387 126.487 34.5507 129.223 30.8787C131.959 27.2787 133.543 22.6707 133.831 17.8467C136.711 17.1987 139.663 16.9107 142.687 16.8387C143.407 16.8387 143.551 16.4067 143.551 16.2627C143.551 16.0467 143.407 15.6867 142.903 15.6147ZM118.927 33.9747C118.855 33.7587 118.639 33.1107 118.639 31.8147C118.639 27.4227 120.799 23.8227 125.119 21.2307C123.823 26.5587 121.447 33.8307 118.927 33.9747ZM156.638 4.31066C152.822 4.31066 149.726 11.8707 147.638 17.9187C147.926 10.9347 148.214 4.59866 148.214 4.52666C148.214 3.66266 147.494 2.87066 146.27 2.36666C144.542 1.71866 142.166 1.79066 140.87 3.15866C139.79 4.23866 138.71 10.7187 138.71 20.5827C138.71 29.2227 139.502 36.9987 140.15 37.9347C140.726 38.7267 141.662 39.1587 142.814 39.1587C143.246 39.1587 143.678 39.1587 144.038 39.0147C145.262 38.7987 146.558 38.0787 146.702 37.1427C146.774 36.9267 146.846 35.8467 146.918 34.1187V34.0467C146.99 33.9027 146.99 33.7587 147.062 33.4707C149.294 19.3587 152.822 12.6627 155.342 9.56666C155.414 9.49466 155.414 9.49466 155.486 9.42266C155.486 9.49466 155.486 9.56666 155.486 9.63866C155.558 9.85466 155.63 10.5027 155.702 11.2227C155.846 12.8787 156.134 15.1107 156.422 15.9747C156.854 17.1987 158.078 17.9907 159.734 18.1347C161.03 18.3507 162.614 18.0627 163.118 17.2707C163.478 16.8387 163.838 15.9027 163.838 12.7347C163.838 7.40666 161.174 4.31066 156.638 4.31066ZM201.859 15.3987C201.643 15.2547 201.427 15.2547 201.211 15.3267C200.995 15.4707 200.779 15.6867 200.779 15.9747C200.707 16.1907 199.339 21.3747 197.395 26.6307C194.083 35.6307 192.067 36.5667 191.419 36.5667C191.131 36.5667 190.555 36.5667 189.979 34.9827C189.115 32.6787 188.683 28.2867 188.683 22.0227C188.683 16.0467 189.835 6.90266 189.979 6.03866C190.051 5.75066 189.979 5.17466 189.043 4.67066C187.891 3.95066 185.587 3.51866 184.291 4.67066C183.859 5.03066 183.427 6.03866 183.139 7.47866C182.275 6.61466 180.115 4.67066 176.155 4.67066C173.059 4.67066 170.323 6.18266 168.379 8.91866C166.147 11.9427 164.995 16.4067 164.995 21.8067C164.995 30.8067 168.955 35.4867 172.771 35.4867C175.867 35.4867 176.947 34.8387 181.843 18.9267C181.771 19.5027 181.771 20.0067 181.771 20.5827C181.771 33.9027 186.307 38.7267 190.555 38.7267C193.651 38.7267 196.459 34.9827 199.051 27.6387C200.275 23.8947 201.283 20.0067 202.075 16.1187C202.075 15.9027 202.003 15.6147 201.859 15.3987ZM179.899 17.1987C178.027 23.1027 175.219 32.1027 173.851 32.7507C173.779 32.7507 173.779 32.7507 173.779 32.7507C173.491 32.2467 172.555 30.3747 172.555 25.8387C172.555 14.7507 176.227 7.62266 178.099 7.62266C179.683 7.62266 181.771 9.42266 182.275 9.99866C181.699 11.5827 180.835 14.1747 179.899 17.1987ZM230.184 14.6067C229.896 14.5347 229.464 14.7507 229.248 15.3267C227.592 20.0787 222.984 24.1107 218.088 28.3587C216.576 26.7027 214.632 25.6947 212.4 25.6227C215.496 21.5907 218.304 15.5427 218.304 10.8627C218.304 3.51866 213.336 1.93466 211.392 1.93466C207.576 1.93466 200.52 8.99066 200.52 15.6867C200.52 16.2627 201.024 16.7667 201.672 16.7667C202.176 16.7667 202.536 16.4787 202.536 16.0467C202.824 12.5187 208.368 4.45466 211.896 4.45466C212.184 4.45466 212.184 4.45466 212.256 4.59866C212.328 5.03066 212.328 5.46266 212.328 5.89466V5.96666C212.328 8.27066 211.68 16.5507 203.544 25.9107H203.472C203.112 26.3427 203.04 27.0627 203.832 27.8547C204.768 28.7907 206.064 29.2947 207.36 29.2947C208.008 29.2947 208.656 29.1507 209.16 28.7907C209.952 28.4307 211.824 27.9267 212.4 27.9267C212.976 27.9267 214.2 27.9267 214.848 31.0947C207.72 37.3587 200.52 44.7027 200.52 56.0787C200.52 62.4867 204.336 63.4227 206.64 63.4227C210.6 63.4227 214.56 60.4707 217.656 55.0707C220.32 50.3907 222.048 44.4867 222.048 39.5187C222.048 35.9907 221.04 32.3907 219.24 29.7987C219.456 29.5827 219.672 29.3667 219.96 29.1507C225.36 24.2547 230.112 20.0067 230.76 15.6147C230.832 15.0387 230.472 14.6787 230.184 14.6067ZM211.104 55.1427C208.944 59.0307 206.496 60.8307 205.56 60.8307C205.056 60.8307 203.472 58.9587 203.472 54.7107C203.472 46.1427 209.016 39.4467 215.136 33.5427C215.208 34.3347 215.28 35.1987 215.28 36.2787C215.28 45.7107 212.976 51.7587 211.104 55.1427ZM258.872 14.6067C258.584 14.5347 258.152 14.7507 257.936 15.3267C256.28 20.0787 251.672 24.1107 246.776 28.3587C245.264 26.7027 243.32 25.6947 241.088 25.6227C244.184 21.5907 246.992 15.5427 246.992 10.8627C246.992 3.51866 242.024 1.93466 240.08 1.93466C236.264 1.93466 229.208 8.99066 229.208 15.6867C229.208 16.2627 229.712 16.7667 230.36 16.7667C230.864 16.7667 231.224 16.4787 231.224 16.0467C231.512 12.5187 237.056 4.45466 240.584 4.45466C240.872 4.45466 240.872 4.45466 240.944 4.59866C241.016 5.03066 241.016 5.46266 241.016 5.89466V5.96666C241.016 8.27066 240.368 16.5507 232.232 25.9107H232.16C231.8 26.3427 231.728 27.0627 232.52 27.8547C233.456 28.7907 234.752 29.2947 236.048 29.2947C236.696 29.2947 237.344 29.1507 237.848 28.7907C238.64 28.4307 240.512 27.9267 241.088 27.9267C241.664 27.9267 242.888 27.9267 243.536 31.0947C236.408 37.3587 229.208 44.7027 229.208 56.0787C229.208 62.4867 233.024 63.4227 235.328 63.4227C239.288 63.4227 243.248 60.4707 246.344 55.0707C249.008 50.3907 250.736 44.4867 250.736 39.5187C250.736 35.9907 249.728 32.3907 247.928 29.7987C248.144 29.5827 248.36 29.3667 248.648 29.1507C254.048 24.2547 258.8 20.0067 259.448 15.6147C259.52 15.0387 259.16 14.6787 258.872 14.6067ZM239.792 55.1427C237.632 59.0307 235.184 60.8307 234.248 60.8307C233.744 60.8307 232.16 58.9587 232.16 54.7107C232.16 46.1427 237.704 39.4467 243.824 33.5427C243.896 34.3347 243.968 35.1987 243.968 36.2787C243.968 45.7107 241.664 51.7587 239.792 55.1427ZM273.951 15.1827C273.735 15.1107 273.519 15.1827 273.375 15.2547C273.159 15.3267 273.087 15.5427 273.015 15.6867C271.935 20.2227 270.351 25.0467 268.767 28.5747C266.895 32.6787 265.095 35.1267 263.799 35.1267C263.295 35.1267 261.639 33.6147 261.639 26.4147C261.639 22.7427 261.927 15.8307 262.143 12.5187C262.143 11.5827 262.215 10.9347 262.215 10.7907C262.215 10.1427 261.783 9.56666 261.063 9.27866C259.767 8.63066 257.679 8.70266 256.455 9.78266C254.727 11.2947 254.655 20.7267 254.655 22.5987C254.655 27.7827 255.519 31.6707 257.247 34.1907C258.615 36.2067 260.559 37.2867 262.719 37.2867C269.919 37.2867 273.519 21.0867 274.455 16.1907C274.455 16.0467 274.455 16.0467 274.455 16.0467C274.527 15.8307 274.455 15.6147 274.383 15.4707C274.239 15.3267 274.095 15.1827 273.951 15.1827ZM259.695 6.68666C261.279 6.68666 262.575 5.31866 262.575 3.66266C262.575 1.93466 261.279 0.638661 259.695 0.638661C258.111 0.638661 256.887 1.93466 256.887 3.66266C256.887 5.31866 258.111 6.68666 259.695 6.68666Z" fill="white"/>
</svg>
