<svg width="53" height="53" viewBox="0 0 53 53" fill="none" xmlns="http://www.w3.org/2000/svg">
<rect x="0.5" y="0.503906" width="52" height="52" rx="16" fill="white"/>
<path d="M36.5 36.5039V27.7539M26.5 36.5039V24.0039M16.5 36.5039L16.5 31.5039M28.2583 17.7883L34.7189 20.211M24.9985 18.2551L18.0003 23.5037M37.8258 19.5531C38.5581 20.2853 38.5581 21.4725 37.8258 22.2047C37.0936 22.937 35.9064 22.937 35.1742 22.2047C34.4419 21.4725 34.4419 20.2853 35.1742 19.5531C35.9064 18.8208 37.0936 18.8208 37.8258 19.5531ZM17.8258 23.3031C18.5581 24.0353 18.5581 25.2225 17.8258 25.9547C17.0936 26.687 15.9064 26.687 15.1742 25.9547C14.4419 25.2225 14.4419 24.0353 15.1742 23.3031C15.9064 22.5708 17.0936 22.5708 17.8258 23.3031ZM27.8258 15.8031C28.5581 16.5353 28.5581 17.7225 27.8258 18.4547C27.0936 19.187 25.9064 19.187 25.1742 18.4547C24.4419 17.7225 24.4419 16.5353 25.1742 15.8031C25.9064 15.0708 27.0936 15.0708 27.8258 15.8031Z" stroke="#533A71" stroke-width="2" stroke-linecap="round" stroke-linejoin="round"/>
</svg>
