<svg width="53" height="53" viewBox="0 0 53 53" fill="none" xmlns="http://www.w3.org/2000/svg">
<rect x="0.5" y="0.503906" width="52" height="52" rx="16" fill="white"/>
<path d="M37.75 24.0039H15.25M37.75 27.1289V22.5039C37.75 20.4037 37.75 19.3536 37.3413 18.5514C36.9817 17.8458 36.4081 17.2722 35.7025 16.9126C34.9003 16.5039 33.8502 16.5039 31.75 16.5039H21.25C19.1498 16.5039 18.0997 16.5039 17.2975 16.9126C16.5919 17.2722 16.0183 17.8458 15.6587 18.5514C15.25 19.3536 15.25 20.4037 15.25 22.5039V33.0039C15.25 35.1041 15.25 36.1542 15.6587 36.9564C16.0183 37.662 16.5919 38.2357 17.2975 38.5952C18.0997 39.0039 19.1498 39.0039 21.25 39.0039H26.5M31.5 14.0039V19.0039M21.5 14.0039V19.0039M29.625 35.2539L32.125 37.7539L37.75 32.1289" stroke="#533A71" stroke-width="2" stroke-linecap="round" stroke-linejoin="round"/>
</svg>
