<svg width="53" height="53" viewBox="0 0 53 53" fill="none" xmlns="http://www.w3.org/2000/svg">
<rect x="0.5" y="0.503906" width="52" height="52" rx="16" fill="white"/>
<path d="M34 31.3C35.8199 32.2142 37.3802 33.6813 38.5191 35.5159C38.7446 35.8792 38.8574 36.0609 38.8964 36.3124C38.9756 36.8236 38.626 37.4521 38.15 37.6544C37.9157 37.7539 37.6521 37.7539 37.125 37.7539M31.5 25.9192C33.3522 24.9988 34.625 23.0875 34.625 20.8789C34.625 18.6703 33.3522 16.759 31.5 15.8386M29 20.8789C29 23.9855 26.4816 26.5039 23.375 26.5039C20.2684 26.5039 17.75 23.9855 17.75 20.8789C17.75 17.7723 20.2684 15.2539 23.375 15.2539C26.4816 15.2539 29 17.7723 29 20.8789ZM14.6991 35.1768C16.692 32.1846 19.8368 30.2539 23.375 30.2539C26.9133 30.2539 30.0581 32.1846 32.051 35.1768C32.4876 35.8323 32.7059 36.1601 32.6807 36.5788C32.6612 36.9048 32.4475 37.3039 32.187 37.5009C31.8524 37.7539 31.3923 37.7539 30.4721 37.7539H16.278C15.3578 37.7539 14.8976 37.7539 14.5631 37.5009C14.3026 37.3039 14.0889 36.9048 14.0693 36.5788C14.0442 36.1601 14.2625 35.8323 14.6991 35.1768Z" stroke="#533A71" stroke-width="2" stroke-linecap="round" stroke-linejoin="round"/>
</svg>
