<svg width="53" height="53" viewBox="0 0 53 53" fill="none" xmlns="http://www.w3.org/2000/svg">
<rect x="0.5" y="0.503906" width="52" height="52" rx="16" fill="white"/>
<path d="M24 21.5039V20.2539M24 27.1289V25.8789M24 32.7539V31.5039M18 16.5039H35C36.4001 16.5039 37.1002 16.5039 37.635 16.7764C38.1054 17.0161 38.4878 17.3985 38.7275 17.8689C39 18.4037 39 19.1038 39 20.5039V22.1289C36.5838 22.1289 34.625 24.0877 34.625 26.5039C34.625 28.9202 36.5838 30.8789 39 30.8789V32.5039C39 33.904 39 34.6041 38.7275 35.1389C38.4878 35.6093 38.1054 35.9917 37.635 36.2314C37.1002 36.5039 36.4001 36.5039 35 36.5039H18C16.5999 36.5039 15.8998 36.5039 15.365 36.2314C14.8946 35.9917 14.5122 35.6093 14.2725 35.1389C14 34.6041 14 33.904 14 32.5039V30.8789C16.4162 30.8789 18.375 28.9202 18.375 26.5039C18.375 24.0877 16.4162 22.1289 14 22.1289V20.5039C14 19.1038 14 18.4037 14.2725 17.8689C14.5122 17.3985 14.8946 17.0161 15.365 16.7764C15.8998 16.5039 16.5999 16.5039 18 16.5039Z" stroke="#533A71" stroke-width="2" stroke-linecap="round" stroke-linejoin="round"/>
</svg>
