<svg width="53" height="53" viewBox="0 0 53 53" fill="none" xmlns="http://www.w3.org/2000/svg">
<rect x="0.5" y="0.503906" width="52" height="52" rx="16" fill="white"/>
<path d="M25.6033 15.8206C25.8914 15.2369 26.0355 14.9451 26.231 14.8519C26.4012 14.7707 26.5989 14.7707 26.769 14.8519C26.9646 14.9451 27.1086 15.2369 27.3967 15.8206L30.1301 21.3581C30.2151 21.5304 30.2577 21.6165 30.3198 21.6834C30.3748 21.7427 30.4408 21.7907 30.5141 21.8247C30.5969 21.8632 30.692 21.8771 30.8822 21.9049L36.9962 22.7986C37.6401 22.8927 37.962 22.9398 38.111 23.097C38.2406 23.2338 38.3016 23.4218 38.2769 23.6087C38.2485 23.8234 38.0155 24.0504 37.5493 24.5044L33.1268 28.812C32.9889 28.9463 32.92 29.0134 32.8755 29.0933C32.8362 29.164 32.8109 29.2417 32.8011 29.3221C32.7901 29.4129 32.8064 29.5077 32.8389 29.6974L33.8824 35.7816C33.9925 36.4233 34.0475 36.7442 33.9441 36.9346C33.8541 37.1003 33.6942 37.2164 33.5088 37.2508C33.2958 37.2903 33.0076 37.1388 32.4314 36.8357L26.9655 33.9613C26.7952 33.8717 26.71 33.8269 26.6203 33.8093C26.5409 33.7937 26.4592 33.7937 26.3797 33.8093C26.29 33.8269 26.2049 33.8717 26.0346 33.9613L20.5687 36.8357C19.9924 37.1388 19.7043 37.2903 19.4912 37.2508C19.3059 37.2164 19.1459 37.1003 19.0559 36.9346C18.9525 36.7442 19.0075 36.4233 19.1176 35.7816L20.1611 29.6974C20.1936 29.5077 20.2099 29.4129 20.1989 29.3221C20.1892 29.2417 20.1639 29.164 20.1245 29.0933C20.08 29.0134 20.0111 28.9463 19.8732 28.812L15.4507 24.5044C14.9846 24.0504 14.7515 23.8234 14.7232 23.6087C14.6985 23.4218 14.7594 23.2338 14.8891 23.097C15.038 22.9398 15.36 22.8927 16.0038 22.7986L22.1179 21.9049C22.308 21.8771 22.4031 21.8632 22.4859 21.8247C22.5592 21.7907 22.6252 21.7427 22.6802 21.6834C22.7424 21.6165 22.7849 21.5304 22.87 21.3581L25.6033 15.8206Z" stroke="#533A71" stroke-width="2" stroke-linecap="round" stroke-linejoin="round"/>
</svg>
