<svg width="53" height="53" viewBox="0 0 53 53" fill="none" xmlns="http://www.w3.org/2000/svg">
<rect x="0.5" y="0.503906" width="52" height="52" rx="16" fill="white"/>
<path d="M36.5 16.5039L22.125 30.8789M22.125 22.1289L36.5 36.5039M19 15.2539C21.0711 15.2539 22.75 16.9328 22.75 19.0039C22.75 21.075 21.0711 22.7539 19 22.7539C16.9289 22.7539 15.25 21.075 15.25 19.0039C15.25 16.9328 16.9289 15.2539 19 15.2539ZM19 30.2539C21.0711 30.2539 22.75 31.9328 22.75 34.0039C22.75 36.075 21.0711 37.7539 19 37.7539C16.9289 37.7539 15.25 36.075 15.25 34.0039C15.25 31.9328 16.9289 30.2539 19 30.2539Z" stroke="#533A71" stroke-width="2" stroke-linecap="round" stroke-linejoin="round"/>
</svg>
