<svg width="53" height="52" viewBox="0 0 53 52" fill="none" xmlns="http://www.w3.org/2000/svg">
<rect x="0.5" y="0.00390625" width="52" height="52" rx="16" fill="white"/>
<path d="M20.875 27.0039L28.375 27.0039M28.375 27.0039C28.375 28.0394 29.2145 28.8789 30.25 28.8789C31.2855 28.8789 32.125 28.0394 32.125 27.0039C32.125 25.9684 31.2855 25.1289 30.25 25.1289C29.2145 25.1289 28.375 25.9684 28.375 27.0039ZM24.625 32.0039L32.125 32.0039M24.625 32.0039C24.625 33.0394 23.7855 33.8789 22.75 33.8789C21.7145 33.8789 20.875 33.0394 20.875 32.0039C20.875 30.9684 21.7145 30.1289 22.75 30.1289C23.7855 30.1289 24.625 30.9684 24.625 32.0039Z" stroke="#533A71" stroke-width="2" stroke-linecap="round" stroke-linejoin="round"/>
<path d="M31.5005 22.2539V18.5039C31.5005 15.7425 29.2619 13.5039 26.5005 13.5039C23.739 13.5039 21.5005 15.7425 21.5005 18.5039V22.2539M15.9905 23.9439L15.2405 31.9439C15.0272 34.2185 14.9206 35.3558 15.298 36.2342C15.6296 37.0059 16.2106 37.644 16.948 38.0461C17.7874 38.5039 18.9297 38.5039 21.2143 38.5039H31.7867C34.0713 38.5039 35.2136 38.5039 36.0529 38.0461C36.7903 37.644 37.3713 37.0059 37.7029 36.2342C38.0803 35.3558 37.9737 34.2185 37.7605 31.9439L37.0105 23.9439C36.8304 22.0231 36.7403 21.0627 36.3084 20.3366C35.928 19.6971 35.3659 19.1853 34.6937 18.8662C33.9304 18.5039 32.9658 18.5039 31.0367 18.5039L21.9643 18.5039C20.0351 18.5039 19.0705 18.5039 18.3072 18.8662C17.635 19.1853 17.073 19.6971 16.6925 20.3366C16.2606 21.0627 16.1705 22.0231 15.9905 23.9439Z" stroke="#533A71" stroke-width="2" stroke-linecap="round" stroke-linejoin="round"/>
</svg>
