<svg width="53" height="53" viewBox="0 0 53 53" fill="none" xmlns="http://www.w3.org/2000/svg">
<rect x="0.5" y="0.503906" width="52" height="52" rx="16" fill="white"/>
<path d="M26.5 30.8789H20.875C19.1305 30.8789 18.2583 30.8789 17.5486 31.0942C15.9506 31.579 14.7001 32.8295 14.2153 34.4275C14 35.1372 14 36.0095 14 37.7539M31.5 34.0039L34 36.5039L39 31.5039M29.625 20.8789C29.625 23.9855 27.1066 26.5039 24 26.5039C20.8934 26.5039 18.375 23.9855 18.375 20.8789C18.375 17.7723 20.8934 15.2539 24 15.2539C27.1066 15.2539 29.625 17.7723 29.625 20.8789Z" stroke="#533A71" stroke-width="2" stroke-linecap="round" stroke-linejoin="round"/>
</svg>
