<svg width="53" height="52" viewBox="0 0 53 52" fill="none" xmlns="http://www.w3.org/2000/svg">
<rect x="0.5" y="0.00390625" width="52" height="52" rx="16" fill="white"/>
<path d="M28.4119 21.4437C27.6963 21.9538 26.8207 22.2539 25.875 22.2539C23.4588 22.2539 21.5 20.2952 21.5 17.8789C21.5 15.4627 23.4588 13.5039 25.875 13.5039C27.4412 13.5039 28.8152 14.3269 29.5881 15.5641M19 36.1128H22.2629C22.6883 36.1128 23.1111 36.1635 23.5235 36.2647L26.9711 37.1025C27.7192 37.2847 28.4985 37.3025 29.2543 37.1557L33.0662 36.414C34.0732 36.2179 34.9995 35.7357 35.7254 35.0295L38.4224 32.406C39.1925 31.6581 39.1925 30.4444 38.4224 29.6952C37.7289 29.0207 36.6309 28.9448 35.8464 29.5168L32.7032 31.81C32.2531 32.139 31.7054 32.3162 31.1421 32.3162H28.1069L30.0388 32.3161C31.1278 32.3161 32.0098 31.4581 32.0098 30.3988V30.0153C32.0098 29.1358 31.3945 28.3689 30.5176 28.1562L27.5357 27.4311C27.0505 27.3134 26.5535 27.2539 26.0539 27.2539C24.8479 27.2539 22.6649 28.2524 22.6649 28.2524L19 29.785M36.5 19.1289C36.5 21.5452 34.5412 23.5039 32.125 23.5039C29.7088 23.5039 27.75 21.5452 27.75 19.1289C27.75 16.7127 29.7088 14.7539 32.125 14.7539C34.5412 14.7539 36.5 16.7127 36.5 19.1289ZM14 29.2539L14 36.5039C14 37.204 14 37.554 14.1362 37.8214C14.2561 38.0566 14.4473 38.2478 14.6825 38.3677C14.9499 38.5039 15.2999 38.5039 16 38.5039H17C17.7001 38.5039 18.0501 38.5039 18.3175 38.3677C18.5527 38.2478 18.7439 38.0566 18.8638 37.8214C19 37.554 19 37.204 19 36.5039V29.2539C19 28.5538 19 28.2038 18.8638 27.9364C18.7439 27.7012 18.5527 27.51 18.3175 27.3901C18.0501 27.2539 17.7001 27.2539 17 27.2539L16 27.2539C15.2999 27.2539 14.9499 27.2539 14.6825 27.3901C14.4473 27.51 14.2561 27.7012 14.1362 27.9364C14 28.2038 14 28.5538 14 29.2539Z" stroke="#533A71" stroke-width="2" stroke-linecap="round" stroke-linejoin="round"/>
</svg>
