<svg width="41" height="41" viewBox="0 0 41 41" fill="none" xmlns="http://www.w3.org/2000/svg">
<rect x="0.5" y="0.503906" width="40" height="40" rx="8" fill="#533A71"/>
<path d="M30.5 30.5039V21.7539M20.5 30.5039V18.0039M10.5 30.5039L10.5 25.5039M22.2583 11.7883L28.7189 14.211M18.9985 12.2551L12.0003 17.5037M31.8258 13.5531C32.5581 14.2853 32.5581 15.4725 31.8258 16.2047C31.0936 16.937 29.9064 16.937 29.1742 16.2047C28.4419 15.4725 28.4419 14.2853 29.1742 13.5531C29.9064 12.8208 31.0936 12.8208 31.8258 13.5531ZM11.8258 17.3031C12.5581 18.0353 12.5581 19.2225 11.8258 19.9547C11.0936 20.687 9.90641 20.687 9.17417 19.9547C8.44194 19.2225 8.44194 18.0353 9.17417 17.3031C9.90641 16.5708 11.0936 16.5708 11.8258 17.3031ZM21.8258 9.80308C22.5581 10.5353 22.5581 11.7225 21.8258 12.4547C21.0936 13.187 19.9064 13.187 19.1742 12.4547C18.4419 11.7225 18.4419 10.5353 19.1742 9.80308C19.9064 9.07085 21.0936 9.07085 21.8258 9.80308Z" stroke="white" stroke-width="2" stroke-linecap="round" stroke-linejoin="round"/>
</svg>
