<svg width="41" height="41" viewBox="0 0 41 41" fill="none" xmlns="http://www.w3.org/2000/svg">
<rect x="0.5" y="0.503906" width="40" height="40" rx="8" fill="#533A71"/>
<path d="M31.75 18.0039H9.25M31.75 21.1289V16.5039C31.75 14.4037 31.75 13.3536 31.3413 12.5514C30.9817 11.8458 30.4081 11.2722 29.7025 10.9126C28.9003 10.5039 27.8502 10.5039 25.75 10.5039H15.25C13.1498 10.5039 12.0997 10.5039 11.2975 10.9126C10.5919 11.2722 10.0183 11.8458 9.65873 12.5514C9.25 13.3536 9.25 14.4037 9.25 16.5039V27.0039C9.25 29.1041 9.25 30.1542 9.65873 30.9564C10.0183 31.662 10.5919 32.2357 11.2975 32.5952C12.0997 33.0039 13.1498 33.0039 15.25 33.0039H20.5M25.5 8.00391V13.0039M15.5 8.00391V13.0039M23.625 29.2539L26.125 31.7539L31.75 26.1289" stroke="white" stroke-width="2" stroke-linecap="round" stroke-linejoin="round"/>
</svg>
