<svg width="41" height="41" viewBox="0 0 41 41" fill="none" xmlns="http://www.w3.org/2000/svg">
<rect x="0.5" y="0.503906" width="40" height="40" rx="8" fill="#533A71"/>
<path d="M28 25.3C29.8199 26.2142 31.3802 27.6813 32.5191 29.5159C32.7446 29.8792 32.8574 30.0609 32.8964 30.3124C32.9756 30.8236 32.626 31.4521 32.15 31.6544C31.9157 31.7539 31.6521 31.7539 31.125 31.7539M25.5 19.9192C27.3522 18.9988 28.625 17.0875 28.625 14.8789C28.625 12.6703 27.3522 10.759 25.5 9.83861M23 14.8789C23 17.9855 20.4816 20.5039 17.375 20.5039C14.2684 20.5039 11.75 17.9855 11.75 14.8789C11.75 11.7723 14.2684 9.25391 17.375 9.25391C20.4816 9.25391 23 11.7723 23 14.8789ZM8.69908 29.1768C10.692 26.1846 13.8368 24.2539 17.375 24.2539C20.9133 24.2539 24.0581 26.1846 26.051 29.1768C26.4876 29.8323 26.7059 30.1601 26.6807 30.5788C26.6612 30.9048 26.4475 31.3039 26.187 31.5009C25.8524 31.7539 25.3923 31.7539 24.4721 31.7539H10.278C9.35775 31.7539 8.89764 31.7539 8.56309 31.5009C8.3026 31.3039 8.0889 30.9048 8.06933 30.5788C8.0442 30.1601 8.26249 29.8323 8.69908 29.1768Z" stroke="white" stroke-width="2" stroke-linecap="round" stroke-linejoin="round"/>
</svg>
