<svg width="41" height="41" viewBox="0 0 41 41" fill="none" xmlns="http://www.w3.org/2000/svg">
<rect x="0.5" y="0.503906" width="40" height="40" rx="8" fill="#533A71"/>
<path d="M18 15.5039V14.2539M18 21.1289V19.8789M18 26.7539V25.5039M12 10.5039H29C30.4001 10.5039 31.1002 10.5039 31.635 10.7764C32.1054 11.0161 32.4878 11.3985 32.7275 11.8689C33 12.4037 33 13.1038 33 14.5039V16.1289C30.5838 16.1289 28.625 18.0877 28.625 20.5039C28.625 22.9202 30.5838 24.8789 33 24.8789V26.5039C33 27.904 33 28.6041 32.7275 29.1389C32.4878 29.6093 32.1054 29.9917 31.635 30.2314C31.1002 30.5039 30.4001 30.5039 29 30.5039H12C10.5999 30.5039 9.8998 30.5039 9.36502 30.2314C8.89462 29.9917 8.51217 29.6093 8.27248 29.1389C8 28.6041 8 27.904 8 26.5039V24.8789C10.4162 24.8789 12.375 22.9202 12.375 20.5039C12.375 18.0877 10.4162 16.1289 8 16.1289V14.5039C8 13.1038 8 12.4037 8.27248 11.8689C8.51217 11.3985 8.89462 11.0161 9.36502 10.7764C9.8998 10.5039 10.5999 10.5039 12 10.5039Z" stroke="white" stroke-width="2" stroke-linecap="round" stroke-linejoin="round"/>
</svg>
