<svg width="41" height="41" viewBox="0 0 41 41" fill="none" xmlns="http://www.w3.org/2000/svg">
<rect x="0.5" y="0.503906" width="40" height="40" rx="8" fill="#533A71"/>
<path d="M19.6033 9.82061C19.8914 9.23694 20.0355 8.9451 20.231 8.85186C20.4012 8.77073 20.5989 8.77073 20.769 8.85186C20.9646 8.9451 21.1086 9.23694 21.3967 9.82061L24.1301 15.3581C24.2151 15.5304 24.2577 15.6165 24.3198 15.6834C24.3748 15.7427 24.4408 15.7907 24.5141 15.8247C24.5969 15.8632 24.692 15.8771 24.8822 15.9049L30.9962 16.7986C31.6401 16.8927 31.962 16.9398 32.111 17.097C32.2406 17.2338 32.3016 17.4218 32.2769 17.6087C32.2485 17.8234 32.0155 18.0504 31.5493 18.5044L27.1268 22.812C26.9889 22.9463 26.92 23.0134 26.8755 23.0933C26.8362 23.164 26.8109 23.2417 26.8011 23.3221C26.7901 23.4129 26.8064 23.5077 26.8389 23.6974L27.8824 29.7816C27.9925 30.4233 28.0475 30.7442 27.9441 30.9346C27.8541 31.1003 27.6942 31.2164 27.5088 31.2508C27.2958 31.2903 27.0076 31.1388 26.4314 30.8357L20.9655 27.9613C20.7952 27.8717 20.71 27.8269 20.6203 27.8093C20.5409 27.7937 20.4592 27.7937 20.3797 27.8093C20.29 27.8269 20.2049 27.8717 20.0346 27.9613L14.5687 30.8357C13.9924 31.1388 13.7043 31.2903 13.4912 31.2508C13.3059 31.2164 13.1459 31.1003 13.0559 30.9346C12.9525 30.7442 13.0075 30.4233 13.1176 29.7816L14.1611 23.6974C14.1936 23.5077 14.2099 23.4129 14.1989 23.3221C14.1892 23.2417 14.1639 23.164 14.1245 23.0933C14.08 23.0134 14.0111 22.9463 13.8732 22.812L9.4507 18.5044C8.98458 18.0504 8.75152 17.8234 8.72316 17.6087C8.69848 17.4218 8.75944 17.2338 8.88906 17.097C9.03804 16.9398 9.35996 16.8927 10.0038 16.7986L16.1179 15.9049C16.308 15.8771 16.4031 15.8632 16.4859 15.8247C16.5592 15.7907 16.6252 15.7427 16.6802 15.6834C16.7424 15.6165 16.7849 15.5304 16.87 15.3581L19.6033 9.82061Z" stroke="white" stroke-width="2" stroke-linecap="round" stroke-linejoin="round"/>
</svg>
