<svg width="41" height="41" viewBox="0 0 41 41" fill="none" xmlns="http://www.w3.org/2000/svg">
<rect x="0.5" y="0.503906" width="40" height="40" rx="8" fill="#533A71"/>
<path d="M30.5 10.5039L16.125 24.8789M16.125 16.1289L30.5 30.5039M13 9.25391C15.0711 9.25391 16.75 10.9328 16.75 13.0039C16.75 15.075 15.0711 16.7539 13 16.7539C10.9289 16.7539 9.25 15.075 9.25 13.0039C9.25 10.9328 10.9289 9.25391 13 9.25391ZM13 24.2539C15.0711 24.2539 16.75 25.9328 16.75 28.0039C16.75 30.075 15.0711 31.7539 13 31.7539C10.9289 31.7539 9.25 30.075 9.25 28.0039C9.25 25.9328 10.9289 24.2539 13 24.2539Z" stroke="white" stroke-width="2" stroke-linecap="round" stroke-linejoin="round"/>
</svg>
