<svg width="41" height="41" viewBox="0 0 41 41" fill="none" xmlns="http://www.w3.org/2000/svg">
<rect x="0.5" y="0.503906" width="40" height="40" rx="8" fill="#533A71"/>
<path d="M14.875 21.5039L22.375 21.5039M22.375 21.5039C22.375 22.5394 23.2145 23.3789 24.25 23.3789C25.2855 23.3789 26.125 22.5394 26.125 21.5039C26.125 20.4684 25.2855 19.6289 24.25 19.6289C23.2145 19.6289 22.375 20.4684 22.375 21.5039ZM18.625 26.5039L26.125 26.5039M18.625 26.5039C18.625 27.5394 17.7855 28.3789 16.75 28.3789C15.7145 28.3789 14.875 27.5394 14.875 26.5039C14.875 25.4684 15.7145 24.6289 16.75 24.6289C17.7855 24.6289 18.625 25.4684 18.625 26.5039Z" stroke="white" stroke-width="2" stroke-linecap="round" stroke-linejoin="round"/>
<path d="M25.5005 16.7539V13.0039C25.5005 10.2425 23.2619 8.00391 20.5005 8.00391C17.739 8.00391 15.5005 10.2425 15.5005 13.0039V16.7539M9.99047 18.4439L9.24047 26.4439C9.02722 28.7185 8.9206 29.8558 9.29802 30.7342C9.62958 31.5059 10.2106 32.144 10.948 32.5461C11.7874 33.0039 12.9297 33.0039 15.2143 33.0039H25.7867C28.0713 33.0039 29.2136 33.0039 30.0529 32.5461C30.7903 32.144 31.3713 31.5059 31.7029 30.7342C32.0803 29.8558 31.9737 28.7185 31.7605 26.4439L31.0105 18.4439C30.8304 16.5231 30.7403 15.5627 30.3084 14.8366C29.928 14.1971 29.3659 13.6853 28.6937 13.3662C27.9304 13.0039 26.9658 13.0039 25.0367 13.0039L15.9643 13.0039C14.0351 13.0039 13.0705 13.0039 12.3072 13.3662C11.635 13.6853 11.073 14.1971 10.6925 14.8366C10.2606 15.5627 10.1705 16.5231 9.99047 18.4439Z" stroke="white" stroke-width="2" stroke-linecap="round" stroke-linejoin="round"/>
</svg>
