<svg width="41" height="41" viewBox="0 0 41 41" fill="none" xmlns="http://www.w3.org/2000/svg">
<rect x="0.5" y="0.503906" width="40" height="40" rx="8" fill="#533A71"/>
<path d="M20.5 24.8789H14.875C13.1305 24.8789 12.2583 24.8789 11.5486 25.0942C9.95057 25.579 8.70005 26.8295 8.2153 28.4275C8 29.1372 8 30.0095 8 31.7539M25.5 28.0039L28 30.5039L33 25.5039M23.625 14.8789C23.625 17.9855 21.1066 20.5039 18 20.5039C14.8934 20.5039 12.375 17.9855 12.375 14.8789C12.375 11.7723 14.8934 9.25391 18 9.25391C21.1066 9.25391 23.625 11.7723 23.625 14.8789Z" stroke="white" stroke-width="2" stroke-linecap="round" stroke-linejoin="round"/>
</svg>
