<svg width="41" height="41" viewBox="0 0 41 41" fill="none" xmlns="http://www.w3.org/2000/svg">
<rect x="0.5" y="0.503906" width="40" height="40" rx="8" fill="#533A71"/>
<path d="M22.4119 15.9437C21.6963 16.4538 20.8207 16.7539 19.875 16.7539C17.4588 16.7539 15.5 14.7952 15.5 12.3789C15.5 9.96266 17.4588 8.00391 19.875 8.00391C21.4412 8.00391 22.8152 8.82693 23.5881 10.0641M13 30.6128H16.2629C16.6883 30.6128 17.1111 30.6635 17.5235 30.7647L20.9711 31.6025C21.7192 31.7847 22.4985 31.8025 23.2543 31.6557L27.0662 30.914C28.0732 30.7179 28.9995 30.2357 29.7254 29.5295L32.4224 26.906C33.1925 26.1581 33.1925 24.9444 32.4224 24.1952C31.7289 23.5207 30.6309 23.4448 29.8464 24.0168L26.7032 26.31C26.2531 26.639 25.7054 26.8162 25.1421 26.8162H22.1069L24.0388 26.8161C25.1278 26.8161 26.0098 25.9581 26.0098 24.8988V24.5153C26.0098 23.6358 25.3945 22.8689 24.5176 22.6562L21.5357 21.9311C21.0505 21.8134 20.5535 21.7539 20.0539 21.7539C18.8479 21.7539 16.6649 22.7524 16.6649 22.7524L13 24.285M30.5 13.6289C30.5 16.0452 28.5412 18.0039 26.125 18.0039C23.7088 18.0039 21.75 16.0452 21.75 13.6289C21.75 11.2127 23.7088 9.25391 26.125 9.25391C28.5412 9.25391 30.5 11.2127 30.5 13.6289ZM8 23.7539L8 31.0039C8 31.704 8 32.054 8.13624 32.3214C8.25608 32.5566 8.44731 32.7478 8.68251 32.8677C8.9499 33.0039 9.29993 33.0039 10 33.0039H11C11.7001 33.0039 12.0501 33.0039 12.3175 32.8677C12.5527 32.7478 12.7439 32.5566 12.8638 32.3214C13 32.054 13 31.704 13 31.0039V23.7539C13 23.0538 13 22.7038 12.8638 22.4364C12.7439 22.2012 12.5527 22.01 12.3175 21.8901C12.0501 21.7539 11.7001 21.7539 11 21.7539L10 21.7539C9.29993 21.7539 8.9499 21.7539 8.68251 21.8901C8.44731 22.01 8.25608 22.2012 8.13624 22.4364C8 22.7038 8 23.0538 8 23.7539Z" stroke="white" stroke-width="2" stroke-linecap="round" stroke-linejoin="round"/>
</svg>
