<svg width="418" height="182" viewBox="0 0 418 182" fill="none" xmlns="http://www.w3.org/2000/svg">
<g filter="url(#filter0_f_1576_17776)">
<path d="M366.167 91.2806C366.167 112.912 295.838 130.447 209.083 130.447C122.329 130.447 52 112.912 52 91.2806C52 69.6495 122.329 52.114 209.083 52.114C295.838 52.114 366.167 69.6495 366.167 91.2806Z" fill="url(#paint0_linear_1576_17776)" fill-opacity="0.5"/>
</g>
<path d="M21.9211 114.393L16.8879 118.147H23.1665C25.1091 118.147 27.1108 118.233 29.1569 118.321C39.4365 118.762 50.835 119.252 61.4748 109.12C62.3595 110.259 63.6415 111.719 65.3379 113.179C68.9399 116.279 74.4577 119.417 81.9728 119.417H346.601C362.987 119.417 376.25 106.057 376.25 89.6022V35.0644C376.25 18.6102 362.987 5.25001 346.601 5.25001H81.9728C65.5331 5.25001 52.8645 18.6646 52.8645 35.0644V51.6905C52.8645 57.9823 52.8566 67.8489 49.0051 79.0483C45.1659 90.2118 37.4691 102.798 21.9211 114.393Z" fill="white" stroke="url(#paint1_linear_1576_17776)" stroke-width="4.16667" stroke-miterlimit="16"/>
<path d="M97.8407 96.0638C92.9709 96.0638 88.3141 95.3333 83.8704 93.8724C79.4267 92.3506 75.9265 90.4026 73.3698 88.0286L76.7483 80.9065C79.1832 83.037 82.2877 84.8023 86.0618 86.2024C89.8359 87.6025 93.7622 88.3025 97.8407 88.3025C101.554 88.3025 104.567 87.8764 106.88 87.0242C109.194 86.172 110.898 85.0154 111.994 83.5544C113.089 82.0326 113.637 80.3282 113.637 78.4411C113.637 76.2497 112.907 74.4844 111.446 73.1452C110.046 71.806 108.189 70.7407 105.876 69.9493C103.624 69.0971 101.128 68.3666 98.3886 67.7579C95.6493 67.1492 92.8796 66.4492 90.0794 65.6578C87.3402 64.8056 84.8139 63.7403 82.5008 62.462C80.2485 61.1836 78.4223 59.4792 77.0222 57.3487C75.6221 55.1572 74.9221 52.3571 74.9221 48.9482C74.9221 45.6611 75.7743 42.6478 77.4787 39.9086C79.2441 37.1084 81.9225 34.8866 85.514 33.243C89.1663 31.5385 93.7927 30.6863 99.393 30.6863C103.106 30.6863 106.789 31.1733 110.441 32.1473C114.094 33.1212 117.259 34.5213 119.938 36.3475L116.924 43.6523C114.185 41.8261 111.294 40.5173 108.25 39.726C105.206 38.8737 102.254 38.4476 99.393 38.4476C95.8015 38.4476 92.8492 38.9042 90.536 39.8173C88.2228 40.7304 86.5184 41.9478 85.4227 43.4696C84.3878 44.9915 83.8704 46.6959 83.8704 48.583C83.8704 50.8353 84.5704 52.631 85.9705 53.9702C87.4315 55.3094 89.2881 56.3747 91.5404 57.166C93.8536 57.9574 96.3798 58.6879 99.1191 59.3575C101.858 59.9662 104.598 60.6662 107.337 61.4576C110.137 62.2489 112.663 63.2838 114.916 64.5621C117.229 65.8404 119.085 67.5449 120.485 69.6754C121.886 71.806 122.586 74.5452 122.586 77.8933C122.586 81.1195 121.703 84.1327 119.938 86.9329C118.172 89.6722 115.433 91.894 111.72 93.5985C108.067 95.242 103.441 96.0638 97.8407 96.0638ZM146.7 95.8812C141.83 95.8812 138.056 94.5724 135.377 91.9549C132.699 89.3374 131.36 85.5937 131.36 80.7238V36.3475H140.126V80.3586C140.126 82.9761 140.765 84.985 142.043 86.385C143.382 87.7851 145.269 88.4851 147.704 88.4851C150.443 88.4851 152.726 87.7242 154.552 86.2024L157.292 92.5028C155.952 93.6593 154.339 94.5116 152.452 95.0594C150.626 95.6073 148.709 95.8812 146.7 95.8812ZM123.142 54.1528V46.9394H154.005V54.1528H123.142ZM182.446 95.8812C177.576 95.8812 173.254 94.8159 169.48 92.6854C165.706 90.5548 162.723 87.6329 160.532 83.9197C158.34 80.1456 157.245 75.8845 157.245 71.1364C157.245 66.3274 158.34 62.0663 160.532 58.3531C162.723 54.6398 165.706 51.7483 169.48 49.6787C173.254 47.5481 177.576 46.4828 182.446 46.4828C187.255 46.4828 191.546 47.5481 195.321 49.6787C199.156 51.7483 202.138 54.6398 204.269 58.3531C206.46 62.0054 207.556 66.2665 207.556 71.1364C207.556 75.9453 206.46 80.2064 204.269 83.9197C202.138 87.6329 199.156 90.5548 195.321 92.6854C191.546 94.8159 187.255 95.8812 182.446 95.8812ZM182.446 88.2112C185.55 88.2112 188.32 87.5112 190.755 86.1111C193.251 84.711 195.199 82.7327 196.599 80.176C197.999 77.5585 198.699 74.5452 198.699 71.1364C198.699 67.6666 197.999 64.6838 196.599 62.1881C195.199 59.6314 193.251 57.653 190.755 56.2529C188.32 54.8529 185.55 54.1528 182.446 54.1528C179.341 54.1528 176.572 54.8529 174.137 56.2529C171.702 57.653 169.754 59.6314 168.293 62.1881C166.832 64.6838 166.102 67.6666 166.102 71.1364C166.102 74.5452 166.832 77.5585 168.293 80.176C169.754 82.7327 171.702 84.711 174.137 86.1111C176.572 87.5112 179.341 88.2112 182.446 88.2112ZM236.206 95.8812C231.275 95.8812 226.862 94.8159 222.966 92.6854C219.131 90.5548 216.118 87.6329 213.926 83.9197C211.735 80.2064 210.639 75.9453 210.639 71.1364C210.639 66.3274 211.735 62.0663 213.926 58.3531C216.118 54.6398 219.131 51.7483 222.966 49.6787C226.862 47.5481 231.275 46.4828 236.206 46.4828C240.589 46.4828 244.484 47.3655 247.893 49.1308C251.363 50.8353 254.042 53.3919 255.929 56.8008L249.263 61.0923C247.68 58.7183 245.732 56.9834 243.419 55.8877C241.167 54.7311 238.732 54.1528 236.114 54.1528C232.949 54.1528 230.118 54.8529 227.623 56.2529C225.127 57.653 223.149 59.6314 221.688 62.1881C220.227 64.6838 219.496 67.6666 219.496 71.1364C219.496 74.6061 220.227 77.6193 221.688 80.176C223.149 82.7327 225.127 84.711 227.623 86.1111C230.118 87.5112 232.949 88.2112 236.114 88.2112C238.732 88.2112 241.167 87.6634 243.419 86.5676C245.732 85.4111 247.68 83.6457 249.263 81.2717L255.929 85.4719C254.042 88.8199 251.363 91.407 247.893 93.2332C244.484 94.9985 240.589 95.8812 236.206 95.8812ZM269.21 83.6457L269.392 72.4147L297.242 46.9394H307.834L286.467 67.9405L281.719 71.9582L269.21 83.6457ZM262.088 95.3333V27.5818H270.853V95.3333H262.088ZM299.068 95.3333L280.076 71.7755L285.737 64.7447L309.842 95.3333H299.068ZM326.151 95.8812C322.134 95.8812 318.299 95.3333 314.646 94.2376C311.055 93.1419 308.224 91.8027 306.154 90.22L309.807 83.2805C311.876 84.6806 314.433 85.8676 317.477 86.8416C320.52 87.8155 323.625 88.3025 326.79 88.3025C330.869 88.3025 333.791 87.7242 335.556 86.5676C337.382 85.4111 338.295 83.7979 338.295 81.7283C338.295 80.2064 337.747 79.0194 336.652 78.1672C335.556 77.315 334.095 76.6758 332.269 76.2497C330.504 75.8236 328.525 75.4583 326.334 75.154C324.142 74.7887 321.951 74.3626 319.76 73.8756C317.568 73.3278 315.559 72.5973 313.733 71.6842C311.907 70.7103 310.446 69.4015 309.35 67.7579C308.255 66.0535 307.707 63.8012 307.707 61.001C307.707 58.0791 308.528 55.5225 310.172 53.331C311.816 51.1396 314.129 49.4656 317.112 48.309C320.155 47.0916 323.747 46.4828 327.886 46.4828C331.051 46.4828 334.247 46.8785 337.474 47.6699C340.761 48.4003 343.439 49.4656 345.509 50.8657L341.765 57.8052C339.574 56.3443 337.291 55.3398 334.917 54.792C332.543 54.2441 330.169 53.9702 327.795 53.9702C323.96 53.9702 321.099 54.6094 319.212 55.8877C317.325 57.1052 316.381 58.6879 316.381 60.6358C316.381 62.2794 316.929 63.5577 318.025 64.4708C319.181 65.323 320.642 65.9926 322.408 66.4796C324.234 66.9666 326.242 67.3927 328.434 67.7579C330.625 68.0623 332.817 68.4884 335.008 69.0363C337.2 69.5232 339.178 70.2233 340.943 71.1364C342.769 72.0495 344.23 73.3278 345.326 74.9714C346.483 76.6149 347.061 78.8064 347.061 81.5456C347.061 84.4675 346.209 86.9938 344.504 89.1243C342.8 91.2549 340.395 92.9289 337.291 94.1463C334.186 95.3029 330.473 95.8812 326.151 95.8812Z" fill="url(#paint2_linear_1576_17776)"/>
<defs>
<filter id="filter0_f_1576_17776" x="0.75" y="0.863953" width="416.667" height="180.833" filterUnits="userSpaceOnUse" color-interpolation-filters="sRGB">
<feFlood flood-opacity="0" result="BackgroundImageFix"/>
<feBlend mode="normal" in="SourceGraphic" in2="BackgroundImageFix" result="shape"/>
<feGaussianBlur stdDeviation="25.625" result="effect1_foregroundBlur_1576_17776"/>
</filter>
<linearGradient id="paint0_linear_1576_17776" x1="366.74" y1="130.447" x2="305.709" y2="-39.039" gradientUnits="userSpaceOnUse">
<stop stop-color="#009CDE"/>
<stop offset="1" stop-color="#142C8E"/>
</linearGradient>
<linearGradient id="paint1_linear_1576_17776" x1="374.807" y1="117.333" x2="273.808" y2="-105.818" gradientUnits="userSpaceOnUse">
<stop stop-color="#009CDE"/>
<stop offset="1" stop-color="#142C8E"/>
</linearGradient>
<linearGradient id="paint2_linear_1576_17776" x1="350.679" y1="108.333" x2="265.323" y2="-74.1691" gradientUnits="userSpaceOnUse">
<stop stop-color="#009CDE"/>
<stop offset="1" stop-color="#142C8E"/>
</linearGradient>
</defs>
</svg>
