<svg width="70" height="71" viewBox="0 0 70 71" fill="none" xmlns="http://www.w3.org/2000/svg">
<rect y="0.5" width="70" height="70" rx="12" fill="#142C8E" fill-opacity="0.1"/>
<path d="M27.1754 38.9529C26.7198 39.4085 26.7198 40.1472 27.1754 40.6028C27.631 41.0585 28.3697 41.0585 28.8253 40.6028L32.7461 36.6821L34.2624 37.9204C34.7388 38.3095 35.4356 38.2618 35.8545 37.8114L39.6703 33.7094L41.1492 35.2869C41.5899 35.757 42.3282 35.7808 42.7983 35.3401C43.2683 34.8994 43.2921 34.1611 42.8515 33.6911L40.5181 31.2022C40.297 30.9663 39.988 30.8328 39.6647 30.8334C39.3415 30.8341 39.033 30.9688 38.8128 31.2055L34.8911 35.4213L33.4049 34.2076C32.941 33.8287 32.2656 33.8627 31.842 34.2863L27.1754 38.9529Z" fill="#142C8E"/>
<path fill-rule="evenodd" clip-rule="evenodd" d="M26.8337 25C24.2563 25 22.167 27.0893 22.167 29.6667V41.3333C22.167 43.9107 24.2563 46 26.8337 46H43.167C45.7443 46 47.8337 43.9107 47.8337 41.3333V29.6667C47.8337 27.0893 45.7443 25 43.167 25H26.8337ZM24.5003 29.6667C24.5003 28.378 25.545 27.3333 26.8337 27.3333H43.167C44.4557 27.3333 45.5003 28.378 45.5003 29.6667V41.3333C45.5003 42.622 44.4557 43.6667 43.167 43.6667H26.8337C25.545 43.6667 24.5003 42.622 24.5003 41.3333V29.6667Z" fill="#142C8E"/>
</svg>
