<svg width="48" height="48" viewBox="0 0 48 48" fill="none" xmlns="http://www.w3.org/2000/svg">
<g id="Shop Details">
<path d="M-15113 -9508C-15113 -9509.1 -15112.1 -9510 -15111 -9510H1896C1897.11 -9510 1898 -9509.1 1898 -9508V2591C1898 2592.1 1897.11 2593 1896 2593H-15111C-15112.1 2593 -15113 2592.1 -15113 2591V-9508Z" fill="#CDCDCD"/>
<path d="M-15111 -9509H1896V-9511H-15111V-9509ZM1897 -9508V2591H1899V-9508H1897ZM1896 2592H-15111V2594H1896V2592ZM-15112 2591V-9508H-15114V2591H-15112ZM-15111 2592C-15111.6 2592 -15112 2591.55 -15112 2591H-15114C-15114 2592.66 -15112.7 2594 -15111 2594V2592ZM1897 2591C1897 2591.55 1896.55 2592 1896 2592V2594C1897.66 2594 1899 2592.66 1899 2591H1897ZM1896 -9509C1896.55 -9509 1897 -9508.55 1897 -9508H1899C1899 -9509.66 1897.66 -9511 1896 -9511V-9509ZM-15111 -9511C-15112.7 -9511 -15114 -9509.66 -15114 -9508H-15112C-15112 -9508.55 -15111.6 -9509 -15111 -9509V-9511Z" fill="black" fill-opacity="0.1"/>
<g id="Third" clip-path="url(#clip0_76_4886)">
<rect id="Rectangle 1467" x="-386" y="-235" width="1093" height="678" fill="#F9F9F9"/>
<path id="Rectangle 1468" d="M-366 -199C-366 -205.627 -360.627 -211 -354 -211H138C144.627 -211 150 -205.627 150 -199V380C150 386.627 144.627 392 138 392H-354C-360.627 392 -366 386.627 -366 380V-199Z" fill="white"/>
<g id="Frame 427318511">
<g id="Frame 427318508">
<rect id="Rectangle 1555" x="-346" y="-143" width="476" height="261" rx="12" fill="#FBFBFB"/>
<g id="Frame 427318507">
</g>
</g>
</g>
<g id="Rectangle 1434" filter="url(#filter0_b_76_4886)">
<rect x="-659" y="-325" width="1366" height="768" fill="black" fill-opacity="0.6"/>
</g>
<g id="Frame 427318517">
<rect x="-219" y="-80" width="486" height="279" rx="12" fill="white"/>
<g id="Frame 427318571">
<g id="approved 1">
<g id="Flat Color">
<path id="Vector" d="M43.5 24C43.5 25.665 41.46 27 41.04 28.575C40.62 30.15 41.7 32.37 40.89 33.75C40.08 35.13 37.62 35.325 36.48 36.48C35.34 37.635 35.16 40.08 33.75 40.89C32.34 41.7 30.15 40.62 28.575 41.04C27 41.46 25.665 43.5 24 43.5C22.335 43.5 21 41.46 19.5 41.04C18 40.62 15.705 41.7 14.325 40.89C12.945 40.08 12.75 37.62 11.595 36.48C10.44 35.34 7.995 35.16 7.185 33.75C6.375 32.34 7.455 30.15 7.035 28.575C6.615 27 4.5 25.665 4.5 24C4.5 22.335 6.54 21 6.96 19.5C7.38 18 6.3 15.705 7.11 14.325C7.92 12.945 10.38 12.675 11.52 11.52C12.66 10.365 12.84 7.92 14.25 7.11C15.66 6.3 17.85 7.38 19.425 6.96C21 6.54 22.335 4.5 24 4.5C25.665 4.5 27 6.54 28.575 6.96C30.15 7.38 32.37 6.3 33.75 7.11C35.13 7.92 35.325 10.38 36.48 11.52C37.635 12.66 40.08 12.84 40.89 14.25C41.7 15.66 40.62 17.85 41.04 19.425C41.46 21 43.5 22.335 43.5 24Z" fill="#109138"/>
<path id="Vector_2" d="M24 36.75C31.0416 36.75 36.75 31.0416 36.75 24C36.75 16.9584 31.0416 11.25 24 11.25C16.9584 11.25 11.25 16.9584 11.25 24C11.25 31.0416 16.9584 36.75 24 36.75Z" fill="#20BF55"/>
<path id="Vector_3" d="M22.6952 27.5557C22.5474 27.5564 22.4009 27.5276 22.2644 27.4709C22.1279 27.4142 22.004 27.3309 21.9002 27.2257L18.4052 23.7907C18.1945 23.5798 18.0762 23.2938 18.0762 22.9957C18.0762 22.6976 18.1945 22.4116 18.4052 22.2007C18.6161 21.99 18.9021 21.8717 19.2002 21.8717C19.4983 21.8717 19.7842 21.99 19.9952 22.2007L22.6952 24.8707L28.0052 19.6357C28.218 19.4249 28.5059 19.3072 28.8055 19.3086C29.1051 19.31 29.3918 19.4304 29.6027 19.6432C29.8135 19.856 29.9312 20.1439 29.9298 20.4435C29.9284 20.7431 29.808 21.0299 29.5952 21.2407L23.4752 27.2407C23.3739 27.3441 23.2523 27.4255 23.1181 27.4797C22.9839 27.5339 22.8399 27.5598 22.6952 27.5557Z" fill="#EDEBEA"/>
</g>
</g>
</g>
</g>
</g>
</g>
<defs>
<filter id="filter0_b_76_4886" x="-671" y="-337" width="1390" height="792" filterUnits="userSpaceOnUse" color-interpolation-filters="sRGB">
<feFlood flood-opacity="0" result="BackgroundImageFix"/>
<feGaussianBlur in="BackgroundImageFix" stdDeviation="6"/>
<feComposite in2="SourceAlpha" operator="in" result="effect1_backgroundBlur_76_4886"/>
<feBlend mode="normal" in="SourceGraphic" in2="effect1_backgroundBlur_76_4886" result="shape"/>
</filter>
<clipPath id="clip0_76_4886">
<rect width="1366" height="768" fill="white" transform="translate(-659 -325)"/>
</clipPath>
</defs>
</svg>
