<svg width="24" height="24" viewBox="0 0 24 24" fill="none" xmlns="http://www.w3.org/2000/svg">
<g id="clock" clip-path="url(#clip0_4707_4720)">
<g id="Group">
<path id="Vector" d="M23.8899 12.1867L23.4873 11.7078C23.4073 11.6125 23.2927 11.5529 23.1686 11.5421C23.0453 11.5317 22.9215 11.5704 22.8261 11.6504L21.531 12.7388C21.6755 10.6614 21.2149 8.57802 20.1839 6.73518C18.2812 3.33463 14.6708 1.22217 10.7614 1.22217C8.93237 1.22217 7.1185 1.69602 5.51624 2.59254C3.00796 3.99607 1.19509 6.29643 0.411759 9.06977C-0.371443 11.8431 -0.0300552 14.7519 1.37354 17.2603C3.27783 20.6637 6.87942 22.7779 10.7729 22.7779C11.1696 22.7779 11.5712 22.7557 11.9665 22.7121C12.2241 22.6836 12.4099 22.4517 12.3814 22.1941L12.3127 21.5722C12.2842 21.3146 12.0534 21.1288 11.7948 21.1573C11.4564 21.1947 11.1129 21.2136 10.7738 21.2136C7.44556 21.2136 4.36675 19.4061 2.73865 16.4966C0.258147 12.0632 1.84689 6.43834 6.28017 3.95777C7.64979 3.19147 9.19974 2.78644 10.7627 2.78644C14.1055 2.78644 17.1925 4.59224 18.819 7.49911C19.7065 9.08535 20.0994 10.88 19.9678 12.6679L18.8209 11.3031C18.6541 11.1047 18.3581 11.079 18.1598 11.2457L17.6807 11.6483C17.5854 11.7284 17.5259 11.843 17.5151 11.9671C17.5044 12.091 17.5432 12.2142 17.6234 12.3095L20.1569 15.3241C20.2497 15.4346 20.3824 15.4915 20.5163 15.4915C20.6228 15.4915 20.73 15.4554 20.818 15.3815L23.8327 12.848C23.9278 12.7679 23.9875 12.6533 23.9982 12.5293C24.009 12.4052 23.97 12.282 23.8899 12.1867Z" fill="white"/>
<path id="Vector_2" d="M16.4048 20.8864H14.9238L15.8051 19.7889C16.9461 18.4447 16.8982 17.5264 16.6569 16.9926C16.4036 16.4324 15.8154 16.0771 15.1216 16.0653C14.3238 16.0525 13.5855 16.4914 13.2472 17.1773C13.2143 17.2441 13.2092 17.3211 13.2331 17.3917C13.257 17.4621 13.308 17.5202 13.3748 17.5532L13.8782 17.8015C14.0172 17.8701 14.1855 17.8129 14.254 17.6739C14.4311 17.315 14.8124 17.1876 15.0853 17.1876L15.1028 17.1878C15.3618 17.1922 15.5604 17.292 15.6339 17.4549C15.7484 17.7083 15.6275 18.265 14.9447 19.0676C14.9431 19.0696 14.9413 19.0717 14.9396 19.0737L12.9488 21.5524C12.8812 21.6366 12.8679 21.7522 12.9145 21.8495C12.9612 21.9469 13.0596 22.0088 13.1677 22.0088H16.4047C16.5597 22.0088 16.6853 21.8832 16.6853 21.7282V21.1669C16.6854 21.012 16.5598 20.8864 16.4048 20.8864Z" fill="white"/>
<path id="Vector_3" d="M21.1472 19.7223H20.8843V16.5111C20.8843 16.3561 20.7587 16.2305 20.6036 16.2305H20.039C19.9477 16.2305 19.8622 16.2748 19.8095 16.3492L16.9488 20.4024C16.8883 20.4881 16.8807 20.6003 16.929 20.6933C16.9771 20.7865 17.0732 20.8449 17.1781 20.8449H19.7617V21.678C19.7617 21.833 19.8873 21.9587 20.0422 21.9587H20.6036C20.7587 21.9587 20.8843 21.833 20.8843 21.678V20.8449H21.1472C21.3023 20.8449 21.4279 20.7193 21.4279 20.5643V20.0029C21.428 19.848 21.3024 19.7223 21.1472 19.7223ZM19.7617 19.7223H18.803L19.7617 18.364V19.7223Z" fill="white"/>
<path id="Vector_4" d="M16.3869 6.83208L15.9446 6.38964C15.8858 6.33095 15.8062 6.29797 15.7233 6.29797C15.6403 6.29797 15.5607 6.33095 15.5021 6.38958L10.7788 11.1128L7.84237 8.17629C7.78368 8.1176 7.70415 8.08469 7.62118 8.08469C7.53821 8.08469 7.45862 8.11767 7.4 8.17636L6.95762 8.6188C6.83542 8.741 6.83542 8.93904 6.95762 9.06124L10.5576 12.6614C10.6163 12.7201 10.6959 12.753 10.7788 12.753C10.8618 12.753 10.9414 12.72 11 12.6614L16.3869 7.27452C16.509 7.15232 16.509 6.95428 16.3869 6.83208Z" fill="white"/>
</g>
</g>
<defs>
<clipPath id="clip0_4707_4720">
<rect width="24" height="24" fill="white"/>
</clipPath>
</defs>
</svg>
