<svg width="24" height="24" viewBox="0 0 24 24" fill="none" xmlns="http://www.w3.org/2000/svg">
<g id="data-analytics" clip-path="url(#clip0_4707_4714)">
<path id="Vector" d="M3.33325 15.3542H0.666748C0.298584 15.3542 0 15.6526 0 16.0208V22.6875C0 23.0557 0.298584 23.3542 0.666748 23.3542H3.33325C3.70142 23.3542 4 23.0557 4 22.6875V16.0208C4 15.6526 3.70142 15.3542 3.33325 15.3542ZM2.66675 22.0208H1.33325V16.6875H2.66675V22.0208Z" fill="white"/>
<path id="Vector_2" d="M10 10.0208H7.33325C6.96509 10.0208 6.66675 10.3193 6.66675 10.6875V22.6875C6.66675 23.0557 6.96509 23.3542 7.33325 23.3542H10C10.3682 23.3542 10.6667 23.0557 10.6667 22.6875V10.6875C10.6667 10.3193 10.3682 10.0208 10 10.0208ZM9.33325 22.0208H8V11.3542H9.33325V22.0208Z" fill="white"/>
<path id="Vector_3" d="M16.6667 12.6875H14C13.6318 12.6875 13.3333 12.9861 13.3333 13.3542V22.6875C13.3333 23.0557 13.6318 23.3542 14 23.3542H16.6667C17.0349 23.3542 17.3333 23.0557 17.3333 22.6875V13.3542C17.3333 12.9861 17.0349 12.6875 16.6667 12.6875ZM16 22.0208H14.6667V14.0208H16V22.0208Z" fill="white"/>
<path id="Vector_4" d="M23.3333 8.6875H20.6667C20.2986 8.6875 20 8.98608 20 9.35425V22.6875C20 23.0557 20.2986 23.3542 20.6667 23.3542H23.3333C23.7014 23.3542 24 23.0557 24 22.6875V9.35425C24 8.98608 23.7014 8.6875 23.3333 8.6875ZM22.6667 22.0208H21.3333V10.0208H22.6667V22.0208Z" fill="white"/>
<path id="Vector_5" d="M20.9482 4.3811C21.2629 4.58008 21.6274 4.68628 22 4.6875C23.1045 4.6875 24 3.79199 24 2.6875C24 1.58301 23.1045 0.6875 22 0.6875C20.8955 0.6875 20 1.58301 20 2.6875C20.0027 2.90527 20.0413 3.12109 20.1143 3.32617L16.7769 5.31006C16.3389 4.84546 15.7039 4.62036 15.071 4.70508C14.438 4.7898 13.8848 5.17407 13.5842 5.73755L10.6406 4.27954C10.655 4.19385 10.6636 4.10742 10.6667 4.02075C10.6682 3.21118 10.1816 2.48071 9.43408 2.16992C8.68652 1.85938 7.82544 2.03003 7.25293 2.6023C6.68018 3.17456 6.50903 4.0354 6.81934 4.7832L3.00098 7.63281C2.69824 7.45239 2.35254 7.3562 2 7.35425C0.895508 7.35425 0 8.24951 0 9.35425C0 10.4587 0.895508 11.3542 2 11.3542C3.10449 11.3542 4 10.4587 4 9.35425C3.99829 9.11353 3.95288 8.87549 3.86597 8.65112L7.72241 5.77295C8.47681 6.1936 9.41772 6.07031 10.0381 5.46924L13.3855 7.1272C13.6086 8.12109 14.5439 8.78809 15.5564 8.67529C16.5688 8.5625 17.3345 7.7063 17.3333 6.6875C17.3333 6.63672 17.322 6.58887 17.3184 6.53906L20.9482 4.3811ZM22 2.02075C22.3682 2.02075 22.6667 2.31934 22.6667 2.6875C22.6667 3.05566 22.3682 3.35425 22 3.35425C21.6318 3.35425 21.3333 3.05566 21.3333 2.6875C21.3335 2.31934 21.6318 2.021 22 2.02075ZM2 10.0208C1.63184 10.0208 1.33325 9.72241 1.33325 9.35425C1.33325 8.98608 1.63184 8.6875 2 8.6875C2.36816 8.6875 2.66675 8.98608 2.66675 9.35425C2.6665 9.72217 2.36816 10.0205 2 10.0208ZM8.66675 4.6875C8.29858 4.6875 8 4.38892 8 4.02075C8 3.65259 8.29858 3.35425 8.66675 3.35425C9.03491 3.35425 9.33325 3.65259 9.33325 4.02075C9.33301 4.38892 9.03467 4.68726 8.66675 4.6875ZM15.3333 7.35425C14.9651 7.35425 14.6667 7.05567 14.6667 6.6875C14.6667 6.31934 14.9651 6.02075 15.3333 6.02075C15.7014 6.02075 16 6.31934 16 6.6875C15.9998 7.05567 15.7014 7.354 15.3333 7.35425Z" fill="white"/>
</g>
<defs>
<clipPath id="clip0_4707_4714">
<rect width="24" height="24" fill="white"/>
</clipPath>
</defs>
</svg>
