<svg width="34" height="34" viewBox="0 0 34 34" fill="none" xmlns="http://www.w3.org/2000/svg">
<g id="mdi:help-outline" clip-path="url(#clip0_4967_5016)">
<path id="Vector" d="M26.1011 21.6292C27.8687 21.6525 28.5168 20.2255 28.551 19.2429L28.6068 15.0007C28.6231 13.2259 27.203 12.5849 26.2205 12.5508L23.8094 12.5261L22.0022 10.6708C20.6765 9.30971 19.1926 9.21947 17.9781 9.62072L11.6995 9.53812L8.83415 12.3291L7.83731 12.3089C6.06253 12.2926 5.42154 13.7127 5.3874 14.6952L5.33159 18.9375C5.32154 19.7011 5.58296 20.2561 5.96672 20.6501C6.46212 21.1587 7.16637 21.3801 7.71787 21.3874L11.5431 21.4306L14.048 24.0023C15.2341 25.2201 16.5935 25.0966 17.5548 24.593C18.5582 25.1931 19.6068 25.0372 20.383 24.6302C21.7511 25.4614 23.2088 24.8512 23.9466 24.1325L26.0957 22.0393L25.684 21.6167L26.1011 21.6292ZM22.5511 22.6998C22.2288 23.0138 21.7022 23.2615 21.137 22.6812L20.4393 21.9649L19.7229 22.6626C19.4006 22.9766 18.874 23.2243 18.3089 22.644L17.6111 21.9277L16.8948 22.6254C16.5724 22.9394 16.0458 23.1871 15.4807 22.6068L12.4036 19.4477L7.7654 19.3867C7.34136 19.367 7.33755 19.1194 7.33959 18.9639L7.38806 14.7427C7.40778 14.3187 7.65534 14.3149 7.81089 14.3169L9.64223 14.3339L12.5076 11.543L15.3358 11.5802L14.1968 12.6896C13.33 13.5339 12.606 15.3559 14.141 16.9319C15.676 18.5078 17.5165 17.8319 18.3833 16.9877L23.2675 22.0021L22.5511 22.6998ZM26.1275 19.6212L23.7164 19.5966L18.4205 14.1595L16.9878 15.555C16.6654 15.869 16.1389 16.1166 15.5737 15.5364C15.0085 14.9561 15.2699 14.4363 15.5923 14.1223L17.7413 12.029C18.0709 11.7081 19.2927 10.7553 20.5695 12.0663L22.9488 14.509L26.173 14.5514C26.597 14.5711 26.6008 14.8187 26.5988 14.9742L26.5503 19.1954C26.5306 19.6194 26.283 19.6233 26.1275 19.6212Z" fill="white"/>
</g>
<defs>
<clipPath id="clip0_4967_5016">
<rect width="24" height="24" fill="white" transform="translate(17.1924) rotate(45.7538)"/>
</clipPath>
</defs>
</svg>
