<svg width="24" height="24" viewBox="0 0 24 24" fill="none" xmlns="http://www.w3.org/2000/svg">
<g id="shopping-bag" clip-path="url(#clip0_4707_4782)">
<g id="g3069">
<g id="g3071">
<g id="Clip path group">
<mask id="mask0_4707_4782" style="mask-type:luminance" maskUnits="userSpaceOnUse" x="0" y="0" width="24" height="24">
<g id="clipPath3077">
<path id="path3075" d="M0 1.90735e-06H24V24H0V1.90735e-06Z" fill="white"/>
</g>
</mask>
<g mask="url(#mask0_4707_4782)">
<g id="g3073">
<g id="g3079">
<path id="path3081" d="M12.4979 8.63953V4.11431C12.4979 2.2304 10.9707 0.703167 9.08672 0.703167C7.20277 0.703167 5.67554 2.2304 5.67554 4.11431V8.63953" stroke="white" stroke-width="1.58203" stroke-miterlimit="10"/>
</g>
<g id="g3083">
<path id="path3085" d="M16.2781 13.2472L15.865 6.1745H2.30852L1.60821 18.1626C1.51282 19.7954 2.81121 21.1719 4.44677 21.1719H13.186" stroke="white" stroke-width="1.58203" stroke-miterlimit="10"/>
</g>
<g id="g3087">
<path id="path3089" d="M14.7952 17.754L16.5751 19.7671L19.7458 16.4827" stroke="white" stroke-width="1.58203" stroke-miterlimit="10"/>
</g>
<g id="g3091">
<path id="path3093" d="M22.3955 18.2186C22.3955 21.0232 20.122 23.2968 17.3174 23.2968C14.5128 23.2968 12.2393 21.0232 12.2393 18.2186C12.2393 15.4141 14.5128 13.1405 17.3174 13.1405C20.122 13.1405 22.3955 15.4141 22.3955 18.2186Z" stroke="white" stroke-width="1.58203" stroke-miterlimit="10"/>
</g>
</g>
</g>
</g>
</g>
</g>
</g>
<defs>
<clipPath id="clip0_4707_4782">
<rect width="24" height="24" fill="white"/>
</clipPath>
</defs>
</svg>
