<svg width="46" height="46" viewBox="0 0 46 46" fill="none" xmlns="http://www.w3.org/2000/svg">
<g clip-path="url(#clip0_326_710)">
<path d="M23 43.4408C22.3451 43.4408 21.7137 43.2035 21.2217 42.7726C19.3634 41.1477 17.5718 39.6207 15.9911 38.2737L15.983 38.2667C11.3487 34.3174 7.34682 30.9069 4.56237 27.5472C1.44978 23.7914 0 20.2303 0 16.34C0 12.5602 1.29606 9.07315 3.64919 6.52068C6.0304 3.93803 9.29776 2.51562 12.8504 2.51562C15.5057 2.51562 17.9375 3.3551 20.0779 5.01054C21.1582 5.84615 22.1373 6.86883 23 8.06171C23.8629 6.86883 24.8417 5.84615 25.9223 5.01054C28.0628 3.3551 30.4945 2.51562 33.1498 2.51562C36.7022 2.51562 39.9699 3.93803 42.3511 6.52068C44.7042 9.07315 45.9999 12.5602 45.9999 16.34C45.9999 20.2303 44.5505 23.7914 41.4379 27.5469C38.6534 30.9069 34.6519 34.3171 30.0183 38.266C28.4348 39.6151 26.6404 41.1445 24.7779 42.7733C24.2862 43.2035 23.6545 43.4408 23 43.4408ZM12.8504 5.21023C10.0593 5.21023 7.49527 6.32415 5.62996 8.34703C3.73693 10.4005 2.69425 13.2389 2.69425 16.34C2.69425 19.6119 3.9103 22.5381 6.63684 25.8279C9.27214 29.0079 13.1919 32.3483 17.7304 36.2161L17.7388 36.2231C19.3255 37.5753 21.1241 39.1083 22.9961 40.7451C24.8793 39.1051 26.6807 37.5697 28.2705 36.2154C32.8087 32.3476 36.7281 29.0079 39.3634 25.8279C42.0896 22.5381 43.3057 19.6119 43.3057 16.34C43.3057 13.2389 42.263 10.4005 40.3699 8.34703C38.505 6.32415 35.9406 5.21023 33.1498 5.21023C31.1052 5.21023 29.2279 5.86019 27.5704 7.14187C26.0932 8.28456 25.0643 9.72908 24.461 10.7398C24.1507 11.2596 23.6046 11.5698 23 11.5698C22.3953 11.5698 21.8492 11.2596 21.5389 10.7398C20.936 9.72908 19.907 8.28456 18.4295 7.14187C16.772 5.86019 14.8947 5.21023 12.8504 5.21023Z" fill="#533A71"/>
<g clip-path="url(#clip1_326_710)">
<path d="M42.3507 6.52068C39.9695 3.93803 36.7022 2.51562 33.1498 2.51562C30.4945 2.51562 28.0628 3.3551 25.922 5.01054C24.8417 5.84615 23.8629 6.86848 23 8.06171C22.1373 6.86883 21.1582 5.84615 20.0776 5.01054C17.9371 3.3551 15.5054 2.51562 12.8501 2.51562C9.29776 2.51562 6.03005 3.93803 3.64884 6.52068C1.29606 9.07315 0 12.5602 0 16.34C0 20.2303 1.44978 23.7914 4.56237 27.5472C7.34682 30.9069 11.3487 34.3174 15.983 38.2667C17.5655 39.6154 19.3592 41.1441 21.2217 42.7726C21.7137 43.2035 22.3451 43.4408 23 43.4408C23.6545 43.4408 24.2862 43.2035 24.7775 42.7733C26.64 41.1445 28.4348 39.6151 30.0179 38.2656C34.6515 34.3171 38.6534 30.9069 41.4379 27.5469C44.5505 23.7914 45.9999 20.2303 45.9999 16.3396C45.9999 12.5602 44.7038 9.07315 42.3507 6.52068Z" fill="#533A71"/>
</g>
</g>
<defs>
<clipPath id="clip0_326_710">
<rect width="46" height="45.9999" fill="white"/>
</clipPath>
<clipPath id="clip1_326_710">
<rect width="45.9999" height="45.9999" fill="white"/>
</clipPath>
</defs>
</svg>
