<svg width="61" height="60" viewBox="0 0 61 60" fill="none" xmlns="http://www.w3.org/2000/svg">
<path d="M31.3641 1.48359C30.9784 0.82132 30.0216 0.821321 29.6359 1.48359L21.0233 16.2704C20.882 16.513 20.6453 16.6851 20.3709 16.7445L3.64631 20.3661C2.89725 20.5283 2.6016 21.4383 3.11226 22.0098L14.514 34.7702C14.701 34.9795 14.7915 35.2579 14.7632 35.5372L13.0394 52.5623C12.9622 53.3249 13.7362 53.8872 14.4376 53.5782L30.0968 46.6777C30.3537 46.5645 30.6463 46.5645 30.9032 46.6777L46.5624 53.5782C47.2638 53.8872 48.0378 53.3249 47.9606 52.5623L46.2368 35.5372C46.2085 35.2579 46.299 34.9795 46.486 34.7702L57.8877 22.0098C58.3984 21.4383 58.1027 20.5283 57.3537 20.3661L40.6291 16.7445C40.3547 16.6851 40.118 16.513 39.9767 16.2704L31.3641 1.48359Z" fill="#533A71"/>
<path d="M30.4997 1V46.6059C30.6371 46.6059 30.7745 46.6342 30.903 46.6908L46.5622 53.5913C47.2635 53.9003 48.0375 53.338 47.9603 52.5755L46.2365 35.5503C46.2083 35.271 46.2987 34.9926 46.4858 34.7833L57.8875 22.0229C58.3981 21.4514 58.1025 20.5414 57.3534 20.3792L40.6288 16.7576C40.3545 16.6982 40.1177 16.5261 39.9764 16.2835L31.3638 1.4967C31.171 1.16557 30.8353 1 30.4997 1Z" fill="#D9D9D9"/>
</svg>
