<svg width="61" height="60" viewBox="0 0 61 60" fill="none" xmlns="http://www.w3.org/2000/svg">
<path d="M29.6359 1.48359C30.0216 0.82132 30.9784 0.821321 31.3641 1.48359L39.9767 16.2704C40.118 16.513 40.3547 16.6851 40.6291 16.7445L57.3537 20.3661C58.1027 20.5283 58.3984 21.4383 57.8877 22.0098L46.486 34.7702C46.299 34.9795 46.2085 35.2579 46.2368 35.5372L47.9606 52.5623C48.0378 53.3249 47.2638 53.8872 46.5624 53.5782L30.9032 46.6777C30.6463 46.5645 30.3537 46.5645 30.0968 46.6777L14.4376 53.5782C13.7362 53.8872 12.9622 53.3249 13.0394 52.5623L14.7632 35.5372C14.7915 35.2579 14.701 34.9795 14.514 34.7702L3.11225 22.0098C2.6016 21.4383 2.89725 20.5283 3.64631 20.3661L20.3709 16.7445C20.6453 16.6851 20.882 16.513 21.0233 16.2704L29.6359 1.48359Z" fill="#533A71"/>
</svg>
