<svg xmlns="http://www.w3.org/2000/svg" version="1.1" xmlns:xlink="http://www.w3.org/1999/xlink" xmlns:svgjs="http://svgjs.com/svgjs" width="104" height="104"><svg width="104" height="104" viewBox="0 0 104 104" fill="none" xmlns="http://www.w3.org/2000/svg">
<rect width="104" height="104" rx="52" fill="url(#paint0_linear_817_3772)"></rect>
<path d="M75.3634 35.184C75.0034 35.112 74.0674 35.04 73.0594 34.896C70.8274 34.752 68.5234 34.896 66.2914 35.328C66.0034 29.784 62.0434 25.176 57.2914 25.176C53.2594 25.176 50.7394 29.208 49.5154 31.152C49.6594 29.424 49.8754 27.696 50.0914 25.968C50.1634 24.888 49.4434 24.096 48.0034 23.664C46.9234 23.376 45.8434 23.304 44.7634 23.52C44.0434 23.592 42.7474 23.952 42.3874 24.816C41.6674 26.256 39.9394 33.816 39.9394 51.168C39.9394 62.688 41.5234 78.816 42.2434 80.832C42.5314 81.768 43.3954 82.272 44.5474 82.272C44.9074 82.272 45.2674 82.2 45.5554 82.128C46.7794 81.912 48.0034 81.12 47.9314 80.112C47.0674 70.968 47.2114 61.248 47.7154 51.456C48.0034 47.712 48.2914 43.968 48.5794 40.224C48.5794 40.152 48.5794 40.152 48.6514 40.152C49.2994 36.624 54.7714 27.984 57.2914 27.984C57.2914 27.984 58.5874 28.416 58.5874 35.184C58.5154 36.12 58.3714 37.056 58.1554 37.992C56.2114 38.928 54.4114 40.152 52.8274 41.592C49.7314 44.4 48.0754 47.712 47.8594 51.456C47.8594 51.744 47.8594 51.96 47.8594 52.248C47.8594 54.768 49.5154 56.208 52.3234 56.208C55.4914 56.208 58.9474 54.12 61.6834 50.448C64.4194 46.848 66.0034 42.24 66.2914 37.416C69.1714 36.768 72.1234 36.48 75.1474 36.408C75.8674 36.408 76.0114 35.976 76.0114 35.832C76.0114 35.616 75.8674 35.256 75.3634 35.184ZM51.3874 53.544C51.3154 53.328 51.0994 52.68 51.0994 51.384C51.0994 46.992 53.2594 43.392 57.5794 40.8C56.2834 46.128 53.9074 53.4 51.3874 53.544Z" fill="white"></path>
<circle cx="63.3274" cy="78.1231" r="4" fill="white"></circle>
<defs>
<linearGradient id="SvgjsLinearGradient1000" x1="52" y1="0" x2="52" y2="104" gradientUnits="userSpaceOnUse">
<stop stop-color="#C6426E"></stop>
<stop offset="1" stop-color="#533A71"></stop>
</linearGradient>
</defs>
</svg><style>@media (prefers-color-scheme: light) { :root { filter: none; } }
</style></svg>