<svg width="17" height="16" viewBox="0 0 17 16" fill="none" xmlns="http://www.w3.org/2000/svg">
<g id="filter 1" clip-path="url(#clip0_326_807)">
<path id="Vector" d="M3.76145 15.5L3.76145 7.88734C4.80579 7.65791 5.58982 6.72528 5.58982 5.61303C5.58982 4.50078 4.80582 3.56816 3.76145 3.33872L3.76145 0.5C3.76145 0.223875 3.53757 -1.13845e-07 3.26145 -1.01775e-07C2.98532 -8.97053e-08 2.76145 0.223875 2.76145 0.5L2.76145 3.33897C1.71764 3.56884 0.933105 4.50275 0.933105 5.61303C0.933105 6.72391 1.71751 7.65738 2.76145 7.88716L2.76145 15.5C2.76145 15.7761 2.98532 16 3.26145 16C3.53757 16 3.76145 15.7761 3.76145 15.5ZM3.26276 6.94134C3.26098 6.94134 3.25917 6.94131 3.25739 6.94131C2.52717 6.93912 1.93314 6.34328 1.93314 5.61303C1.93314 4.88381 2.52635 4.28794 3.25623 4.28478L3.26357 4.28469C3.99504 4.28584 4.58985 4.88128 4.58985 5.61303C4.58986 6.34447 3.99564 6.93972 3.26461 6.94137L3.26276 6.94134ZM14.1202 0.499999L14.1202 3.33897C13.0764 3.56887 12.2919 4.50275 12.2919 5.61303C12.2919 6.72391 13.0763 7.65737 14.1202 7.88716L14.1202 15.5C14.1202 15.7761 14.3441 16 14.6202 16C14.8964 16 15.1202 15.7761 15.1202 15.5L15.1202 7.88734C16.1646 7.6579 16.9486 6.72528 16.9486 5.61303C16.9486 4.50078 16.1646 3.56816 15.1202 3.33872L15.1202 0.499999C15.1202 0.223874 14.8964 -6.10354e-07 14.6202 -5.98283e-07C14.3441 -5.86212e-07 14.1202 0.223874 14.1202 0.499999ZM15.9486 5.61303C15.9486 6.34447 15.3544 6.93972 14.6234 6.94137L14.6215 6.94134C14.6197 6.94134 14.6179 6.94131 14.6162 6.94131C13.8859 6.93912 13.2919 6.34328 13.2919 5.61303C13.2919 4.88381 13.8851 4.28794 14.6149 4.28478L14.6223 4.28469C15.3539 4.28575 15.9486 4.88122 15.9486 5.61303ZM8.44085 0.5L8.44086 8.11266C7.39651 8.34209 6.61251 9.27472 6.61251 10.387C6.61251 11.4992 7.39651 12.4318 8.44086 12.6613L8.44086 15.5C8.44086 15.7761 8.66473 16 8.94086 16C9.21701 16 9.44086 15.7761 9.44086 15.5L9.44085 12.661C10.4846 12.4311 11.2692 11.4972 11.2692 10.387C11.2692 9.27609 10.4848 8.34262 9.44085 8.11284L9.44085 0.5C9.44085 0.223875 9.21701 -3.62101e-07 8.94085 -3.5003e-07C8.66473 -3.3796e-07 8.44085 0.223875 8.44085 0.5ZM8.93954 9.05866C8.94136 9.05866 8.94314 9.05869 8.94492 9.05869C9.67514 9.06088 10.2692 9.65672 10.2692 10.387C10.2692 11.1162 9.67595 11.7121 8.9461 11.7152L8.93879 11.7153C8.20723 11.7142 7.61251 11.1187 7.61251 10.387C7.61251 9.65553 8.2067 9.06028 8.93776 9.05862L8.93954 9.05866Z" fill="#212121"/>
</g>
<defs>
<clipPath id="clip0_326_807">
<rect width="16" height="16" fill="white" transform="translate(0.940918 16) rotate(-90)"/>
</clipPath>
</defs>
</svg>
