<svg width="65" height="66" viewBox="0 0 65 66" fill="none" xmlns="http://www.w3.org/2000/svg">
<path d="M62.9688 33C62.9688 35.6 59.7746 37.743 59.1348 40.1398C58.4746 42.618 60.1453 46.0711 58.891 48.2395C57.6164 50.4434 53.7824 50.7074 51.9949 52.4949C50.2074 54.2824 49.9434 58.1164 47.7395 59.391C45.5711 60.6453 42.118 58.9746 39.6398 59.6348C37.243 60.2746 35.1 63.4688 32.5 63.4688C29.9 63.4688 27.757 60.2746 25.3602 59.6348C22.882 58.9746 19.4289 60.6453 17.2605 59.391C15.0566 58.1164 14.7926 54.2824 13.0051 52.4949C11.2176 50.7074 7.38359 50.4434 6.10898 48.2395C4.85469 46.0711 6.52539 42.618 5.86523 40.1398C5.22539 37.743 2.03125 35.6 2.03125 33C2.03125 30.4 5.22539 28.257 5.86523 25.8602C6.52539 23.382 4.85469 19.9289 6.10898 17.7605C7.38359 15.5566 11.2176 15.2926 13.0051 13.5051C14.7926 11.7176 15.0566 7.88359 17.2605 6.60898C19.4289 5.35469 22.882 7.02539 25.3602 6.36523C27.757 5.72539 29.9 2.53125 32.5 2.53125C35.1 2.53125 37.243 5.72539 39.6398 6.36523C42.118 7.02539 45.5711 5.35469 47.7395 6.60898C49.9434 7.88359 50.2074 11.7176 51.9949 13.5051C53.7824 15.2926 57.6164 15.5566 58.891 17.7605C60.1453 19.9289 58.4746 23.382 59.1348 25.8602C59.7746 28.257 62.9688 30.4 62.9688 33Z" fill="#72509C"/>
<g clip-path="url(#clip0_14518_15678)">
<path d="M41.7898 46.2931H41.3675V44.4854C41.3675 40.7051 39.5103 37.0831 36.403 34.8037C35.5223 34.1605 35.5157 32.8509 36.4063 32.1978C39.5104 29.9151 41.3676 26.2963 41.3676 22.5161V20.7083H41.7898C42.664 20.7083 43.3765 19.9893 43.3765 19.1051C43.3765 18.221 42.664 17.502 41.7898 17.502H24.2078C23.3337 17.502 22.6211 18.221 22.6211 19.1051C22.6211 19.9893 23.3336 20.7083 24.2078 20.7083H24.63V22.516C24.63 26.2963 26.4839 29.915 29.5913 32.1977C30.4787 32.8475 30.4753 34.1571 29.5946 34.8036C26.4872 37.0831 24.6301 40.705 24.6301 44.4853V46.293H24.2078C23.3337 46.293 22.6212 47.0121 22.6212 47.8962C22.6212 48.7803 23.3337 49.4994 24.2078 49.4994H41.7899C42.664 49.4994 43.3766 48.7803 43.3766 47.8962C43.3766 47.0121 42.664 46.2931 41.7898 46.2931ZM25.6196 44.4854C25.6196 41.0185 27.325 37.6966 30.1817 35.602C31.5968 34.5629 31.6068 32.4452 30.1784 31.3995C27.325 29.3048 25.6196 25.983 25.6196 22.5161V20.7083H40.378V22.516C40.378 25.983 38.6725 29.3048 35.8192 31.3994C34.3941 32.4451 34.3974 34.5595 35.8158 35.602C38.6725 37.6966 40.378 41.0185 40.378 44.4853V46.293H25.6196V44.4854Z" fill="white"/>
<path d="M36.8651 40.5177C36.6598 40.3488 36.4447 40.1949 36.2213 40.0564C34.554 39.0229 33.4923 37.2471 33.4923 35.2854V31.7112C33.4923 31.1154 33.8597 30.5659 34.4262 30.3813C35.1208 30.1551 35.7599 29.7644 36.2848 29.2301C36.4899 29.0214 36.6807 28.8022 36.8645 28.5781H29.1307C29.3145 28.8021 29.5053 29.0214 29.7103 29.2301C30.2352 29.7643 30.8742 30.1551 31.5688 30.3812C32.1353 30.5657 32.5027 31.1153 32.5027 31.7112V35.2854C32.5027 37.2471 31.441 39.0228 29.7737 40.0564C29.5503 40.1948 29.3352 40.3486 29.1299 40.5176C27.728 41.6713 26.9414 43.1107 26.9414 44.6316V44.9375L39.0537 44.9376V44.6316C39.0537 43.1109 38.2671 41.6716 36.8651 40.5177Z" fill="white"/>
</g>
<defs>
<clipPath id="clip0_14518_15678">
<rect width="32" height="32" fill="white" transform="translate(17 17.5)"/>
</clipPath>
</defs>
</svg>
