<svg width="65" height="66" viewBox="0 0 65 66" fill="none" xmlns="http://www.w3.org/2000/svg">
<path d="M62.9688 33C62.9688 35.6 59.7746 37.743 59.1348 40.1398C58.4746 42.618 60.1453 46.0711 58.891 48.2395C57.6164 50.4434 53.7824 50.7074 51.9949 52.4949C50.2074 54.2824 49.9434 58.1164 47.7395 59.391C45.5711 60.6453 42.118 58.9746 39.6398 59.6348C37.243 60.2746 35.1 63.4688 32.5 63.4688C29.9 63.4688 27.757 60.2746 25.3602 59.6348C22.882 58.9746 19.4289 60.6453 17.2605 59.391C15.0566 58.1164 14.7926 54.2824 13.0051 52.4949C11.2176 50.7074 7.38359 50.4434 6.10898 48.2395C4.85469 46.0711 6.52539 42.618 5.86523 40.1398C5.22539 37.743 2.03125 35.6 2.03125 33C2.03125 30.4 5.22539 28.257 5.86523 25.8602C6.52539 23.382 4.85469 19.9289 6.10898 17.7605C7.38359 15.5566 11.2176 15.2926 13.0051 13.5051C14.7926 11.7176 15.0566 7.88359 17.2605 6.60898C19.4289 5.35469 22.882 7.02539 25.3602 6.36523C27.757 5.72539 29.9 2.53125 32.5 2.53125C35.1 2.53125 37.243 5.72539 39.6398 6.36523C42.118 7.02539 45.5711 5.35469 47.7395 6.60898C49.9434 7.88359 50.2074 11.7176 51.9949 13.5051C53.7824 15.2926 57.6164 15.5566 58.891 17.7605C60.1453 19.9289 58.4746 23.382 59.1348 25.8602C59.7746 28.257 62.9688 30.4 62.9688 33Z" fill="#72509C"/>
<path d="M39.7428 34.2676C36.5322 34.3444 36.5268 39.0505 39.7364 39.1358C42.9471 39.058 42.9514 34.354 39.7428 34.2676ZM38.9055 36.7049C38.9066 35.6126 40.5674 35.6084 40.5738 36.7006C40.5695 37.7897 38.914 37.794 38.9055 36.7049Z" fill="white"/>
<path d="M33.3408 32.7335C36.5504 32.6524 36.5504 27.9463 33.3408 27.8652C30.1301 27.9474 30.1323 32.6503 33.3408 32.7335ZM33.3408 29.4663C34.432 29.4706 34.432 31.1303 33.3408 31.1346C32.2496 31.1292 32.2507 29.4727 33.3408 29.4663Z" fill="white"/>
<path d="M41.736 28.314C41.4234 28.0004 40.9146 27.9993 40.601 28.3119L31.3317 37.5375C31.0128 37.8436 31.0032 38.3503 31.3093 38.6681C31.6218 38.9945 32.1456 38.9956 32.4602 38.6713L41.7306 29.4468C42.0453 29.1353 42.0474 28.6287 41.736 28.314Z" fill="white"/>
<path d="M26.4406 28.7402C25.999 28.7402 25.6406 29.0986 25.6406 29.5402V31.5914C25.6406 32.033 25.999 32.3914 26.4406 32.3914C26.8822 32.3914 27.2406 32.033 27.2406 31.5914V29.5402C27.2406 29.0986 26.8822 28.7402 26.4406 28.7402Z" fill="white"/>
<path d="M26.4406 34.6113C25.999 34.6113 25.6406 34.9697 25.6406 35.4113V37.4615C25.6406 37.9031 25.999 38.2615 26.4406 38.2615C26.8822 38.2615 27.2406 37.9031 27.2406 37.4615V35.4113C27.2406 34.9697 26.8822 34.6113 26.4406 34.6113Z" fill="white"/>
<path d="M47.2699 30.8574C48.1734 30.3731 48.7355 29.4291 48.7323 28.4041V25.6606C48.7302 24.1193 47.4822 22.8713 45.9409 22.8691H20.0571C18.5158 22.8713 17.2678 24.1193 17.2656 25.6606V28.4019C17.2624 29.427 17.8246 30.371 18.728 30.8553C20.1883 31.6371 20.7387 33.4547 19.9568 34.915C19.6774 35.4366 19.2496 35.8643 18.728 36.1438C17.8235 36.6291 17.2614 37.5731 17.2656 38.5993V41.3406C17.2678 42.8819 18.5158 44.1299 20.0571 44.1321H45.9409C47.4822 44.1299 48.7302 42.8819 48.7323 41.3406V38.5993C48.7355 37.5742 48.1734 36.6302 47.2699 36.1459C45.175 35.0974 45.191 31.9059 47.2699 30.8574ZM44.6353 35.6702C45.063 36.4691 45.7179 37.1241 46.5169 37.5518C46.8998 37.7587 47.1366 38.1598 47.1323 38.595V41.3363C47.1313 41.9945 46.599 42.5267 45.9409 42.5278H27.239C27.1953 41.8345 27.5142 40.5075 26.439 40.4809C25.3627 40.5065 25.6827 41.8398 25.639 42.5321H20.0571C19.399 42.531 18.8667 41.9987 18.8656 41.3406V38.5993C18.8614 38.1641 19.0982 37.763 19.4811 37.5561C21.72 36.3571 22.5616 33.5699 21.3627 31.331C20.935 30.5321 20.28 29.8771 19.4811 29.4494C19.0982 29.2425 18.8614 28.8414 18.8656 28.4062V25.6606C18.8667 25.0025 19.399 24.4702 20.0571 24.4691H25.639C25.6827 25.1635 25.3617 26.4937 26.439 26.5203C27.5153 26.4947 27.1953 25.1614 27.239 24.4691H45.9409C46.599 24.4702 47.1313 25.0025 47.1323 25.6606V28.4019C47.1366 28.8371 46.8998 29.2382 46.5169 29.4451C44.2779 30.6441 43.4353 33.4313 44.6353 35.6702Z" fill="white"/>
</svg>
