<svg width="69" height="69" viewBox="0 0 69 69" fill="none" xmlns="http://www.w3.org/2000/svg">
<g clip-path="url(#clip0_3042_9765)">
<path d="M41.875 45.6521V45.6377L42.7458 45.5242L50.0184 44.5765L50.0866 44.5676L50.1554 44.5682C51.6936 44.5803 53.1743 45.0027 54.2924 45.9068C54.7455 46.2732 55.1267 46.7093 55.4221 47.2086C55.4285 47.1922 55.435 47.1757 55.4416 47.1593C55.7527 46.3816 56.2105 45.6729 56.7901 45.0742C57.3697 44.4755 58.06 43.9986 58.822 43.6722C59.5842 43.3457 60.4025 43.1765 61.2298 43.175H61.2316C64.7168 43.175 67.4998 46.0744 67.5 49.6053L41.875 45.6521ZM41.875 45.6521H41.5625H26.7778L28.2083 44.0869L29.1822 43.0213M41.875 45.6521L29.1822 43.0213M64.4652 55.1119C65.1084 55.1583 65.6538 55.3613 66.0985 55.6817C66.5974 56.0412 66.9121 56.5069 67.11 56.9309C67.307 57.353 67.4019 57.7621 67.449 58.0568C67.4729 58.2066 67.4855 58.3334 67.4922 58.4264C67.4956 58.473 67.4975 58.5116 67.4986 58.5408C67.4991 58.5554 67.4995 58.5677 67.4997 58.5775L67.4999 58.5904L67.4999 58.5955L67.5 58.5976L67.5 58.5986C67.5 58.5991 67.5 58.5996 66.5 58.6059L67.5 58.5996L67.5 58.6059L67.5 59.9153V60.0416L67.4686 60.1639C67.2921 60.8517 66.89 61.4622 66.3229 61.8898C65.7623 62.3124 65.0752 62.5296 64.374 62.5015H42.875H42.5625H41.875H41.5625H3.5H2.5V61.5015V49.0496C2.5 47.9349 2.9502 47.0465 3.67584 46.4568C4.37364 45.8896 5.25664 45.6521 6.08169 45.6521H16.835L16.8351 45.3019L16.8391 32.6624L18.6812 32.2935L17.165 28.4581L17.1611 28.4481L17.1611 28.448C16.6084 27.0045 16.6032 24.9569 17.372 23.2418C18.1756 21.4491 19.843 20.0033 22.5168 20.0033H23.8177C21.3622 18.9273 19.6596 16.4192 19.6596 13.5327C19.6596 9.68041 22.6921 6.50391 26.4989 6.50391C30.309 6.50391 33.3369 9.681 33.3369 13.5327C33.3369 16.4188 31.6368 18.9272 29.1812 20.0033H30.3918C32.9221 20.0033 34.3283 21.1117 34.9737 21.7772L34.9816 21.7854L34.9893 21.7937C35.2201 22.0428 37.3307 24.4641 39.056 26.4436C39.9725 27.4951 40.7804 28.4219 41.1401 28.8322C41.6217 29.2678 41.9659 29.8361 42.1337 30.4652L42.1388 30.4844L42.1431 30.5037L44.0099 38.8163C44.2688 39.6363 44.2108 40.5279 43.8452 41.3075C43.4716 42.1044 42.8032 42.7262 41.977 43.0285L41.9712 43.0306C41.5594 43.1784 41.1224 43.241 40.6857 43.2143C40.2491 43.1876 39.8229 43.0722 39.432 42.8757L39.8811 41.9822L39.4319 42.8756C39.0411 42.6792 38.6938 42.4059 38.4094 42.073L39.1697 41.4234L38.4094 42.073C38.1251 41.7402 37.9089 41.3543 37.7722 40.9381L37.7524 40.8778L37.7404 40.8155L36.1492 32.5713L34.6875 31.6769V36.5371V37.9477L34.7622 37.9767L34.7901 37.9876L34.8173 38C35.6184 38.3677 36.2373 39.0417 36.5484 39.867C36.8592 40.6915 36.8409 41.6077 36.4969 42.4189L64.4652 55.1119ZM64.4652 55.1119C64.903 54.8415 65.3102 54.5154 65.676 54.1384C66.8477 52.9308 67.5007 51.3001 67.5 49.6058L64.4652 55.1119ZM29.1822 43.0213L32.1838 44.1656C32.5728 44.3364 32.9912 44.4292 33.416 44.438C33.8518 44.4471 34.2844 44.3675 34.6887 44.2047C35.093 44.042 35.4603 43.7995 35.7702 43.4926C36.08 43.1859 36.3265 42.8208 36.4968 42.4191L29.1822 43.0213ZM52.9478 55.1017C54.1072 54.5236 55.0451 53.5858 55.5933 52.3941C56.119 53.5131 56.9513 54.456 57.9823 55.1017H52.9478ZM55.1233 49.9095C55.1232 49.8072 55.1203 49.7067 55.1145 49.6079L55.1233 49.9095Z" stroke="black" stroke-width="2"/>
</g>
<defs>
<clipPath id="clip0_3042_9765">
<rect width="68" height="68" fill="white" transform="translate(0.5 0.503906)"/>
</clipPath>
</defs>
</svg>
