<svg width="63" height="71" viewBox="0 0 63 71" fill="none" xmlns="http://www.w3.org/2000/svg">
<path d="M59.9296 49.7245C58.485 46.8645 56.7994 44.1247 55.1814 41.3523C52.7171 37.1268 50.2198 32.9201 47.7208 28.6808C48.3139 28.1603 48.5931 27.5299 48.5654 26.7415C48.3417 20.5715 45.5548 15.865 40.3349 12.5378C40.1146 12.3969 39.8944 12.2578 39.6915 12.1272C40.4684 8.39808 39.3082 5.13443 36.3774 3.1333C33.4414 1.12873 30.2991 0.939784 27.2417 2.7554C23.6658 4.88193 22.5143 8.15073 23.2756 12.1633C23.1126 12.2646 22.9426 12.3677 22.7744 12.4742C17.6672 15.6674 14.8352 20.2108 14.452 26.2142C14.3913 27.1486 14.4121 28.0435 15.2879 28.6447C15.111 28.9522 14.9705 29.2013 14.8248 29.4469C11.3183 35.4005 7.82906 41.3627 4.29824 47.3008C2.76694 49.8756 1.82873 52.6102 1.54606 55.5939C1.16974 59.5601 3.11898 63.0487 6.67929 64.5672C7.14405 64.7647 7.63136 64.9073 8.1152 65.0774C8.06838 65.6631 8.02329 66.2128 7.98341 66.7624C7.87069 68.2843 8.18977 68.8477 9.53031 69.5039H10.4668C11.5541 69.0435 11.9599 68.2328 12.0137 67.0613C12.2339 62.2809 14.4329 58.605 18.5187 56.0508C21.6298 54.1081 24.7444 52.1705 27.8799 50.2673C28.8163 49.6987 29.2568 48.9635 29.2204 47.8745C29.177 46.5312 29.21 45.1846 29.21 43.8447H33.7848C33.7848 45.0403 33.8507 46.2959 33.7675 47.543C33.6773 48.9017 34.2201 49.7502 35.3994 50.4459C38.4429 52.2426 41.4257 54.139 44.4241 56.0096C48.5324 58.5724 50.7609 62.2534 50.9794 67.063C51.0332 68.2362 51.4424 69.0435 52.5298 69.5039H53.4662C54.8085 68.8443 55.1241 68.2843 55.0114 66.7624C54.9698 66.1939 54.9282 65.627 54.8883 65.0928C54.9559 65.043 54.9715 65.0258 54.9906 65.019C55.0964 64.9829 55.2022 64.9502 55.308 64.9159C58.8076 63.7977 60.9233 61.4581 61.3898 57.8389C61.754 55.0133 61.2025 52.2461 59.9296 49.7245ZM44.3201 25.1354C42.3344 25.0238 40.3678 25.1131 38.488 24.7593C35.5919 24.213 33.5732 21.5626 33.516 18.6356C33.4883 17.2031 33.5108 15.7705 33.5108 14.3396C38.0041 14.1077 44.3097 20.3224 44.3201 25.1354ZM29.0678 6.28873C30.6286 5.27357 32.2865 5.25811 33.8629 6.24751C35.4375 7.23347 36.0809 8.71242 35.8884 10.65C32.9697 9.93887 30.0806 9.90451 27.1064 10.6655C26.9122 8.75021 27.5348 7.285 29.0678 6.28873ZM29.4164 14.2933C29.4164 16.0247 29.5898 17.7235 29.3799 19.3725C28.9828 22.5005 26.6677 24.6665 23.5097 24.9568C21.9212 25.1028 20.3066 24.9826 18.706 24.9826C18.3591 20.6642 24.4999 14.544 29.4164 14.2933ZM24.6889 47.543C21.7131 49.3706 18.7285 51.1862 15.7925 53.0723C12.9085 54.924 10.7963 57.461 9.44707 60.5907C9.20081 61.1627 8.94588 61.1799 8.4499 60.9978C6.42609 60.254 5.33702 58.3439 5.55033 55.9323C5.75149 53.6718 6.4313 51.5779 7.59148 49.618C10.661 44.4374 13.708 39.243 16.7637 34.0538C16.8729 33.87 16.9943 33.6948 17.1868 33.3993C18.1736 36.3384 19.7274 38.7277 22.053 40.5691C22.8836 41.227 23.8184 41.7629 24.7375 42.3005C25.0739 42.4963 25.2075 42.687 25.2005 43.0701C25.1763 44.2639 25.171 45.4577 25.2023 46.6515C25.2144 47.0895 25.0549 47.318 24.6889 47.543ZM25.8595 38.3532C22.3807 36.2971 20.6968 33.1194 20.5876 28.9522C21.7044 28.9522 22.7501 29.0192 23.7837 28.9385C26.8376 28.6997 29.3002 27.3204 31.2269 24.9809C31.298 24.895 31.3691 24.8125 31.5078 24.6493C34.2687 28.26 38.0197 29.3352 42.4003 28.9694C42.3205 32.9442 40.7528 36.0412 37.4943 38.1334C33.712 40.5605 29.7268 40.6378 25.8595 38.3532ZM53.9865 61.106C53.0795 59.6528 52.2766 58.2014 51.3106 56.8615C49.958 54.9858 48.1405 53.5893 46.1653 52.3835C43.5432 50.786 40.9471 49.149 38.3249 47.5516C37.933 47.3128 37.7804 47.0603 37.7925 46.6051C37.8255 45.4113 37.7891 44.2175 37.8186 43.0237C37.8255 42.8107 37.9677 42.4946 38.1411 42.4053C41.8766 40.4935 44.3773 37.5476 45.7317 33.6227C45.7439 33.59 45.7924 33.5711 45.8704 33.5058C45.9901 33.6845 46.1167 33.8528 46.2225 34.0332C49.3024 39.2602 52.3772 44.4906 55.4606 49.7142C56.763 51.918 57.4566 54.2867 57.467 56.8392C57.474 58.9949 55.8178 60.9291 53.9865 61.106Z" fill="#111111" stroke="white" stroke-width="1.8" stroke-miterlimit="10"/>
<path d="M44.8939 69.504H43.9557C42.9013 69.102 42.4226 68.3411 42.3515 67.2229C42.2822 66.1098 41.337 65.2612 40.1994 65.2578C34.3985 65.2424 28.5976 65.2424 22.7967 65.2578C21.6591 65.2612 20.7122 66.1098 20.6428 67.2229C20.5735 68.3411 20.0931 69.1003 19.0404 69.504H18.1022C16.7131 68.774 16.3836 68.0817 16.6611 66.4722C17.1675 63.5349 19.7237 61.2985 22.7291 61.2813C28.5768 61.2487 34.4228 61.2487 40.2688 61.2813C43.2863 61.2985 45.8286 63.5246 46.3333 66.4722C46.6107 68.0817 46.283 68.7722 44.8939 69.504Z" fill="#111111" stroke="white" stroke-width="1.8" stroke-miterlimit="10"/>
</svg>
