<svg width="69" height="69" viewBox="0 0 69 69" fill="none" xmlns="http://www.w3.org/2000/svg">
<path d="M29.9784 68.4779H27.6956C27.6956 68.1862 27.6956 67.9204 27.6956 67.6482C27.6956 63.7267 27.7086 59.8116 27.6761 55.8901C27.6761 55.5141 27.4751 55.0928 27.2416 54.7817C26.7423 54.0946 26.1716 53.4658 25.6074 52.8241C25.4841 52.6815 25.2766 52.526 25.1145 52.526C23.7007 52.5389 22.287 52.6037 20.8797 52.6297C17.1572 52.701 14.0573 55.1641 13.2078 58.7875C13.0521 59.4486 13.0067 60.1422 13.0002 60.8228C12.9743 62.9034 13.0002 64.9777 12.9873 67.0583C12.9873 68.1149 12.5981 68.5038 11.5281 68.5038C8.3374 68.5038 5.15319 68.5038 1.96249 68.5038C0.905412 68.5038 0.522807 68.1149 0.522807 67.0454C0.522807 60.7191 0.503352 54.3863 0.522807 48.06C0.542262 42.4531 5.05594 37.9482 10.6656 37.9029C13.2402 37.8834 15.8083 37.9029 18.2792 37.9029C18.0003 36.3537 17.6436 34.8304 17.4685 33.2878C16.9173 28.5495 16.4633 23.7983 16.8005 19.0212C17.3842 10.6142 22.488 4.31379 30.5945 1.90253C34.8876 0.6256 39.2651 0.366326 43.701 0.567265C47.2094 0.72283 50.653 1.24786 53.9151 2.6285C60.6596 5.47404 64.3821 10.5947 64.9658 17.8479C65.1992 20.7259 65.063 23.6557 64.8166 26.5401C64.5248 29.9431 63.9346 33.3137 63.4742 36.7037C63.3834 37.3843 63.0527 37.8834 62.3134 37.8964C61.6 37.9093 61.3665 37.3908 61.1201 36.8009C59.3172 32.5294 57.203 28.4199 54.142 24.8873C51.4183 21.75 47.7996 20.0518 43.9344 18.8137C42.6763 18.4119 41.3857 18.1331 40.1211 17.7507C39.4791 17.5563 38.8955 17.5887 38.2729 17.822C35.5426 18.8591 32.7994 19.8703 30.0627 20.8879C27.2351 21.9445 25.108 23.8566 23.4803 26.3522C21.7228 29.0421 20.4971 31.9331 20.3803 35.1805C20.3479 35.9777 20.6333 36.7945 20.8278 37.5917C20.8602 37.7278 21.165 37.8834 21.3466 37.8899C22.3129 37.9223 23.2857 37.8899 24.252 37.9093C26.2754 37.9288 27.7215 39.3742 27.7345 41.4096C27.7475 43.9829 27.754 46.5562 27.728 49.1295C27.728 49.6156 27.6437 50.1406 27.4297 50.562C27.1897 51.0416 27.3195 51.3139 27.6113 51.6704C29.3299 53.7835 31.1781 55.7799 33.4674 57.2901C38.3831 60.5311 45.0109 60.0709 49.5246 56.1493C51.0032 54.8659 52.3716 53.4594 53.8502 52.0528C54.2782 52.4028 54.8295 52.8565 55.4456 53.3557C55.1408 53.7122 54.9073 54.0751 54.583 54.3344C53.8826 54.8983 53.7594 55.5984 53.7659 56.454C53.8048 60.1875 53.7854 63.9146 53.7854 67.6482V68.4584H51.5156V57.5818C44.343 63.1238 37.2093 63.0979 29.9913 57.6207V68.4843L29.9784 68.4779ZM19.3297 29.2496C19.8226 28.2578 20.1988 27.4476 20.6268 26.6698C22.6372 23.027 25.3934 20.1879 29.3687 18.6906C31.444 17.9128 33.4804 17.0377 35.588 16.3506C42.2288 14.1922 48.7205 11.6513 55.0435 8.68257C55.8671 8.29366 56.6777 7.8853 57.7348 7.37323C56.3989 6.563 55.277 5.79165 54.0707 5.18236C51.4702 3.86005 48.6686 3.2378 45.7827 2.97852C40.9123 2.53776 36.055 2.59609 31.3338 4.04803C24.4206 6.18056 20.2247 10.7179 19.2 18.0035C18.772 21.0176 19.012 24.0316 19.1676 27.0457C19.2 27.7133 19.2714 28.381 19.3362 29.2431L19.3297 29.2496ZM61.8659 32.8535C61.9372 32.4257 61.9956 32.1858 62.015 31.9395C62.2874 28.9773 62.5987 26.0216 62.8062 23.0594C62.9878 20.4407 62.9359 17.822 62.2874 15.2487C61.7232 13.006 60.7958 10.9383 59.3172 9.20112C56.6323 10.4262 54.0123 11.6578 51.3534 12.8115C48.688 13.9718 45.9837 15.0542 43.247 16.1886C43.5712 16.2988 43.8566 16.396 44.1484 16.4867C46.8138 17.3099 49.3754 18.373 51.7425 19.8768C55.3029 22.1325 57.7283 25.3734 59.7517 28.9708C60.4391 30.2024 61.1006 31.4469 61.8594 32.8535H61.8659ZM19.7577 40.2104C19.654 40.1845 19.5891 40.1586 19.5243 40.1586C16.4568 40.1586 13.3829 40.1002 10.3219 40.178C6.54102 40.2752 3.34383 43.2893 2.89636 47.0812C2.87041 47.321 3.01311 47.6775 3.20118 47.8331C3.99885 48.5331 4.83544 49.1878 5.67851 49.836C7.57866 51.3139 8.48658 53.2584 8.47361 55.6632C8.45415 58.9171 8.47361 62.1775 8.47361 65.4314V66.1768H10.7434C10.7434 64.2646 10.7175 62.3784 10.7434 60.4987C10.8083 57.0309 12.2739 54.2761 15.056 52.2278C16.4503 51.2037 18.0327 50.6333 19.7642 50.3999V40.1974L19.7577 40.2104ZM6.17139 66.1962C6.17139 62.3914 6.2427 58.6449 6.14542 54.9048C6.08706 52.7658 4.43984 51.6639 2.83152 50.549V66.1962H6.17139ZM22.0859 50.3545C22.8706 50.3545 23.5775 50.374 24.2779 50.3545C24.9913 50.3286 25.4388 49.9073 25.4452 49.2008C25.4647 46.5626 25.4582 43.9245 25.4452 41.2864C25.4452 40.6965 25.1015 40.2558 24.5244 40.2039C23.7202 40.1261 22.8966 40.1845 22.0794 40.1845V50.361L22.0859 50.3545Z" fill="black"/>
<path d="M55.7116 40.503C55.1345 40.7688 54.7389 40.9503 54.2979 41.1512C53.9671 40.503 53.6559 39.8808 53.3057 39.1872C53.5002 39.077 53.6623 38.9603 53.8439 38.8761C55.1085 38.2408 56.3667 37.5991 57.6377 36.9769C58.5586 36.5231 59.2136 36.8148 59.4666 37.7936C59.8362 39.2066 60.1799 40.6262 60.5626 42.1429C59.8427 42.3244 59.1423 42.5059 58.39 42.6939C58.2603 42.2272 58.1371 41.7799 57.9814 41.2095C56.1332 44.1588 54.0774 46.758 50.7051 48.0674C50.5041 47.3155 50.3225 46.6219 50.1279 45.8895C52.5728 44.7746 54.2266 42.8624 55.7311 40.4901L55.7116 40.503Z" fill="black"/>
<path d="M63.436 45.1235C63.0599 45.305 62.6837 45.4865 62.2363 45.7004C61.9055 45.0328 61.5813 44.3975 61.2181 43.678C62.8264 42.8873 64.3699 42.09 65.9458 41.364C66.4905 41.1112 67.1261 41.4353 67.3012 42.0446C67.7292 43.5549 68.0924 45.0846 68.5009 46.6792C67.7551 46.8671 67.0742 47.0357 66.3284 47.2236C66.1987 46.7634 66.069 46.3227 65.9523 45.9143C64.9276 47.1977 63.9419 48.5395 62.8329 49.7645C61.7045 51.0155 60.3426 51.9878 58.6241 52.5841C58.4295 51.8582 58.2414 51.1646 58.0469 50.4322C60.4853 49.3238 62.1455 47.4051 63.436 45.117V45.1235Z" fill="black"/>
<path d="M24.7057 35.3118C25.205 34.793 25.7109 34.2676 26.2102 33.7488C29.8419 36.5506 33.2077 35.928 35.8536 33.8071C36.353 34.326 36.8459 34.8514 37.3453 35.3767C34.3491 38.5028 28.506 39.0022 24.6992 35.3118H24.7057Z" fill="black"/>
<path d="M54.078 33.7427C54.5903 34.281 55.0767 34.7869 55.5631 35.2993C52.4502 38.5357 46.6071 38.9832 42.8457 35.3187C43.3451 34.7934 43.8509 34.2745 44.3503 33.7492C47.8847 36.4926 51.2569 35.9997 54.078 33.7427Z" fill="black"/>
<path d="M45.478 50.3878C45.7504 51.2115 45.9709 51.8731 46.1849 52.5281C42.5532 54.1172 38.9734 54.1236 35.3223 52.5281C35.5492 51.8601 35.7763 51.1856 36.0421 50.3813C39.1874 51.8147 42.3068 51.8017 45.4715 50.3878H45.478Z" fill="black"/>
<path d="M16.4372 46.1048C16.3853 46.6428 16.3918 47.1938 16.2621 47.7058C15.9184 49.0541 14.6473 49.9097 13.2854 49.78C11.904 49.6439 10.8016 48.5031 10.7367 47.103C10.7043 46.4419 10.7043 45.7807 10.7367 45.126C10.8016 43.6093 12.0467 42.4296 13.5513 42.4231C15.0559 42.4231 16.301 43.5963 16.3853 45.1066C16.4048 45.4372 16.3853 45.7678 16.3853 46.0983C16.4048 46.0983 16.4242 46.0983 16.4372 46.0983V46.1048ZM12.9871 46.1243C12.9871 46.3835 12.9157 46.6687 13.0065 46.8891C13.1038 47.1289 13.3502 47.3104 13.5318 47.5178C13.7264 47.3234 14.0571 47.1549 14.0895 46.941C14.1674 46.39 14.1609 45.8131 14.0895 45.2622C14.0636 45.0612 13.7588 44.8927 13.5772 44.7047C13.3827 44.8992 13.1103 45.0547 13.013 45.2881C12.9157 45.5279 12.9935 45.839 12.9871 46.1243Z" fill="black"/>
</svg>
