<svg width="69" height="69" viewBox="0 0 69 69" fill="none" xmlns="http://www.w3.org/2000/svg">
<path d="M58.2897 68.436L58.1779 67.4106C57.768 63.5811 56.5507 60.3507 54.4577 57.5279C53.2467 55.8973 51.576 54.804 49.0297 53.9825L47.8124 53.5872V53.649C47.7317 53.5378 47.6385 53.4451 47.5329 53.3648C47.4957 53.3278 47.4522 53.2969 47.4025 53.266C47.4025 53.266 47.3984 53.2639 47.3901 53.2598C47.3404 53.2289 47.2969 53.2042 47.2472 53.1795C46.0983 52.6669 44.9431 52.1727 43.7258 51.6539L41.1546 50.5544C41.1546 50.5544 41.1298 50.5174 41.1174 50.505C41.0739 50.4556 41.0366 50.4062 40.9932 50.363C40.9807 50.3444 40.9683 50.3321 40.9559 50.3259C40.9124 50.2703 40.8627 50.2271 40.8068 50.1838C39.7821 49.3315 38.7449 48.4852 37.6705 47.6082L36.4408 46.5952L36.565 46.5025L36.1551 45.786C36.0433 45.5946 35.9377 45.4031 35.8322 45.2178C35.5465 44.7113 35.2732 44.2357 34.9627 43.7663C34.8695 43.6304 34.7329 43.4945 34.5714 43.3833C34.5279 43.3524 34.4845 43.3215 34.4348 43.2968C34.4037 43.2783 34.3665 43.2536 34.323 43.2351C39.4405 41.6785 43.1669 36.9348 43.3035 31.4314C43.3718 28.7569 43.3594 26.0392 43.3532 23.4141C43.347 21.8884 43.3408 20.3566 43.347 18.831C43.3532 18.4542 43.26 18.1639 43.1296 17.9353C43.2228 17.9662 43.3221 17.9909 43.4153 18.0156C43.6637 18.0836 43.9059 18.1515 44.1606 18.2071C44.2041 18.2195 44.2413 18.2318 44.2848 18.2318C44.5084 18.2874 44.732 18.3307 44.9555 18.3677C44.999 18.3801 45.0425 18.3862 45.086 18.3862C45.2598 18.4171 45.4337 18.448 45.6076 18.4665C45.7256 18.4851 45.8499 18.4974 45.9741 18.5098C46.2225 18.5407 46.4709 18.5592 46.7256 18.5777L47.5826 18.6271L47.7068 17.7871C48.3652 13.3214 46.6697 8.34295 43.2787 4.78518C40.4404 1.80801 36.8569 0.276189 33.4349 0.5912L32.7206 0.652971L32.6958 0.529429H31.9008C31.3978 0.529429 30.9009 0.52326 30.3979 0.517083C29.3297 0.50473 28.2242 0.486205 27.1311 0.541795C19.8709 0.900043 13.6603 7.00878 13.2877 14.1552C13.151 16.8112 13.1635 19.5042 13.1759 22.1108C13.1821 23.272 13.1945 24.4332 13.1821 25.5883C13.1821 25.7674 13.2194 25.9033 13.2504 25.9959L13.5299 26.9904L13.7348 26.9348C13.3995 27.2374 13.2256 27.5648 13.2131 27.923C13.1759 29.0534 13.1759 30.1652 13.1821 31.3388V33.4388L14.1634 33.3832C14.3248 33.3771 14.4739 33.3709 14.623 33.3647C14.9459 33.3524 15.2502 33.34 15.5483 33.3091C16.2936 33.2226 17.0327 33.0991 17.7531 32.9324L17.9767 33.828C18.0264 34.0503 18.0885 34.2912 18.1568 34.5321C19.43 38.8867 22.8147 42.0924 26.9821 43.2845C26.9324 43.3092 26.8889 43.3339 26.8454 43.3586C26.7709 43.3956 26.7088 43.4451 26.6467 43.4945C26.5846 43.5439 26.5287 43.5933 26.479 43.6551C26.1374 44.0566 25.8269 44.4642 25.5039 44.8966L24.6531 46.0207L24.6407 46.0331L23.3737 47.2932C22.5228 48.1455 21.6906 48.967 20.8708 49.8071C20.8087 49.8688 20.7466 49.9429 20.6907 50.0171C20.6472 50.0727 20.6038 50.1344 20.5727 50.2024C20.5354 50.2518 20.5106 50.3012 20.4858 50.3506C20.4485 50.4185 20.4174 50.4865 20.3926 50.5544L19.0573 51.1289C18.6288 51.3142 18.2065 51.4995 17.7841 51.6848C16.747 52.1357 15.7657 52.568 14.7658 52.9572C14.3186 53.1301 14.0267 53.3648 13.8404 53.6243V53.0375L12.4555 53.8096C12.0393 54.0381 11.6232 54.2419 11.2133 54.4396C10.3066 54.8843 9.36258 55.3414 8.59246 56.027C4.88473 59.3192 3.84135 63.822 3.35071 67.3797L3.20166 68.436H24.3301L24.2059 68.263C24.355 68.3309 24.504 68.3865 24.6593 68.4236C24.8083 68.4607 24.9574 68.4792 25.1064 68.4792C26.9758 68.4977 28.9073 68.5039 30.8761 68.5039C32.8449 68.5039 34.6521 68.4977 36.5836 68.4854C36.6582 68.4854 36.7389 68.4792 36.8196 68.4669C36.8942 68.4607 36.9749 68.4421 37.0494 68.4236C37.1177 68.4113 37.1861 68.3927 37.2544 68.3618C37.273 68.3618 37.2979 68.3495 37.3227 68.3433C37.36 68.331 37.391 68.3124 37.4283 68.3062H37.4345L37.4407 68.3001H37.4345L37.3351 68.436H58.2897ZM49.6756 56.1937C51.1537 56.8176 52.1909 57.5959 52.9548 58.6274C54.6565 60.9251 55.7247 63.5378 56.1905 66.5829H49.6756V56.1937ZM43.4526 53.5563C44.4152 53.964 45.3406 54.3655 46.2598 54.7731C46.2784 58.3741 46.2784 61.969 46.2784 65.6132V66.5829H40.8876C43.26 62.6793 44.1047 58.3927 43.4526 53.5563ZM11.9772 66.5829H5.35673C6.08338 62.3025 7.44971 59.523 9.83458 57.4106C10.3997 56.9102 11.1636 56.5273 11.9772 56.132V66.5829ZM15.3744 66.5829V63.3278C15.3806 60.5051 15.3806 57.6762 15.362 54.8472C15.362 54.7855 15.3682 54.7422 15.3682 54.7175C15.3869 54.7052 15.4117 54.6928 15.4428 54.6805C16.3806 54.316 17.2935 53.9269 18.2375 53.5131C17.6103 58.3927 18.4487 62.6978 20.7839 66.5829H15.3744ZM41.9248 6.05757C44.7071 8.97915 46.2101 12.9631 45.9617 16.6444C42.8998 16.2676 40.2541 14.9396 38.0804 12.6852C35.4409 9.95505 34.236 6.58876 34.4037 2.40097C37.006 2.43185 39.7076 3.73514 41.9248 6.05757ZM15.3434 31.4685C15.244 31.4746 15.1446 31.487 15.0453 31.4932V31.3326C15.0391 30.2702 15.0391 29.2572 15.0639 28.2504C15.1012 28.2257 15.1446 28.1948 15.2005 28.1639C18.1878 26.3789 20.5354 24.3035 22.38 21.8143C25.2803 17.8921 26.8206 13.4264 26.9448 8.55913V8.24413C26.9634 6.97173 26.1498 6.4714 25.3797 6.43434C24.6096 6.39111 23.7215 6.81731 23.6035 8.12677C23.5662 8.49737 23.5414 8.87415 23.5165 9.24475C23.4606 10.0848 23.4047 10.8754 23.2619 11.6413C22.2558 16.9286 19.4983 21.1658 15.0515 24.2603C15.0515 23.5438 15.0453 22.8211 15.0391 22.0984C15.0266 19.5228 15.0142 16.8544 15.1509 14.254C15.4676 8.13294 21.0012 2.70363 27.2243 2.38862C28.2614 2.33921 29.2862 2.35156 30.373 2.37009C30.5966 2.37009 30.8202 2.37627 31.0438 2.37627C31.0438 3.50043 31.05 4.6184 31.0562 5.74256C31.0748 8.63942 31.0873 11.6351 31.0127 14.5752C30.7891 23.235 24.0506 30.4987 15.3434 31.4685ZM19.9454 34.0194C19.9454 34.0194 19.9268 33.9577 19.9206 33.9268C29.2054 30.2517 34.1118 23.4573 34.5279 13.692C36.3352 16.0144 38.6642 17.7624 41.4714 18.9051C41.4714 18.9051 41.4755 18.9071 41.4838 18.9113C41.4776 20.4122 41.4838 21.9193 41.49 23.4202C41.4962 26.033 41.5086 28.7384 41.4403 31.3882C41.3099 36.7125 37.2357 41.2091 31.9629 41.8453C26.5163 42.5 21.4608 39.2079 19.9454 34.0194ZM34.1305 45.9899L30.8202 48.4173L27.187 45.7551C27.3795 45.4957 27.5721 45.2487 27.7646 45.014C29.7209 45.3537 31.6524 45.3351 33.5156 44.9584C33.7268 45.2795 33.9255 45.6254 34.1305 45.9899ZM36.801 66.5397C36.7575 66.5768 36.6271 66.6262 36.5712 66.6324C32.6089 66.6633 28.7583 66.6571 25.1251 66.6262C25.0568 66.62 24.9015 66.5521 24.858 66.5026C22.1688 63.2414 21.0633 59.4365 21.467 54.8658C21.5478 53.9763 21.7341 53.0992 21.9328 52.1666C21.9949 51.8639 22.057 51.5612 22.1192 51.2586C22.1254 51.2215 22.1688 51.1412 22.2061 51.098C23.0197 50.2703 23.8457 49.4488 24.6966 48.6026L25.0009 48.2999L27.2305 49.9306C27.8267 50.3753 28.4291 50.82 29.0378 51.2401C29.1558 51.3203 29.162 51.3265 29.162 51.5118C29.1433 53.5193 29.1433 55.5205 29.1495 57.5218V58.9856C29.1371 59.2574 29.1185 59.6651 29.3421 60.048C29.5905 60.4619 30.0998 60.9622 30.727 60.993C31.3357 61.0239 31.9567 60.5916 32.2486 60.1468C32.5095 59.7454 32.5033 59.2944 32.4971 58.9733V57.9726C32.5095 55.8602 32.5157 53.6737 32.4971 51.5242C32.4971 51.3389 32.4971 51.3142 32.671 51.1968C33.6771 50.4865 34.6708 49.7515 35.6272 49.0473L36.0868 48.7076L36.4967 49.035C37.5649 49.9121 38.5959 50.7583 39.633 51.5921C41.1298 57.4167 40.1982 62.3148 36.8072 66.5397H36.801Z" fill="black"/>
<path d="M68.3324 45.3285C67.7983 43.3643 65.755 41.919 63.5751 42.0611C62.9541 42.1043 62.7181 41.9005 62.4945 41.394C61.6498 39.4792 60.7804 37.5706 59.8674 35.6805C59.619 35.1617 59.619 34.7355 59.8177 34.2105C61.5318 29.6953 63.2211 25.1678 64.9166 20.6465C64.9911 20.4365 65.0843 20.2327 65.1402 20.0165C65.2458 19.5903 65.1775 19.2197 64.7117 19.0529C64.2521 18.8923 63.9478 19.0961 63.7614 19.51C63.6807 19.6953 63.6124 19.8744 63.5441 20.0597C62.333 23.2963 61.1219 26.5267 59.9171 29.7571C59.5196 30.8133 59.1221 31.8633 58.675 33.0369C58.0725 31.7275 57.5198 30.5477 56.9733 29.3618C55.551 26.2734 54.135 23.1789 52.7128 20.0844C52.4954 19.6088 52.1725 19.2691 51.6135 19.5408C51.098 19.7817 51.1353 20.2265 51.3464 20.6774C51.4086 20.8071 51.4707 20.943 51.5328 21.0789C53.5512 25.4705 55.5572 29.8621 57.6005 34.2475C57.8427 34.7787 57.8924 35.2235 57.6751 35.7794C56.936 37.6571 56.2156 39.5472 55.551 41.4557C55.3212 42.129 55.048 42.3761 54.2716 42.3761C52.4582 42.3699 51.0794 43.2593 50.3031 44.8962C49.5143 46.5577 49.7131 48.1883 50.8993 49.609C52.0607 50.9926 53.5885 51.5176 55.3709 51.0852C57.1471 50.6528 58.2899 49.4978 58.675 47.7374C59.06 45.9833 58.5011 44.4885 57.1099 43.2964C56.9111 43.1296 56.6627 42.759 56.7248 42.5799C57.3707 40.7331 58.0787 38.9048 58.8178 36.9344C59.65 38.7442 60.4077 40.4304 61.2089 42.0919C61.4325 42.5614 61.4138 42.8208 60.9853 43.1976C59.3084 44.6985 59.0787 47.231 60.3953 49.0469C61.6871 50.8258 64.1403 51.3879 66.1091 50.3502C67.935 49.3866 68.8603 47.2865 68.3324 45.3285ZM57.7682 47.5398C57.4577 48.9481 56.5758 49.8375 55.1473 50.1834C53.7189 50.5293 52.5637 50.1463 51.6135 49.016C50.6695 47.8795 50.508 46.6318 51.1477 45.2915C51.775 43.9697 52.8184 43.3026 54.253 43.3026H54.2716C54.93 43.3211 55.4206 43.1482 55.7932 42.8146C55.8864 43.4632 56.4764 43.9758 56.5075 44.0005C57.6564 44.9888 58.0725 46.15 57.7682 47.5398ZM65.6743 49.5287C64.1155 50.3502 62.1715 49.9116 61.153 48.5034C60.091 47.0457 60.2897 45.0629 61.6064 43.8894C62.0411 43.5064 62.2647 43.0987 62.2771 42.6417C62.5876 42.8764 63.0162 43.0246 63.6372 42.9876C65.3389 42.864 67.0096 44.0067 67.4319 45.5694C67.848 47.1074 67.109 48.7751 65.6743 49.5287Z" fill="black"/>
<path d="M68.3324 45.3285C67.7983 43.3643 65.755 41.919 63.5751 42.0611C62.9541 42.1043 62.7181 41.9005 62.4945 41.394C61.6498 39.4792 60.7804 37.5706 59.8674 35.6805C59.619 35.1617 59.619 34.7355 59.8177 34.2105C61.5318 29.6953 63.2211 25.1678 64.9166 20.6465C64.9911 20.4365 65.0843 20.2327 65.1402 20.0165C65.2458 19.5903 65.1775 19.2197 64.7117 19.0529C64.2521 18.8923 63.9478 19.0961 63.7614 19.51C63.6807 19.6953 63.6124 19.8744 63.5441 20.0597C62.333 23.2963 61.1219 26.5267 59.9171 29.7571C59.5196 30.8133 59.1221 31.8633 58.675 33.0369C58.0725 31.7275 57.5198 30.5477 56.9733 29.3618C55.551 26.2734 54.135 23.1789 52.7128 20.0844C52.4954 19.6088 52.1725 19.2691 51.6135 19.5408C51.098 19.7817 51.1353 20.2265 51.3464 20.6774C51.4086 20.8071 51.4707 20.943 51.5328 21.0789C53.5512 25.4705 55.5572 29.8621 57.6005 34.2475C57.8427 34.7787 57.8924 35.2235 57.6751 35.7794C56.936 37.6571 56.2156 39.5472 55.551 41.4557C55.3212 42.129 55.048 42.3761 54.2716 42.3761C52.4582 42.3699 51.0794 43.2593 50.3031 44.8962C49.5143 46.5577 49.7131 48.1883 50.8993 49.609C52.0607 50.9926 53.5885 51.5176 55.3709 51.0852C57.1471 50.6528 58.2899 49.4978 58.675 47.7374C59.06 45.9833 58.5011 44.4885 57.1099 43.2964C56.9111 43.1296 56.6627 42.759 56.7248 42.5799C57.3707 40.7331 58.0787 38.9048 58.8178 36.9344C59.65 38.7442 60.4077 40.4304 61.2089 42.0919C61.4325 42.5614 61.4138 42.8208 60.9853 43.1976C59.3084 44.6985 59.0787 47.231 60.3953 49.0469C61.6871 50.8258 64.1403 51.3879 66.1091 50.3502C67.935 49.3866 68.8603 47.2865 68.3324 45.3285ZM57.7682 47.5398C57.4577 48.9481 56.5758 49.8375 55.1473 50.1834C53.7189 50.5293 52.5637 50.1463 51.6135 49.016C50.6695 47.8795 50.508 46.6318 51.1477 45.2915C51.775 43.9697 52.8184 43.3026 54.253 43.3026H54.2716C54.93 43.3211 55.4206 43.1482 55.7932 42.8146C55.8864 43.4632 56.4764 43.9758 56.5075 44.0005C57.6564 44.9888 58.0725 46.15 57.7682 47.5398ZM65.6743 49.5287C64.1155 50.3502 62.1715 49.9116 61.153 48.5034C60.091 47.0457 60.2897 45.0629 61.6064 43.8894C62.0411 43.5064 62.2647 43.0987 62.2771 42.6417C62.5876 42.8764 63.0162 43.0246 63.6372 42.9876C65.3389 42.864 67.0096 44.0067 67.4319 45.5694C67.848 47.1074 67.109 48.7751 65.6743 49.5287Z" fill="black" stroke="black" stroke-width="0.5" stroke-miterlimit="10"/>
<path d="M59.3201 4.64355H59.2891C57.1526 4.64355 55.4012 6.36684 55.3826 8.4978C55.3702 9.52931 55.7677 10.5052 56.5067 11.2526C57.2396 11.9938 58.2209 12.4077 59.258 12.4138H59.2829C60.3511 12.4138 61.3262 11.9815 62.0279 11.2835C62.736 10.5855 63.1769 9.62196 63.1831 8.55957C63.1955 6.41626 61.4628 4.66208 59.3201 4.64355ZM59.2829 10.5608H59.2704C58.7301 10.5608 58.2209 10.3385 57.8296 9.94933C57.4445 9.5602 57.2396 9.0537 57.2458 8.51633C57.252 7.41688 58.1898 6.49656 59.2891 6.49656H59.3015C60.4256 6.50274 61.3262 7.42307 61.3199 8.54723C61.3137 9.67756 60.4194 10.5608 59.2829 10.5608Z" fill="black"/>
<path d="M10.8281 42.2397C10.2257 41.6591 9.42455 41.3564 8.59233 41.3564C7.76011 41.3688 6.97137 41.7147 6.37515 42.3262C5.78514 42.9377 5.4684 43.7283 5.48082 44.556C5.51187 46.2669 6.92789 47.6443 8.64202 47.6443H8.6917C10.4245 47.6196 11.8156 46.1928 11.7908 44.4571C11.7784 43.6171 11.4368 42.8327 10.8281 42.2397ZM9.92761 44.5066C9.92761 45.2107 9.36245 45.7851 8.66065 45.7913C7.97748 45.779 7.35642 45.223 7.344 44.5189C7.33779 44.1977 7.47442 43.8642 7.71664 43.6171C7.96506 43.3639 8.29422 43.2156 8.62338 43.2095H8.64202C8.97118 43.2095 9.28792 43.3392 9.53014 43.5739C9.78477 43.8148 9.9214 44.136 9.92761 44.4818V44.5066Z" fill="black"/>
<path d="M4.49975 26.0193C4.04637 25.5869 3.45016 25.3584 2.8291 25.3584C2.20803 25.3646 1.61803 25.624 1.17087 26.0872C0.729913 26.5443 0.493909 27.1373 0.50012 27.755C0.524962 29.0335 1.58077 30.065 2.86636 30.065H2.90362C4.20164 30.0465 5.24502 28.9779 5.22639 27.6808C5.22018 27.0508 4.95933 26.464 4.50596 26.0193H4.49975ZM3.8228 27.7179C3.8228 28.2429 3.40047 28.6753 2.87257 28.6815C2.3633 28.6753 1.89751 28.2553 1.88509 27.7302C1.88509 27.4894 1.98445 27.2423 2.16456 27.057C2.35088 26.8655 2.59931 26.7543 2.84152 26.7543H2.85394C3.10236 26.7543 3.33837 26.8531 3.51847 27.0261C3.711 27.2052 3.81037 27.4461 3.81658 27.7055V27.7241L3.8228 27.7179Z" fill="black"/>
<path d="M51.8935 35.112C51.5581 34.7908 51.1172 34.624 50.6576 34.624C50.198 34.6302 49.7633 34.8217 49.4341 35.1614C49.1112 35.5011 48.9311 35.9335 48.9435 36.3905C48.9621 37.3356 49.7446 38.0953 50.6887 38.0953H50.7135C51.6699 38.083 52.44 37.2923 52.4214 36.335C52.4152 35.8717 52.2289 35.4394 51.8873 35.112H51.8935ZM51.3967 36.3659C51.3967 36.755 51.0861 37.07 50.6949 37.0762C50.316 37.07 49.9744 36.7611 49.9682 36.372C49.9682 36.1929 50.0427 36.0076 50.1732 35.8717C50.3098 35.7296 50.4899 35.6494 50.6762 35.6494H50.6887C50.8688 35.6494 51.0427 35.7235 51.1793 35.8532C51.3221 35.9891 51.3967 36.162 51.3967 36.3535V36.3659Z" fill="black"/>
<path d="M67.7856 30.9483C67.3447 30.5222 66.7485 30.2998 66.1398 30.2998C65.525 30.306 64.9474 30.5654 64.5064 31.0163C64.0717 31.4672 63.8357 32.0478 63.8481 32.6593C63.873 33.9193 64.9163 34.9323 66.1771 34.9323H66.2144C67.4937 34.9138 68.5185 33.8637 68.4999 32.5852C68.4936 31.9675 68.239 31.3869 67.7918 30.9483H67.7856ZM67.1211 32.6161C67.1211 33.1349 66.705 33.5611 66.1895 33.5611C65.6865 33.5549 65.2269 33.1411 65.2207 32.6222C65.2207 32.3875 65.3138 32.1405 65.4939 31.9552C65.674 31.7699 65.9225 31.6587 66.1647 31.6525H66.1771C66.4193 31.6525 66.6553 31.7451 66.8292 31.9181C67.0155 32.0972 67.1149 32.3319 67.1211 32.5852V32.6037V32.6161Z" fill="black"/>
<path d="M8.93398 3.62879C8.5365 3.24583 8.00239 3.04199 7.44965 3.04199C6.8969 3.04817 6.37521 3.27671 5.97773 3.68437C5.58646 4.09203 5.3753 4.61087 5.38773 5.16059C5.40636 6.2971 6.34416 7.20507 7.4807 7.20507H7.51175C8.66071 7.18654 9.57988 6.24152 9.56746 5.09266C9.56125 4.53676 9.33146 4.01791 8.92777 3.6226L8.93398 3.62879ZM8.33776 5.12972C8.33776 5.59914 7.96513 5.97593 7.49933 5.9821C7.04596 5.97593 6.63606 5.60533 6.62985 5.1359C6.62985 4.92589 6.7168 4.70353 6.87827 4.53676C7.04596 4.36999 7.26333 4.27116 7.4807 4.26498H7.49312C7.71049 4.26498 7.92165 4.35145 8.08313 4.50586C8.25082 4.66646 8.34397 4.87647 8.34397 5.105V5.12353L8.33776 5.12972Z" fill="black"/>
<path d="M33.46 35.5457C33.224 35.274 32.7148 34.8972 31.926 35.4531C30.8578 36.2066 30.2678 36.2066 29.1934 35.4531C28.3922 34.891 27.8891 35.274 27.6593 35.5519C27.2556 36.0337 27.3302 36.602 27.8581 37.0776C28.6158 37.757 29.5163 38.0967 30.5224 38.0967H30.5597C31.5844 38.1152 32.4912 37.7632 33.2675 37.0714C33.8016 36.5958 33.8699 36.0213 33.46 35.5457ZM33.0564 36.8428C32.3483 37.4729 31.5161 37.8002 30.5597 37.7879C29.6033 37.8002 28.7772 37.479 28.063 36.849C27.7028 36.5278 27.5724 36.1387 27.8953 35.7496C28.2245 35.3543 28.6158 35.4284 29.0132 35.7063C30.1933 36.534 30.9323 36.534 32.1061 35.7063C32.5036 35.4222 32.8949 35.3604 33.224 35.7434C33.5656 36.1387 33.4166 36.5217 33.0564 36.8428Z" fill="black"/>
<path d="M33.0562 36.8438C32.3482 37.4738 31.516 37.8012 30.5595 37.7888C29.6031 37.8012 28.7771 37.48 28.0629 36.85C27.7027 36.5288 27.5723 36.1397 27.8952 35.7505C28.2244 35.3552 28.6156 35.4293 29.0131 35.7073C30.1931 36.535 30.9322 36.535 32.106 35.7073C32.5035 35.4232 32.8947 35.3614 33.2239 35.7444C33.5655 36.1397 33.4164 36.5226 33.0562 36.8438Z" fill="black"/>
</svg>
