<svg width="69" height="69" viewBox="0 0 69 69" fill="none" xmlns="http://www.w3.org/2000/svg">
<path d="M65.1722 2.62891H56.6892C56.4303 2.62898 56.1803 2.7236 55.9863 2.89498C55.7922 3.06637 55.6674 3.30273 55.6352 3.55966L54.8384 9.93466C54.8197 10.0839 54.833 10.2355 54.8773 10.3793C54.9216 10.523 54.9959 10.6558 55.0954 10.7687C55.1948 10.8816 55.3171 10.9721 55.4541 11.0342C55.5911 11.0963 55.7398 11.1286 55.8903 11.1289H58.725L57.5626 17.5167C57.2236 17.5298 56.8881 17.5906 56.566 17.6973C56.2818 17.7895 56.011 17.9189 55.7606 18.0819L55.648 18.169C55.4302 18.3271 55.2319 18.5104 55.0573 18.7152L54.9723 18.8087C54.7979 19.0373 54.6576 19.2899 54.5557 19.5588C54.5494 19.5843 54.5281 19.6034 54.5196 19.6289H54.5345C54.4165 19.937 54.3546 20.2637 54.3517 20.5937L54.3539 20.6914V23.6813C54.3539 24.2168 54.05 24.7523 53.761 25.1433C53.5357 25.4493 53.625 25.9019 53.999 25.9593C56.5384 26.3397 61.0731 24.3018 61.0731 20.5958C61.0731 20.2558 60.9988 19.937 60.8904 19.631H60.9053C60.8968 19.6055 60.8755 19.5864 60.8649 19.5609C60.763 19.2921 60.6227 19.0394 60.4484 18.8108L60.3655 18.7173C60.1918 18.5109 59.9926 18.3274 59.7726 18.1712L59.66 18.0862L59.626 18.0607L60.8861 11.1289H63.4361C63.954 11.1288 64.4539 10.9395 64.8421 10.5967C65.2303 10.254 65.4799 9.78126 65.5441 9.26741L66.2241 3.82316C66.2428 3.67387 66.2295 3.52232 66.1852 3.37854C66.1409 3.23477 66.0666 3.10203 65.9671 2.98913C65.8677 2.87623 65.7454 2.78574 65.6084 2.72364C65.4714 2.66154 65.3227 2.62925 65.1722 2.62891ZM59.0098 35.1117C59.0098 33.3458 58.334 31.5757 56.9868 30.2284C56.7401 29.9817 56.4472 29.786 56.1249 29.6524C55.8026 29.5189 55.4571 29.4502 55.1082 29.4502C54.7594 29.4502 54.4139 29.5189 54.0916 29.6524C53.7693 29.786 53.4764 29.9817 53.2297 30.2284L52.7878 30.6704C52.4224 29.2003 51.6669 27.856 50.6011 26.7795C50.4077 26.5862 50.1846 26.4417 49.9764 26.2695C49.9785 26.2122 49.9934 26.1548 49.9934 26.0953C49.9934 24.3294 49.3176 22.5593 47.9725 21.212C47.7258 20.9653 47.433 20.7696 47.1107 20.636C46.7883 20.5025 46.4429 20.4338 46.094 20.4338C45.7451 20.4338 45.3997 20.5025 45.0773 20.636C44.755 20.7696 44.4622 20.9653 44.2155 21.212L40.7666 24.6588C40.4756 23.5456 39.9616 22.5032 39.2558 21.5945C40.357 20.347 40.9692 18.7429 40.9791 17.0789C40.9791 15.313 40.3034 13.5429 38.9561 12.1957C38.7095 11.9489 38.4166 11.7532 38.0943 11.6197C37.772 11.4861 37.4265 11.4174 37.0776 11.4174C36.7287 11.4174 36.3833 11.4861 36.061 11.6197C35.7386 11.7532 35.4458 11.9489 35.1991 12.1957L27.6873 19.7097L4.75 42.5768V63.1914C4.75 63.4732 4.86194 63.7435 5.0612 63.9427C5.26046 64.142 5.53071 64.2539 5.8125 64.2539H43.1764L56.6106 50.8197C57.4002 50.0303 58.0266 49.0931 58.4539 48.0616C58.8812 47.0301 59.1012 45.9245 59.1011 44.808C59.0869 42.9275 58.4494 41.1047 57.2885 39.6252C58.4169 38.331 59.0098 36.7267 59.0098 35.1117ZM9 44.3363L27.3196 26.0188C27.4386 26.1718 27.547 26.329 27.6873 26.4693C28.1312 26.9133 28.6583 27.2654 29.2384 27.5057C29.8185 27.746 30.4402 27.8697 31.0681 27.8697C32.29 27.8697 33.5161 27.4022 34.449 26.4693L36.2446 24.6737C36.6165 25.3239 36.8184 26.0422 36.8205 26.7753C36.8203 27.9024 36.3723 28.9832 35.5753 29.78L9 56.3574V44.3363ZM11.363 60.0039L36.3317 35.0352C36.4507 35.1882 36.5591 35.3454 36.6994 35.4857C37.1434 35.9296 37.6704 36.2818 38.2505 36.5221C38.8306 36.7624 39.4524 36.886 40.0802 36.886C41.3021 36.886 42.5304 36.4185 43.4611 35.4857L47.9683 30.9785C48.0724 30.8744 48.1446 30.7533 48.2402 30.6449C48.7228 31.4519 48.9212 32.3972 48.8037 33.33C48.6862 34.2629 48.2597 35.1295 47.5921 35.7917L23.3841 60.0039H11.363ZM53.6059 47.8149L41.4169 60.0039H29.3957L45.3503 44.0494C45.4692 44.2024 45.5798 44.3618 45.72 44.502C46.164 44.946 46.6911 45.2982 47.2712 45.5385C47.8513 45.7787 48.473 45.9024 49.1009 45.9024C50.3228 45.9024 51.5489 45.4349 52.4818 44.502L54.2774 42.7064C54.6493 43.3567 54.8511 44.0749 54.8532 44.808C54.8531 45.3666 54.7429 45.9197 54.5289 46.4356C54.3148 46.9516 54.0012 47.4203 53.6059 47.8149Z" fill="#111111" stroke="white" stroke-width="2.2"/>
</svg>
