<svg width="69" height="69" viewBox="0 0 69 69" fill="none" xmlns="http://www.w3.org/2000/svg">
<g clip-path="url(#clip0_3042_9760)">
<path d="M36.5726 67.9922C32.4681 67.4871 28.3926 66.3818 24.346 64.6763C20.2994 62.9681 16.633 60.4805 13.3468 57.2135C10.058 53.9438 7.3269 49.7996 5.15364 44.781C2.98037 39.7624 1.71483 33.7118 1.357 26.6292L1.20703 23.3378L4.24197 23.4966C6.98881 23.6514 10.2513 24.367 14.0296 25.6434C17.8104 26.9144 21.019 28.537 23.6553 30.5113C23.9895 25.4058 25.2129 20.0287 27.3257 14.38C29.4384 8.73134 32.0655 3.9354 35.207 -0.0078125C38.3485 3.9354 40.9757 8.75714 43.0884 14.4574C45.2011 20.1577 46.4246 25.5619 46.7587 30.6702C49.2425 28.8507 52.3235 27.2403 56.0017 25.8389C59.6799 24.4376 63.0201 23.6555 66.0221 23.4926L69.207 23.3378L69.0571 26.784C68.8545 32.4055 68.0073 37.4513 66.5154 41.9214C65.0236 46.3914 62.9122 50.3129 60.1811 53.6858C57.4501 57.0587 54.1257 59.9238 50.2081 62.281C46.2904 64.6383 41.7452 66.542 36.5726 67.9922ZM36.5252 63.8697C35.8017 52.5995 32.5628 44.079 26.8087 38.3081C21.0545 32.5372 13.9006 28.9729 5.34702 27.615C6.07056 39.2247 9.40939 47.881 15.3635 53.584C21.3176 59.287 28.3715 62.7156 36.5252 63.8697ZM35.207 43.3308C36.0937 41.6281 37.2316 39.8479 38.6208 37.9904C40.0074 36.1328 41.4348 34.5754 42.9029 33.318C42.874 29.1358 42.1846 24.7703 40.8349 20.2215C39.4851 15.6727 37.6092 11.3167 35.207 7.15351C32.8049 11.3167 30.9289 15.6727 29.5792 20.2215C28.2294 24.7703 27.5401 29.1358 27.5112 33.318C28.9793 34.5781 30.3988 36.1356 31.7695 37.9904C33.1403 39.8479 34.2862 41.6267 35.207 43.3268M40.4757 62.5092C43.5646 61.431 46.5259 60.0066 49.3596 58.236C52.1959 56.4681 54.7348 54.2032 56.9765 51.4413C59.2208 48.6821 61.0612 45.3513 62.4978 41.4488C63.9317 37.5491 64.7868 32.9378 65.0631 27.615C58.6775 28.5655 52.9983 30.8834 48.0256 34.5686C43.0529 38.2538 39.468 42.7727 37.2711 48.1254C38.0604 50.298 38.709 52.4909 39.2168 54.7042C39.7246 56.9175 40.1442 59.5192 40.4757 62.5092Z" fill="#111111"/>
<path d="M35.207 43.3308C36.0937 41.6281 37.2316 39.8479 38.6208 37.9904C40.0074 36.1328 41.4348 34.5754 42.9029 33.318C42.874 29.1358 42.1846 24.7703 40.8349 20.2215C39.4852 15.6727 37.6092 11.3167 35.207 7.15351C32.8049 11.3167 30.9289 15.6727 29.5792 20.2215C28.2294 24.7703 27.5401 29.1358 27.5112 33.318C28.9793 34.5781 30.3988 36.1356 31.7695 37.9904C33.1403 39.8479 34.2862 41.6267 35.207 43.3268M36.5726 67.9922C32.4681 67.4871 28.3926 66.3818 24.346 64.6763C20.2994 62.9681 16.633 60.4805 13.3468 57.2135C10.058 53.9438 7.3269 49.7996 5.15364 44.781C2.98037 39.7624 1.71483 33.7118 1.357 26.6292L1.20703 23.3378L4.24197 23.4966C6.98881 23.6514 10.2513 24.367 14.0296 25.6434C17.8104 26.9144 21.019 28.537 23.6553 30.5113C23.9895 25.4058 25.2129 20.0287 27.3257 14.38C29.4384 8.73134 32.0655 3.9354 35.207 -0.0078125C38.3485 3.9354 40.9757 8.75714 43.0884 14.4574C45.2012 20.1577 46.4246 25.5619 46.7587 30.6702C49.2425 28.8507 52.3235 27.2403 56.0017 25.8389C59.6799 24.4376 63.0201 23.6555 66.0221 23.4926L69.207 23.3378L69.0571 26.784C68.8545 32.4055 68.0073 37.4513 66.5155 41.9214C65.0236 46.3914 62.9122 50.3129 60.1811 53.6858C57.4501 57.0587 54.1257 59.9238 50.2081 62.281C46.2904 64.6383 41.7452 66.542 36.5726 67.9922ZM36.5252 63.8697C35.8017 52.5995 32.5628 44.079 26.8087 38.3081C21.0545 32.5372 13.9006 28.9729 5.34702 27.615C6.07056 39.2247 9.40939 47.881 15.3635 53.584C21.3176 59.287 28.3715 62.7156 36.5252 63.8697ZM40.4757 62.5092C43.5646 61.431 46.5259 60.0066 49.3596 58.236C52.1959 56.4681 54.7348 54.2032 56.9765 51.4413C59.2208 48.6821 61.0612 45.3513 62.4978 41.4488C63.9317 37.5491 64.7868 32.9378 65.0631 27.615C58.6775 28.5655 52.9983 30.8834 48.0256 34.5686C43.0529 38.2538 39.468 42.7727 37.2711 48.1254C38.0604 50.298 38.709 52.4909 39.2168 54.7042C39.7246 56.9175 40.1442 59.5192 40.4757 62.5092Z" stroke="white"/>
</g>
<defs>
<clipPath id="clip0_3042_9760">
<rect width="68" height="68" fill="white" transform="translate(0.5 0.503906)"/>
</clipPath>
</defs>
</svg>
