<svg width="47" height="69" viewBox="0 0 47 69" fill="none" xmlns="http://www.w3.org/2000/svg">
<path d="M10.786 2.17947C11.0668 2.17947 11.3476 2.17947 11.6284 2.17947C12.2175 2.42279 12.7295 2.73246 13.0048 3.35734C13.0543 3.46794 13.2966 3.55642 13.4452 3.55642C14.216 3.56748 14.9923 3.57301 15.7685 3.57301C16.1154 3.57301 16.4677 3.57301 16.8146 3.57301C16.9522 3.57301 17.1449 3.57301 17.211 3.49559C17.5578 3.08638 17.9873 3.03108 18.4387 3.03108C18.5874 3.03108 18.736 3.03661 18.8847 3.03661C27.0604 3.05873 35.2416 3.08638 43.4172 3.1085C43.4283 3.1085 43.4393 3.1085 43.4503 3.1085C43.5439 3.1085 43.6375 3.1085 43.7256 3.1085C43.8136 3.1085 43.9182 3.1085 44.0173 3.11403C44.722 3.14721 45.2065 3.62278 45.2231 4.28084C45.2396 4.96655 44.7551 5.50848 44.0229 5.51954C43.5769 5.52507 43.1365 5.5306 42.6905 5.5306C41.8096 5.5306 40.9343 5.51954 40.0534 5.51954C38.8972 5.51954 37.7356 5.51401 36.5464 5.50848C36.5464 6.89649 36.5409 8.23473 36.5353 9.66698C36.5684 9.66698 36.6014 9.66698 36.64 9.66698C36.8051 9.66698 36.9703 9.66698 37.1354 9.66698C37.3006 9.66698 37.4823 9.66698 37.653 9.67251C38.5283 9.69462 38.9688 10.0983 38.9688 10.9665C38.9798 13.0015 38.9743 15.031 38.9523 17.066C38.9413 17.9342 38.5008 18.3324 37.6254 18.3379C37.5373 18.3379 37.4438 18.3379 37.3557 18.3379C37.0859 18.3379 36.8106 18.3379 36.5188 18.3379C36.5188 19.7204 36.5133 21.0531 36.5078 22.4466C37.207 22.4466 37.8787 22.4466 38.5559 22.4521C40.3397 22.4577 42.1234 22.4521 43.9072 22.4743C44.6835 22.4853 45.19 23.0051 45.1735 23.713C45.157 24.3987 44.6615 24.8632 43.9127 24.8853C43.8577 24.8853 43.8026 24.8853 43.7476 24.8853C43.643 24.8853 43.5384 24.8853 43.4338 24.8853C38.7431 24.8687 34.0524 24.8577 29.3617 24.8411C24.4507 24.8245 19.5398 24.8134 14.6289 24.7968C14.3922 24.7968 14.1554 24.7968 13.8746 24.7968C13.8746 26.4835 13.8636 28.1203 13.8581 29.8456C14.7335 29.8456 15.6089 29.8456 16.4843 29.8512C17.9928 29.8622 18.747 30.6143 18.7415 32.1129C18.7415 34.5074 18.7305 36.9018 18.7195 39.346C15.0033 39.335 11.3311 39.3239 7.57633 39.3129C7.57082 39.147 7.5543 38.9534 7.5543 38.7654C7.5543 36.5092 7.56532 34.2585 7.57633 32.0023C7.58183 30.6032 8.3471 29.8401 9.74 29.8346C9.89966 29.8346 10.0648 29.8346 10.2245 29.8346C10.9622 29.8346 11.7055 29.8401 12.4762 29.8401C12.4762 28.1535 12.4872 26.5166 12.4928 24.8245C12.3001 24.8134 12.1074 24.7968 11.9092 24.7968C11.7055 24.7968 11.5073 24.7968 11.3036 24.7968C10.9237 24.7968 10.5438 24.7968 10.1639 24.7968C9.42068 24.7968 8.68294 24.7968 7.93969 24.7692C7.58734 24.7581 7.246 24.5369 6.89915 24.4208C6.67893 24.3489 6.45871 24.2438 6.23849 24.2383C5.01626 24.2162 3.79404 24.2383 2.57181 24.2107C1.96621 24.1996 1.60284 23.7738 1.85609 23.3425C1.98272 23.1268 2.35159 22.9443 2.62136 22.9333C3.11135 22.9167 3.59584 22.9111 4.08583 22.9111C4.73548 22.9111 5.38513 22.9167 6.04029 22.9167C6.12287 22.9167 6.20545 22.9167 6.29354 22.9167C6.46421 22.9167 6.70095 22.9167 6.79454 22.8171C7.20195 22.3803 7.70296 22.3471 8.23149 22.3471C8.27002 22.3471 8.30856 22.3471 8.35261 22.3471C13.0653 22.3692 17.7725 22.3803 22.4853 22.3913C22.722 22.3913 22.9587 22.3913 23.245 22.3913C23.245 21.0199 23.2505 19.6872 23.256 18.2826C23.223 18.2826 23.19 18.2826 23.1514 18.2826C22.9643 18.2826 22.7826 18.2826 22.6009 18.2826C22.4192 18.2826 22.2375 18.2826 22.0558 18.2771C21.2851 18.2549 20.8556 17.8457 20.8501 17.0771C20.8446 14.9812 20.8501 12.8909 20.8722 10.7951C20.8777 10.0596 21.3016 9.65039 22.0393 9.61721C22.188 9.61168 22.3421 9.60615 22.4908 9.60615C22.7771 9.60615 23.0689 9.61721 23.3772 9.61721C23.3772 8.21261 23.3827 6.87437 23.3882 5.45871C22.3586 5.45871 21.3456 5.45318 20.3271 5.44765C20.2776 5.44765 20.2335 5.44765 20.184 5.44765C19.9032 5.44765 19.6224 5.44765 19.3416 5.44765C19.0058 5.44765 18.6755 5.44765 18.3451 5.43106C18.0919 5.42 17.767 5.39788 17.6129 5.24304C17.266 4.89466 16.8696 4.85042 16.4512 4.85042C16.3576 4.85042 16.264 4.85042 16.1704 4.85042C15.8181 4.85042 15.4547 4.89466 15.1024 4.89466C14.8711 4.89466 14.6454 4.87807 14.4307 4.8283C14.271 4.78959 14.1224 4.773 13.9792 4.773C13.1259 4.773 12.5808 5.39788 11.9587 5.88452C11.8651 5.95641 11.8431 6.17207 11.8431 6.32138C11.8266 10.3084 11.8211 14.2955 11.7991 18.2826C11.7991 18.6254 11.9147 18.7582 12.2285 18.8798C13.1809 19.2503 13.8031 19.9416 14.0783 21.0033C12.1074 20.9978 10.1804 20.9922 8.19295 20.9867C8.47373 19.9416 9.09035 19.2393 10.0428 18.8798C10.4172 18.736 10.5108 18.5646 10.5108 18.1941C10.5108 14.2457 10.5328 10.3029 10.5273 6.35456C10.5273 6.13889 10.4117 5.84028 10.252 5.71309C8.91417 4.69559 9.07933 2.96472 10.6044 2.27901C10.6759 2.24583 10.7365 2.20159 10.8026 2.16288M24.7866 9.61721C25.0288 9.61721 25.2545 9.61168 25.4803 9.61168C25.6454 9.61168 25.8051 9.61168 25.9648 9.62826C26.6585 9.67803 27.0989 10.0928 27.1044 10.7896C27.1209 12.902 27.1154 15.0144 27.0879 17.1268C27.0769 17.8513 26.6089 18.2605 25.8877 18.2826C25.7555 18.2826 25.6179 18.2826 25.4858 18.2826C25.205 18.2826 24.9242 18.2826 24.6434 18.2771C24.6434 19.6927 24.6379 21.0254 24.6324 22.3526C28.1615 22.3637 31.6409 22.3747 35.1425 22.3858C35.1425 21.031 35.148 19.7093 35.1535 18.3102C35.1039 18.3102 35.0544 18.3102 35.0048 18.3102C34.8286 18.3102 34.6635 18.3102 34.5038 18.3102C34.3166 18.3102 34.1349 18.3102 33.9533 18.3102C33.177 18.2937 32.731 17.901 32.7255 17.1324C32.709 15.0421 32.72 12.9462 32.7421 10.8559C32.7531 10.0762 33.177 9.68357 33.9533 9.65039C34.0854 9.64486 34.223 9.64485 34.3552 9.64485C34.6194 9.64485 34.8837 9.65039 35.1645 9.65039C35.1645 8.23473 35.17 6.8799 35.1755 5.5306C31.674 5.51954 28.222 5.50848 24.7535 5.49742C24.7535 6.87437 24.748 8.21261 24.7425 9.62274C24.7535 9.62274 24.7701 9.62274 24.7811 9.62274M10.3456 0.503906L9.95471 0.736162C9.92168 0.758281 9.88864 0.774871 9.85561 0.796991C8.6499 1.36657 7.8461 2.43385 7.70846 3.66702C7.58183 4.78406 8.01126 5.89557 8.87012 6.71953C8.87012 8.74348 8.87013 10.7619 8.86462 12.7859C8.86462 14.3951 8.85911 15.9987 8.85911 17.6079C7.73599 18.2162 6.95971 19.2227 6.59635 20.5554L6.46972 21.0144C6.33758 21.0807 6.20546 21.1526 6.07332 21.2466H6.03478C5.71546 21.2466 5.39064 21.2466 5.07132 21.2466C4.74099 21.2466 4.41616 21.2466 4.08583 21.2466C3.49674 21.2466 3.01225 21.2522 2.56631 21.2687C1.87261 21.2909 0.909145 21.6835 0.43567 22.4909C0.0337672 23.171 0.0227564 23.9784 0.397132 24.6531C0.810045 25.3941 1.61385 25.842 2.54979 25.8586C3.1609 25.8696 3.76651 25.8696 4.37762 25.8696C4.9557 25.8696 5.53378 25.8696 6.11186 25.8807C6.13939 25.8918 6.16691 25.9028 6.19444 25.9083C6.26051 25.9305 6.32657 25.9581 6.39264 25.9747C6.46421 25.9968 6.53579 26.03 6.60185 26.0632C6.91567 26.2014 7.3506 26.3895 7.89565 26.406C8.68294 26.4337 9.45922 26.4392 10.1749 26.4392H10.7475H10.8466V28.159C10.6374 28.159 10.4392 28.159 10.2355 28.159H9.7455C7.4442 28.1701 5.94669 29.6687 5.94119 31.9802C5.93018 34.2364 5.92467 36.4926 5.91917 38.7488C5.91917 38.9147 5.93018 39.0861 5.93569 39.241V39.3792L6.01826 40.9552H7.58734L18.7305 40.994H20.3822V39.3405V37.1673C20.3932 35.4696 20.3987 33.7885 20.4042 32.1074C20.4042 29.7019 18.9122 28.1977 16.5063 28.1867C16.1815 28.1867 15.8566 28.1867 15.5263 28.1867V26.4558L29.3617 26.4945L32.8742 26.5056L43.4338 26.5388H43.5659H43.7531C43.8247 26.5388 43.8962 26.5388 43.9623 26.5388C45.5864 26.4945 46.7921 25.3166 46.8252 23.7461C46.8417 22.9664 46.5664 22.2365 46.0434 21.6945C45.5093 21.136 44.7551 20.8208 43.9293 20.8153C42.652 20.7987 41.3527 20.7987 40.0974 20.7987H38.5614H38.165V20.6273V19.9692C39.646 19.7535 40.5929 18.6697 40.6094 17.0992C40.6315 15.0808 40.637 13.0181 40.626 10.972C40.6149 9.40154 39.679 8.30662 38.1925 8.07436V7.53796V7.18958H40.0479C40.4277 7.19511 40.8076 7.20063 41.1875 7.20063C41.6885 7.20063 42.1895 7.20617 42.6905 7.20617C43.142 7.20617 43.5934 7.20616 44.0504 7.1951C44.8432 7.18404 45.5699 6.87437 46.0929 6.32138C46.616 5.77392 46.8912 5.04397 46.8747 4.25872C46.8362 2.7214 45.669 1.54906 44.0944 1.47717C43.9733 1.47164 43.8467 1.47164 43.7256 1.47164H43.5769H43.4448H43.4172L34.6965 1.44399L18.8847 1.39422C18.8241 1.39422 18.7635 1.39422 18.6975 1.39422C18.6094 1.39422 18.5213 1.39422 18.4332 1.39422C18.0809 1.39422 17.2605 1.39422 16.4953 1.93615H15.763C15.0969 1.93615 14.5408 1.93616 14.0398 1.93063C13.4948 1.24492 12.7845 0.890998 12.2505 0.669801L11.9532 0.548147H11.6284H11.2045H10.786H10.3291L10.3456 0.503906ZM13.4838 6.7693C13.6654 6.61999 13.8967 6.43751 13.9682 6.43751C13.9737 6.43751 13.9958 6.4375 14.0398 6.44856C14.3591 6.52598 14.7005 6.55917 15.0914 6.55917C15.3061 6.55917 15.5263 6.5481 15.7465 6.53704C15.8897 6.53151 16.0328 6.52045 16.1759 6.52045H16.275H16.4402C16.4787 6.52045 16.5118 6.52045 16.5338 6.52045C17.1394 7.05133 17.8937 7.07898 18.268 7.09557C18.6589 7.11216 19.0443 7.11216 19.3306 7.11216H19.76H20.173H20.3106H21.72V7.94717V7.98035C20.2225 8.15178 19.2205 9.25223 19.2095 10.7785C19.1875 12.8246 19.182 14.9481 19.1875 17.0826C19.1875 18.6033 20.1399 19.6927 21.5879 19.8973V20.7213L19.1985 20.7157C18.0313 20.7157 16.8641 20.7102 15.697 20.7047L15.6639 20.5886C15.3171 19.2614 14.5573 18.2494 13.4397 17.6301C13.4507 15.49 13.4562 13.3554 13.4672 11.2154C13.4672 9.73334 13.4782 8.25132 13.4838 6.7693ZM26.3942 8.01353V7.16193L33.5128 7.18404V8.02459C32.0429 8.2292 31.1014 9.302 31.0849 10.8338C31.0574 13.0126 31.0519 15.1361 31.0684 17.1434C31.0794 18.6531 32.0373 19.7314 33.4908 19.9305V20.7213L28.3101 20.7047H26.2841V19.9084C27.721 19.7148 28.7065 18.6254 28.7285 17.149C28.7561 15.0586 28.7616 12.913 28.745 10.773C28.734 9.34071 27.7816 8.24026 26.3887 8.008L26.3942 8.01353Z" fill="black"/>
<path d="M7.53194 45.1517C11.2812 45.1628 14.9589 45.1738 18.6696 45.1849C18.6806 45.395 18.7026 45.5665 18.7026 45.7434C18.7026 47.5738 18.7026 49.4042 18.6861 51.2346C18.6751 52.6724 17.9153 53.4411 16.5059 53.4411C14.2211 53.4411 11.9419 53.43 9.65707 53.419C8.26968 53.4134 7.51542 52.6392 7.51542 51.2346C7.51542 49.2273 7.52644 47.2144 7.53194 45.1462M5.88579 43.4817V45.1407L5.87478 46.9877C5.87478 48.4144 5.86377 49.819 5.86377 51.2291C5.86377 53.5517 7.34476 55.0613 9.64606 55.0724C11.9309 55.0835 14.2156 55.089 16.5004 55.0945C18.8183 55.0945 20.3213 53.5793 20.3378 51.2402C20.3488 49.6033 20.3488 47.972 20.3543 46.3351V45.7434C20.3543 45.5886 20.3433 45.4282 20.3323 45.2568L20.3213 45.0854L20.2332 43.5259H18.6806L14.1661 43.5093L7.54295 43.4872H5.8913L5.88579 43.4817Z" fill="black"/>
<path d="M7.58223 40.6882C11.2985 40.6993 14.9761 40.7103 18.6814 40.7214C18.6814 41.7555 18.6759 42.7509 18.6703 43.8071C14.9872 43.796 11.2985 43.7849 7.57122 43.7739C7.57122 42.7674 7.57673 41.7499 7.58223 40.6882ZM5.93609 39.0237V40.6827L5.92507 42.2753V43.7684L5.91406 45.4273H7.56572L12.2234 45.4439L18.6648 45.4605H20.3165V43.8071V42.231L20.3275 40.7214V39.0624H18.6814L14.6183 39.0513L7.58223 39.0292H5.93058L5.93609 39.0237Z" fill="black"/>
<path d="M13.4319 54.4956L12.6566 65.0813L11.8813 54.4956H12.6566H13.4319Z" fill="black" stroke="black" stroke-width="0.5"/>
</svg>
