<svg width="69" height="70" viewBox="0 0 69 70" fill="none" xmlns="http://www.w3.org/2000/svg">
<path d="M45.8327 68.5034V52.9201H35.916V52.2118L36.12 51.7868C40.6503 42.2721 43.0005 31.8666 42.9993 21.3284V20.3991C45.722 19.4035 48.6004 18.9017 51.4993 18.9173C55.1487 18.9173 58.0472 19.6709 59.9993 20.3991V21.3284C59.9993 31.8685 62.351 42.2696 66.8787 51.784L67.0827 52.209V52.9173H57.166V68.5034M23.166 68.5034V50.0868C23.166 48.5839 23.763 47.1426 24.8257 46.0798C25.8885 45.0171 27.3298 44.4201 28.8327 44.4201V21.7534C28.8327 21.7534 24.5827 18.9201 17.4993 18.9201C10.416 18.9201 6.16602 21.7534 6.16602 21.7534V44.4201C7.66891 44.4201 9.11025 45.0171 10.173 46.0798C11.2357 47.1426 11.8327 48.5839 11.8327 50.0868V68.5034M51.0743 13.2534C51.0743 13.2534 46.541 10.4201 46.541 6.87845C46.541 5.56492 47.0628 4.30519 47.9916 3.37638C48.9204 2.44758 50.1802 1.92578 51.4937 1.92578C52.8072 1.92578 54.0669 2.44758 54.9957 3.37638C55.9245 4.30519 56.4464 5.56492 56.4464 6.87845C56.4464 10.4201 51.9243 13.2534 51.9243 13.2534H51.0743ZM17.0743 13.2534C17.0743 13.2534 12.541 10.4201 12.541 6.87845C12.541 6.22806 12.6691 5.58403 12.918 4.98314C13.1669 4.38226 13.5317 3.83628 13.9916 3.37638C14.4515 2.91649 14.9975 2.55168 15.5984 2.30278C16.1993 2.05389 16.8433 1.92578 17.4937 1.92578C18.1441 1.92578 18.7881 2.05389 19.389 2.30278C19.9899 2.55168 20.5358 2.91649 20.9957 3.37638C21.4556 3.83628 21.8205 4.38226 22.0693 4.98314C22.3182 5.58403 22.4463 6.22806 22.4463 6.87845C22.4463 10.4201 17.9243 13.2534 17.9243 13.2534H17.0743Z" stroke="#111111" stroke-width="2.5" stroke-linecap="round"/>
</svg>
